SplineFontDB: 3.0
FontName: AlegreyaX-Italic
FullName: Alegreya X Italic
FamilyName: Alegreya X
Weight: Regular
Copyright: Copyright (c) 2011, Juan Pablo del Peral (juan@huertatipografica.com.ar), with Reserved Font Names "Alegreya" "Alegreya SC"
Version: 001.002
ItalicAngle: 0
UnderlinePosition: -59
UnderlineWidth: 56
Ascent: 800
Descent: 200
InvalidEm: 0
sfntRevision: 0x00010106
LayerCount: 2
Layer: 0 0 "Back" 1
Layer: 1 0 "Fore" 0
XUID: [1021 387 -636565393 3042638]
FSType: 0
OS2Version: 2
OS2_WeightWidthSlopeOnly: 0
OS2_UseTypoMetrics: 1
CreationTime: 1325707241
ModificationTime: 1421776467
PfmFamily: 17
TTFWeight: 400
TTFWidth: 5
LineGap: 0
VLineGap: 0
Panose: 2 0 5 3 5 0 0 2 0 4
OS2TypoAscent: 1016
OS2TypoAOffset: 0
OS2TypoDescent: -345
OS2TypoDOffset: 0
OS2TypoLinegap: 0
OS2WinAscent: 1016
OS2WinAOffset: 0
OS2WinDescent: 345
OS2WinDOffset: 0
HheadAscent: 1016
HheadAOffset: 0
HheadDescent: -345
HheadDOffset: 0
OS2SubXSize: 700
OS2SubYSize: 650
OS2SubXOff: 0
OS2SubYOff: 140
OS2SupXSize: 700
OS2SupYSize: 650
OS2SupXOff: 0
OS2SupYOff: 477
OS2StrikeYSize: 50
OS2StrikeYPos: 250
OS2CapHeight: 0
OS2XHeight: 0
OS2FamilyClass: 258
OS2Vendor: 'pyrs'
OS2CodePages: 20000093.00000000
OS2UnicodeRanges: a00000ef.4000204b.00000000.00000000
Lookup: 258 0 0 "'kern' Horizontal Kerning lookup 0" { "'kern' Horizontal Kerning lookup 0 subtable"  } ['kern' ('DFLT' <'dflt' > ) ]
MarkAttachClasses: 1
DEI: 91125
LangName: 1033 "" "" "" "" "" "Version 1.003" "" "Alegreya is a trademark of Juan Pablo del Peral" "Juan Pablo del Peral" "Juan Pablo del Peral" "" "www.huertatipografica.com.ar" "www.huertatipografica.com.ar" "This Font Software is licensed under the SIL Open Font License, Version 1.1. This license is available with a FAQ at: http://scripts.sil.org/OFL" "http://scripts.sil.org/OFL"
Encoding: UnicodeBmp
Compacted: 1
UnicodeInterp: none
NameList: AGL For New Fonts
DisplaySize: -36
AntiAlias: 1
FitToEm: 1
WinInfo: 297 27 8
BeginPrivate: 4

StartChar: AE
Encoding: 198 198 1
Width: 778
Flags: MW
HStem: -10 21G<261 261> 0 44<367 584> 575 20G<301 314> 588 49<472.5 515.5 402.5 564> 629 20G<726 726>
VStem: 366 72
LayerCount: 2
Back
Fore
SplineSet
266 35 m 1x94
 329 39 367 70 367 117 c 2
 367 153 l 1
 365 277 l 1
 269 269 l 1
 180 260 l 1
 96 120 l 2
 79 92 75 82 75 69 c 0
 75 47 88 39 124 39 c 2
 178 39 l 1
 167 -7 l 1
 167 -7 96 0 35 0 c 0
 13 0 -31 -4 -31 -4 c 1
 -33 30 l 1
 -33 30 3 65 38 121 c 2
 329 579 l 1
 327 590 321 595 307 595 c 0x6c
 295 595 274 593 274 593 c 1
 272 597 l 1
 285 640 l 2
 285 639 367 637 438 637 c 0x54
 593 637 669 640 726 649 c 1x6c
 728 643 l 1
 728 643 703 570 686 478 c 1
 639 474 l 1
 639 474 648 512 648 537 c 0
 648 581 626 588 502 588 c 0
 443 588 433 580 433 557 c 2
 435 327 l 1
 551 338 l 1
 641 351 l 1
 645 346 l 1
 626 294 l 1
 543 292 l 1
 435 283 l 1
 441 112 l 2
 442 62 462 44 515 44 c 0
 653 44 671 56 700 166 c 1
 744 171 l 1
 747 166 l 1
 747 166 719 83 700 -1 c 1
 695 -7 l 2
 697 -5 503 0 404 0 c 0x54
 330 0 261 -10 261 -10 c 1
 260 -3 l 1
 266 35 l 1x94
213 310 m 1
 293 315 l 1
 364 321 l 1
 363 540 l 1
 354 540 l 1
 213 310 l 1
EndSplineSet
Validated: 37
EndChar

StartChar: Aacute
Encoding: 193 193 2
Width: 558
Flags: MW
HStem: -10 21G<287 287> 0 21G<37.5 92 393.5 446> 821 20G<487 487>
LayerCount: 2
Back
Fore
SplineSet
456 111 m 0x60
 466 60 485 45 540 39 c 1
 542 36 l 1
 531 -3 l 1
 531 -3 462 0 430 0 c 0x60
 357 0 287 -10 287 -10 c 1xa0
 285 -3 l 1
 293 33 l 1
 367 38 385 48 385 83 c 0
 385 93 383 108 381 121 c 2
 363 234 l 1
 339 235 290 235 263 235 c 0
 225 235 180 230 156 227 c 1
 107 119 l 2
 97 98 93 86 93 73 c 0
 93 48 109 37 146 37 c 2
 202 37 l 1
 202 34 l 1
 192 -7 l 1
 192 -7 124 0 60 0 c 0
 15 0 -45 -3 -45 -3 c 1
 -32 42 l 1
 5 46 26 62 54 120 c 2
 302 631 l 1
 358 648 l 1
 366 649 l 1
 366 649 410 342 456 111 c 0x60
304 544 m 1
 179 271 l 1
 264 271 l 2
 290 271 333 274 355 277 c 1
 311 544 l 1
 304 544 l 1
512 787 m 1
 508 777 l 1
 508 777 407 743 302 703 c 1
 294 708 l 1
 288 732 l 1
 382 781 487 841 487 841 c 1
 496 835 l 1
 512 787 l 1
EndSplineSet
Validated: 1
EndChar

StartChar: acute.cap
Encoding: 65537 -1 3
Width: 382
Flags: MW
HStem: 703 21G<196 196> 821 20G<381 381>
LayerCount: 2
Back
Fore
SplineSet
406 787 m 1
 402 777 l 1
 402 777 301 743 196 703 c 1
 188 708 l 1
 182 732 l 1
 276 781 381 841 381 841 c 1
 390 835 l 1
 406 787 l 1
EndSplineSet
Validated: 1
EndChar

StartChar: Abreve
Encoding: 258 258 4
Width: 558
Flags: MW
HStem: -10 21G<287 287> 0 21G<37.5 92 393.5 446> 710 58<333 373.5 333 379.5> 798 20G<259 267 267 267 452 460 460 460>
LayerCount: 2
Back
Fore
SplineSet
456 111 m 0x70
 466 60 485 45 540 39 c 1
 542 36 l 1
 531 -3 l 1
 531 -3 462 0 430 0 c 0x70
 357 0 287 -10 287 -10 c 1xb0
 285 -3 l 1
 293 33 l 1
 367 38 385 48 385 83 c 0
 385 93 383 108 381 121 c 2
 363 234 l 1
 339 235 290 235 263 235 c 0
 225 235 180 230 156 227 c 1
 107 119 l 2
 97 98 93 86 93 73 c 0
 93 48 109 37 146 37 c 2
 202 37 l 1
 202 34 l 1
 192 -7 l 1
 192 -7 124 0 60 0 c 0
 15 0 -45 -3 -45 -3 c 1
 -32 42 l 1
 5 46 26 62 54 120 c 2
 302 631 l 1
 358 648 l 1
 366 649 l 1
 366 649 410 342 456 111 c 0x70
304 544 m 1
 179 271 l 1
 264 271 l 2
 290 271 333 274 355 277 c 1
 311 544 l 1
 304 544 l 1
353 768 m 0
 394 768 432 785 452 818 c 1
 460 818 l 1
 475 808 l 1
 455 759 413 710 346 710 c 0
 279 710 249 759 241 808 c 1
 259 818 l 1
 267 818 l 1
 279 785 313 768 353 768 c 0
EndSplineSet
Validated: 1
EndChar

StartChar: breve.cap
Encoding: 65538 -1 5
Width: 382
Flags: MW
HStem: 710 58<238 278.5 238 284.5> 798 20G<164 172 172 172 357 365 365 365>
LayerCount: 2
Back
Fore
SplineSet
258 768 m 0
 299 768 337 785 357 818 c 1
 365 818 l 1
 380 808 l 1
 360 759 318 710 251 710 c 0
 184 710 154 759 146 808 c 1
 164 818 l 1
 172 818 l 1
 184 785 218 768 258 768 c 0
EndSplineSet
Validated: 1
EndChar

StartChar: Acircumflex
Encoding: 194 194 6
Width: 558
Flags: MW
HStem: -10 21G<287 287> 0 21G<37.5 92 393.5 446> 826 20G<357 371 371 371>
LayerCount: 2
Back
Fore
SplineSet
456 111 m 0x60
 466 60 485 45 540 39 c 1
 542 36 l 1
 531 -3 l 1
 531 -3 462 0 430 0 c 0x60
 357 0 287 -10 287 -10 c 1xa0
 285 -3 l 1
 293 33 l 1
 367 38 385 48 385 83 c 0
 385 93 383 108 381 121 c 2
 363 234 l 1
 339 235 290 235 263 235 c 0
 225 235 180 230 156 227 c 1
 107 119 l 2
 97 98 93 86 93 73 c 0
 93 48 109 37 146 37 c 2
 202 37 l 1
 202 34 l 1
 192 -7 l 1
 192 -7 124 0 60 0 c 0
 15 0 -45 -3 -45 -3 c 1
 -32 42 l 1
 5 46 26 62 54 120 c 2
 302 631 l 1
 358 648 l 1
 366 649 l 1
 366 649 410 342 456 111 c 0x60
304 544 m 1
 179 271 l 1
 264 271 l 2
 290 271 333 274 355 277 c 1
 311 544 l 1
 304 544 l 1
221 713 m 1
 210 735 l 1
 357 846 l 1
 371 846 l 1
 491 735 l 1
 474 713 l 1
 465 712 l 1
 355 777 l 1
 230 712 l 1
 221 713 l 1
EndSplineSet
Validated: 1
EndChar

StartChar: circumflex.cap
Encoding: 65539 -1 7
Width: 382
Flags: MW
HStem: 712 21G<134 134 369 369> 826 20G<261 275 275 275>
LayerCount: 2
Back
Fore
SplineSet
125 713 m 1
 114 735 l 1
 261 846 l 1
 275 846 l 1
 395 735 l 1
 378 713 l 1
 369 712 l 1
 259 777 l 1
 134 712 l 1
 125 713 l 1
EndSplineSet
Validated: 1
EndChar

StartChar: Adieresis
Encoding: 196 196 8
Width: 558
Flags: MW
HStem: -10 21G<287 287> 0 21G<37.5 92 393.5 446> 725 93<268.5 279.5 429 439.5>
LayerCount: 2
Back
Fore
SplineSet
456 111 m 0x60
 466 60 485 45 540 39 c 1
 542 36 l 1
 531 -3 l 1
 531 -3 462 0 430 0 c 0x60
 357 0 287 -10 287 -10 c 1xa0
 285 -3 l 1
 293 33 l 1
 367 38 385 48 385 83 c 0
 385 93 383 108 381 121 c 2
 363 234 l 1
 339 235 290 235 263 235 c 0
 225 235 180 230 156 227 c 1
 107 119 l 2
 97 98 93 86 93 73 c 0
 93 48 109 37 146 37 c 2
 202 37 l 1
 202 34 l 1
 192 -7 l 1
 192 -7 124 0 60 0 c 0
 15 0 -45 -3 -45 -3 c 1
 -32 42 l 1
 5 46 26 62 54 120 c 2
 302 631 l 1
 358 648 l 1
 366 649 l 1
 366 649 410 342 456 111 c 0x60
304 544 m 1
 179 271 l 1
 264 271 l 2
 290 271 333 274 355 277 c 1
 311 544 l 1
 304 544 l 1
424 725 m 0
 400 725 389 744 389 763 c 0
 389 792 414 818 444 818 c 0
 468 818 480 800 480 780 c 0
 480 751 455 725 424 725 c 0
264 725 m 0
 240 725 229 744 229 763 c 0
 229 792 253 818 284 818 c 0
 308 818 320 800 320 780 c 0
 320 751 295 725 264 725 c 0
EndSplineSet
Validated: 1
EndChar

StartChar: dieresis.cap
Encoding: 65540 -1 9
Width: 382
Flags: MW
HStem: 725 93<172.5 183.5 333 343.5>
LayerCount: 2
Back
Fore
SplineSet
328 725 m 0
 304 725 293 744 293 763 c 0
 293 792 318 818 348 818 c 0
 372 818 384 800 384 780 c 0
 384 751 359 725 328 725 c 0
168 725 m 0
 144 725 133 744 133 763 c 0
 133 792 157 818 188 818 c 0
 212 818 224 800 224 780 c 0
 224 751 199 725 168 725 c 0
EndSplineSet
Validated: 1
EndChar

StartChar: Agrave
Encoding: 192 192 10
Width: 558
Flags: MW
HStem: -10 21G<287 287> 0 21G<37.5 92 393.5 446> 821 20G<230 230>
LayerCount: 2
Back
Fore
SplineSet
456 111 m 0x60
 466 60 485 45 540 39 c 1
 542 36 l 1
 531 -3 l 1
 531 -3 462 0 430 0 c 0x60
 357 0 287 -10 287 -10 c 1xa0
 285 -3 l 1
 293 33 l 1
 367 38 385 48 385 83 c 0
 385 93 383 108 381 121 c 2
 363 234 l 1
 339 235 290 235 263 235 c 0
 225 235 180 230 156 227 c 1
 107 119 l 2
 97 98 93 86 93 73 c 0
 93 48 109 37 146 37 c 2
 202 37 l 1
 202 34 l 1
 192 -7 l 1
 192 -7 124 0 60 0 c 0
 15 0 -45 -3 -45 -3 c 1
 -32 42 l 1
 5 46 26 62 54 120 c 2
 302 631 l 1
 358 648 l 1
 366 649 l 1
 366 649 410 342 456 111 c 0x60
304 544 m 1
 179 271 l 1
 264 271 l 2
 290 271 333 274 355 277 c 1
 311 544 l 1
 304 544 l 1
209 777 m 1
 205 787 l 1
 221 835 l 1
 230 841 l 1
 230 841 335 781 429 732 c 1
 423 708 l 1
 415 703 l 1
 310 743 209 777 209 777 c 1
EndSplineSet
Validated: 1
EndChar

StartChar: grave.cap
Encoding: 65541 -1 11
Width: 383
Flags: MW
HStem: 703 21G<322 322> 821 20G<137 137>
LayerCount: 2
Back
Fore
SplineSet
116 777 m 1
 112 787 l 1
 128 835 l 1
 137 841 l 1
 137 841 242 781 336 732 c 1
 330 708 l 1
 322 703 l 1
 217 743 116 777 116 777 c 1
EndSplineSet
Validated: 1
EndChar

StartChar: Amacron
Encoding: 256 256 12
Width: 558
Flags: MW
HStem: -10 21G<287 287> 0 21G<37.5 92 393.5 446> 730 52<340 348> 768 20G<493 493>
LayerCount: 2
Back
Fore
SplineSet
456 111 m 0x60
 466 60 485 45 540 39 c 1
 542 36 l 1
 531 -3 l 1
 531 -3 462 0 430 0 c 0x50
 357 0 287 -10 287 -10 c 1xa0
 285 -3 l 1
 293 33 l 1
 367 38 385 48 385 83 c 0
 385 93 383 108 381 121 c 2
 363 234 l 1
 339 235 290 235 263 235 c 0
 225 235 180 230 156 227 c 1
 107 119 l 2
 97 98 93 86 93 73 c 0
 93 48 109 37 146 37 c 2
 202 37 l 1
 202 34 l 1
 192 -7 l 1
 192 -7 124 0 60 0 c 0
 15 0 -45 -3 -45 -3 c 1
 -32 42 l 1
 5 46 26 62 54 120 c 2
 302 631 l 1
 358 648 l 1
 366 649 l 1
 366 649 410 342 456 111 c 0x60
304 544 m 1
 179 271 l 1
 264 271 l 2
 290 271 333 274 355 277 c 1
 311 544 l 1
 304 544 l 1
493 788 m 1
 498 778 l 1
 485 731 l 1
 348 730 l 2
 292 730 210 729 210 729 c 1
 205 738 l 1
 221 783 l 1
 221 783 312 782 368 782 c 0x60
 416 782 493 788 493 788 c 1
EndSplineSet
Validated: 1
EndChar

StartChar: macron.cap
Encoding: 65542 -1 13
Width: 382
Flags: MW
HStem: 729 21G<115 115> 730 52<245 253> 768 20G<398 398>
LayerCount: 2
Back
Fore
SplineSet
398 788 m 1xa0
 403 778 l 1
 390 731 l 1
 253 730 l 2x40
 197 730 115 729 115 729 c 1xa0
 110 738 l 1
 126 783 l 1
 126 783 217 782 273 782 c 0x40
 321 782 398 788 398 788 c 1xa0
EndSplineSet
Validated: 1
EndChar

StartChar: Aogonek
Encoding: 260 260 14
Width: 558
Flags: MW
HStem: -242 59<396.5 460.5> 0 21G<37.5 92 393.5 430 430 439> 629 20G<366 366>
LayerCount: 2
Back
Fore
SplineSet
519 -160 m 1
 529 -179 l 1
 529 -179 476 -225 425 -242 c 1
 368 -242 329 -212 329 -159 c 0
 329 -107 376 -57 439 0 c 1
 430 0 l 2
 357 0 287 -10 287 -10 c 1
 285 -3 l 1
 293 33 l 1
 367 38 385 48 385 83 c 0
 385 93 383 108 381 121 c 2
 363 234 l 1
 339 235 290 235 263 235 c 0
 225 235 180 230 156 227 c 1
 107 119 l 2
 97 98 93 86 93 73 c 0
 93 48 109 37 146 37 c 2
 202 37 l 1
 202 34 l 1
 192 -7 l 1
 192 -7 124 0 60 0 c 0
 15 0 -45 -3 -45 -3 c 1
 -32 42 l 1
 5 46 26 62 54 120 c 2
 302 631 l 1
 358 648 l 1
 366 649 l 1
 366 649 410 342 456 111 c 0
 466 60 485 45 540 39 c 1
 542 36 l 1
 531 -3 l 1
 481 -1 l 1
 416 -63 393 -93 393 -135 c 0
 393 -163 412 -183 442 -183 c 0
 479 -183 519 -160 519 -160 c 1
304 544 m 1
 179 271 l 1
 264 271 l 2
 290 271 333 274 355 277 c 1
 311 544 l 1
 304 544 l 1
EndSplineSet
Validated: 1
EndChar

StartChar: ogonek
Encoding: 731 731 15
Width: 382
Flags: MW
HStem: -241 59<109.5 173.5> 22 20G<197 238 238 238>
LayerCount: 2
Back
Fore
SplineSet
232 -159 m 1
 242 -178 l 1
 242 -178 189 -224 138 -241 c 1
 81 -241 42 -211 42 -158 c 0
 42 -94 114 -34 197 42 c 1
 238 42 l 1
 140 -51 106 -84 106 -134 c 0
 106 -162 125 -182 155 -182 c 0
 192 -182 232 -159 232 -159 c 1
EndSplineSet
Validated: 1
EndChar

StartChar: Aring
Encoding: 197 197 16
Width: 558
Flags: MW
HStem: -10 21G<287 287> 0 21G<37.5 92 393.5 446> 674 164<339 366.5>
LayerCount: 2
Back
Fore
SplineSet
456 111 m 0x60
 466 60 485 45 540 39 c 1
 542 36 l 1
 531 -3 l 1
 531 -3 462 0 430 0 c 0x60
 357 0 287 -10 287 -10 c 1xa0
 285 -3 l 1
 293 33 l 1
 367 38 385 48 385 83 c 0
 385 93 383 108 381 121 c 2
 363 234 l 1
 339 235 290 235 263 235 c 0
 225 235 180 230 156 227 c 1
 107 119 l 2
 97 98 93 86 93 73 c 0
 93 48 109 37 146 37 c 2
 202 37 l 1
 202 34 l 1
 192 -7 l 1
 192 -7 124 0 60 0 c 0
 15 0 -45 -3 -45 -3 c 1
 -32 42 l 1
 5 46 26 62 54 120 c 2
 302 631 l 1
 358 648 l 1
 366 649 l 1
 366 649 410 342 456 111 c 0x60
304 544 m 1
 179 271 l 1
 264 271 l 2
 290 271 333 274 355 277 c 1
 311 544 l 1
 304 544 l 1
349 712 m 0
 366 712 397 717 397 757 c 0
 397 782 382 799 353 799 c 0
 323 799 306 781 306 754 c 0
 306 724 331 712 349 712 c 0
338 674 m 0
 295 674 273 702 273 742 c 0
 273 797 312 838 366 838 c 0
 414 838 432 806 432 772 c 0
 432 722 395 674 338 674 c 0
EndSplineSet
Validated: 1
EndChar

StartChar: ring.cap
Encoding: 65543 -1 17
Width: 382
Flags: MW
HStem: 674 164<243 270.5>
LayerCount: 2
Back
Fore
SplineSet
253 712 m 0
 270 712 301 717 301 757 c 0
 301 782 286 799 257 799 c 0
 227 799 210 781 210 754 c 0
 210 724 235 712 253 712 c 0
242 674 m 0
 199 674 177 702 177 742 c 0
 177 797 216 838 270 838 c 0
 318 838 336 806 336 772 c 0
 336 722 299 674 242 674 c 0
EndSplineSet
Validated: 1
EndChar

StartChar: Atilde
Encoding: 195 195 18
Width: 558
Flags: MW
HStem: -10 21G<287 287> 0 21G<37.5 92 393.5 446> 711 64<413.5 419> 744 64<290 296.5> 800 20G<493 499 499 499>
LayerCount: 2
Back
Fore
SplineSet
456 111 m 0x68
 466 60 485 45 540 39 c 1
 542 36 l 1
 531 -3 l 1
 531 -3 462 0 430 0 c 0x50
 357 0 287 -10 287 -10 c 1xa8
 285 -3 l 1
 293 33 l 1
 367 38 385 48 385 83 c 0
 385 93 383 108 381 121 c 2
 363 234 l 1
 339 235 290 235 263 235 c 0
 225 235 180 230 156 227 c 1
 107 119 l 2
 97 98 93 86 93 73 c 0
 93 48 109 37 146 37 c 2
 202 37 l 1
 202 34 l 1
 192 -7 l 1
 192 -7 124 0 60 0 c 0
 15 0 -45 -3 -45 -3 c 1
 -32 42 l 1
 5 46 26 62 54 120 c 2
 302 631 l 1
 358 648 l 1
 366 649 l 1
 366 649 410 342 456 111 c 0x68
304 544 m 1
 179 271 l 1
 264 271 l 2
 290 271 333 274 355 277 c 1
 311 544 l 1
 304 544 l 1
217 699 m 1
 211 699 l 1
 191 720 l 1
 192 725 l 1
 275 804 l 1
 290 808 l 1x50
 322 808 400 775 427 775 c 0
 449 775 493 820 493 820 c 1
 499 820 l 1
 518 799 l 1
 518 794 l 1
 435 715 l 1
 419 711 l 1x68
 387 711 310 744 283 744 c 0
 260 744 217 699 217 699 c 1
EndSplineSet
Validated: 1
EndChar

StartChar: tilde.cap
Encoding: 65544 -1 19
Width: 382
Flags: MW
HStem: 699 21G<94 120 94 114> 711 64<316.5 322> 744 64<193 199.5> 800 20G<396 402 402 402>
LayerCount: 2
Back
Fore
SplineSet
120 699 m 1xa0
 114 699 l 1
 94 720 l 1
 95 725 l 1
 178 804 l 1
 193 808 l 1xa0
 225 808 303 775 330 775 c 0
 352 775 396 820 396 820 c 1
 402 820 l 1
 421 799 l 1
 421 794 l 1
 338 715 l 1
 322 711 l 1x50
 290 711 213 744 186 744 c 0
 163 744 120 699 120 699 c 1xa0
EndSplineSet
Validated: 1
EndChar

StartChar: B
Encoding: 66 66 20
Width: 571
Flags: MW
HStem: -12 21G<29 29> -10 47<253.5 334 250.5 338> 0 21G<113.5 162.5> 576 20G<143.5 163.5> 620 20G<333 388.5>
VStem: 433 81<142 212.5>
LayerCount: 2
Back
Fore
SplineSet
138 0 m 0x3c
 89 0 29 -12 29 -12 c 1x9c
 39 31 l 1
 101 43 119 61 126 118 c 2
 178 542 l 2
 183 585 178 596 149 596 c 0
 138 596 117 594 117 594 c 1
 115 598 l 1
 127 639 l 1
 127 639 195 636 231 636 c 0
 266 636 333 640 333 640 c 1
 444 640 514 593 514 508 c 0
 514 431 463 369 381 335 c 1
 465 316 514 264 514 196 c 0
 514 88 401 -10 275 -10 c 0x5c
 232 -10 187 0 138 0 c 0x3c
316 302 m 1
 216 300 l 1
 188 108 l 2
 182 56 210 37 291 37 c 0x5c
 377 37 433 94 433 180 c 0
 433 245 394 288 316 302 c 1
223 349 m 1
 223 349 315 341 328 341 c 1
 328 341 437 366 437 491 c 0
 437 566 387 602 281 602 c 0
 267 602 264 597 260 579 c 0
 249 512 236 437 223 349 c 1
EndSplineSet
Validated: 33
EndChar

StartChar: C
Encoding: 67 67 21
Width: 604
Flags: MW
HStem: -12 45<262.5 364.5> 594 54<311.5 427>
VStem: 45 87<207 365>
LayerCount: 2
Back
Fore
SplineSet
307 -12 m 0
 150 -12 45 91 45 253 c 0
 45 477 206 648 417 648 c 0
 496 648 590 625 590 625 c 1
 593 619 l 1
 593 619 565 545 548 455 c 1
 505 451 l 1
 505 451 514 490 514 510 c 0
 514 566 471 594 383 594 c 0
 236 594 132 469 132 282 c 0
 132 132 203 33 322 33 c 0
 410 33 470 84 508 193 c 1
 551 197 l 1
 551 197 520 107 505 37 c 1
 499 28 l 1
 499 28 422 -12 307 -12 c 0
EndSplineSet
Validated: 1
EndChar

StartChar: Cacute
Encoding: 262 262 22
Width: 603
Flags: MW
HStem: -12 45<262.5 364.5> 594 54<311.5 427> 821 20G<531 531>
VStem: 45 87<207 365>
LayerCount: 2
Back
Fore
SplineSet
307 -12 m 0
 150 -12 45 91 45 253 c 0
 45 477 206 648 417 648 c 0
 496 648 590 625 590 625 c 1
 593 619 l 1
 593 619 565 545 548 455 c 1
 505 451 l 1
 505 451 514 490 514 510 c 0
 514 566 471 594 383 594 c 0
 236 594 132 469 132 282 c 0
 132 132 203 33 322 33 c 0
 410 33 470 84 508 193 c 1
 551 197 l 1
 551 197 520 107 505 37 c 1
 499 28 l 1
 499 28 422 -12 307 -12 c 0
556 787 m 1
 552 777 l 1
 552 777 451 743 346 703 c 1
 338 708 l 1
 332 732 l 1
 426 781 531 841 531 841 c 1
 540 835 l 1
 556 787 l 1
EndSplineSet
Validated: 1
EndChar

StartChar: Ccaron
Encoding: 268 268 23
Width: 603
Flags: MW
HStem: -12 45<262.5 364.5> 594 54<311.5 427> 818 20G<310 310 544 544>
VStem: 45 87<207 365>
LayerCount: 2
Back
Fore
SplineSet
307 -12 m 0
 150 -12 45 91 45 253 c 0
 45 477 206 648 417 648 c 0
 496 648 590 625 590 625 c 1
 593 619 l 1
 593 619 565 545 548 455 c 1
 505 451 l 1
 505 451 514 490 514 510 c 0
 514 566 471 594 383 594 c 0
 236 594 132 469 132 282 c 0
 132 132 203 33 322 33 c 0
 410 33 470 84 508 193 c 1
 551 197 l 1
 551 197 520 107 505 37 c 1
 499 28 l 1
 499 28 422 -12 307 -12 c 0
553 837 m 1
 565 815 l 1
 417 704 l 1
 404 704 l 1
 284 815 l 1
 300 837 l 1
 310 838 l 1
 419 773 l 1
 544 838 l 1
 553 837 l 1
EndSplineSet
Validated: 1
EndChar

StartChar: caron.cap
Encoding: 65545 -1 24
Width: 382
Flags: MW
HStem: 704 21G<244 257 244 244> 818 20G<150 150 384 384>
LayerCount: 2
Back
Fore
SplineSet
393 837 m 1
 405 815 l 1
 257 704 l 1
 244 704 l 1
 124 815 l 1
 140 837 l 1
 150 838 l 1
 259 773 l 1
 384 838 l 1
 393 837 l 1
EndSplineSet
Validated: 1
EndChar

StartChar: Ccedilla
Encoding: 199 199 25
Width: 603
Flags: MW
HStem: -233 21G<238 280> -218 20G<261 289.5> -161 20G<222 230 230 230> -11 44<284 284 325 325> 594 54<311.5 427>
VStem: 45 87<207 365>
LayerCount: 2
Back
Fore
SplineSet
254 -85 m 1x7c
 284 -11 l 1
 140 -2 45 99 45 253 c 0
 45 477 206 648 417 648 c 0
 496 648 590 625 590 625 c 1
 593 619 l 1
 593 619 565 545 548 455 c 1
 505 451 l 1
 505 451 514 490 514 510 c 0
 514 566 471 594 383 594 c 0
 236 594 132 469 132 282 c 0
 132 132 203 33 322 33 c 0
 410 33 470 84 508 193 c 1
 551 197 l 1
 551 197 520 107 505 37 c 1
 499 28 l 1
 499 28 430 -7 325 -11 c 1
 308 -50 l 1
 336 -72 380 -100 380 -135 c 0
 380 -188 308 -233 252 -233 c 0xbc
 224 -233 190 -221 190 -199 c 0
 190 -186 209 -158 222 -141 c 1
 230 -141 l 1
 227 -178 246 -198 276 -198 c 0
 303 -198 327 -181 327 -158 c 0
 327 -135 288 -107 254 -85 c 1x7c
EndSplineSet
Validated: 33
EndChar

StartChar: cedilla
Encoding: 184 184 26
Width: 383
Flags: MW
HStem: -233 21G<91 133> -218 20G<114 142.5> -161 20G<75 83 83 83> 3 20G<152 194 194 194>
LayerCount: 2
Back
Fore
SplineSet
107 -85 m 1x70
 152 23 l 1
 194 23 l 1
 161 -50 l 1
 189 -72 233 -100 233 -135 c 0
 233 -188 161 -233 105 -233 c 0xb0
 77 -233 43 -221 43 -199 c 0
 43 -186 62 -158 75 -141 c 1
 83 -141 l 1
 80 -178 99 -198 129 -198 c 0
 156 -198 180 -181 180 -158 c 0
 180 -135 141 -107 107 -85 c 1x70
EndSplineSet
Validated: 33
EndChar

StartChar: Cdotaccent
Encoding: 266 266 27
Width: 603
Flags: MW
HStem: -12 45<262.5 364.5> 594 54<311.5 427> 719 110<412.5 426>
VStem: 45 87<207 365>
LayerCount: 2
Back
Fore
SplineSet
307 -12 m 0
 150 -12 45 91 45 253 c 0
 45 477 206 648 417 648 c 0
 496 648 590 625 590 625 c 1
 593 619 l 1
 593 619 565 545 548 455 c 1
 505 451 l 1
 505 451 514 490 514 510 c 0
 514 566 471 594 383 594 c 0
 236 594 132 469 132 282 c 0
 132 132 203 33 322 33 c 0
 410 33 470 84 508 193 c 1
 551 197 l 1
 551 197 520 107 505 37 c 1
 499 28 l 1
 499 28 422 -12 307 -12 c 0
408 719 m 0
 378 719 365 741 365 764 c 0
 365 799 394 829 431 829 c 0
 459 829 473 807 473 784 c 0
 473 749 444 719 408 719 c 0
EndSplineSet
Validated: 1
EndChar

StartChar: dotaccent.cap
Encoding: 65546 -1 28
Width: 382
Flags: MW
HStem: 719 110<252.5 266>
LayerCount: 2
Back
Fore
SplineSet
248 719 m 0
 218 719 205 741 205 764 c 0
 205 799 234 829 271 829 c 0
 299 829 313 807 313 784 c 0
 313 749 284 719 248 719 c 0
EndSplineSet
Validated: 1
EndChar

StartChar: D
Encoding: 68 68 29
Width: 675
Flags: MW
HStem: -12 47<286 384 262 386.5> 0 21G<116 164> 596 44<362 385.5>
VStem: 567 86<270.5 432.5>
LayerCount: 2
Back
Fore
SplineSet
286 -12 m 1xb0
 286 -12 188 0 140 0 c 0x70
 92 0 28 -12 28 -12 c 1
 39 31 l 1
 101 43 119 61 126 117 c 2
 178 542 l 2
 183 585 178 596 150 596 c 0
 138 596 116 594 116 594 c 1
 115 598 l 1
 126 639 l 1
 126 639 189 636 226 636 c 0
 270 636 362 640 362 640 c 1
 533 640 653 533 653 376 c 0
 653 165 487 -12 286 -12 c 1xb0
298 596 m 0
 272 596 265 592 262 574 c 0
 218 299 191 143 191 107 c 0
 191 50 219 35 305 35 c 0
 463 35 567 167 567 356 c 0
 567 509 473 596 298 596 c 0
EndSplineSet
Validated: 33
EndChar

StartChar: Dcaron
Encoding: 270 270 30
Width: 674
Flags: MW
HStem: -12 47<286 384 262 386.5> 0 21G<116 164> 596 44<362 385.5> 818 20G<282 282 516 516>
VStem: 567 86<270.5 432.5>
LayerCount: 2
Back
Fore
SplineSet
286 -12 m 1xb8
 286 -12 188 0 140 0 c 0x78
 92 0 28 -12 28 -12 c 1
 39 31 l 1
 101 43 119 61 126 117 c 2
 178 542 l 2
 183 585 178 596 150 596 c 0
 138 596 116 594 116 594 c 1
 115 598 l 1
 126 639 l 1
 126 639 189 636 226 636 c 0
 270 636 362 640 362 640 c 1
 533 640 653 533 653 376 c 0
 653 165 487 -12 286 -12 c 1xb8
298 596 m 0
 272 596 265 592 262 574 c 0
 218 299 191 143 191 107 c 0
 191 50 219 35 305 35 c 0
 463 35 567 167 567 356 c 0
 567 509 473 596 298 596 c 0
525 837 m 1
 537 815 l 1
 389 704 l 1
 376 704 l 1
 256 815 l 1
 272 837 l 1
 282 838 l 1
 391 773 l 1
 516 838 l 1
 525 837 l 1
EndSplineSet
Validated: 33
EndChar

StartChar: E
Encoding: 69 69 31
Width: 567
Flags: MW
HStem: -10 21G<29 29> 0 41<125 334> 305 46<309.5 316.5> 576 20G<143.5 163.5> 590 46<297.5 334 228.5 387.5> 628 20G<546 546>
LayerCount: 2
Back
Fore
SplineSet
185 80 m 0x68
 185 45 201 41 257 41 c 0
 411 41 430 53 459 164 c 1
 500 169 l 1
 502 164 l 1
 502 164 474 82 455 -2 c 1
 450 -7 l 1
 450 -7 251 0 161 0 c 0x68
 89 0 29 -10 29 -10 c 1
 40 33 l 1
 99 41 118 60 125 117 c 2
 178 542 l 2
 183 585 178 596 149 596 c 0xb4
 138 596 116 594 116 594 c 1
 115 597 l 1
 126 639 l 1
 126 639 200 636 257 636 c 0x68
 411 636 482 639 546 648 c 1x74
 548 643 l 1
 548 643 523 571 506 479 c 1
 462 475 l 1
 462 475 471 514 471 540 c 0
 471 586 446 590 329 590 c 0
 266 590 262 589 256 551 c 2
 225 352 l 1
 246 352 295 351 324 351 c 0
 358 351 442 362 442 362 c 1
 445 358 l 1
 425 302 l 1
 425 302 343 305 290 305 c 0
 262 305 232 301 216 298 c 1
 200 186 185 114 185 80 c 0x68
EndSplineSet
Validated: 33
EndChar

StartChar: Eacute
Encoding: 201 201 32
Width: 568
Flags: MW
HStem: -10 21G<29 29> 0 41<125 334> 305 46<309.5 316.5> 576 20G<143.5 163.5> 590 46<297.5 334 228.5 387.5> 821 20G<460 460>
LayerCount: 2
Back
Fore
SplineSet
185 80 m 0x6c
 185 45 201 41 257 41 c 0
 411 41 430 53 459 164 c 1
 500 169 l 1
 502 164 l 1
 502 164 474 82 455 -2 c 1
 450 -7 l 1
 450 -7 251 0 161 0 c 0x6c
 89 0 29 -10 29 -10 c 1
 40 33 l 1
 99 41 118 60 125 117 c 2
 178 542 l 2
 183 585 178 596 149 596 c 0xb4
 138 596 116 594 116 594 c 1
 115 597 l 1
 126 639 l 1
 126 639 200 636 257 636 c 0
 411 636 482 639 546 648 c 1
 548 643 l 1
 548 643 523 571 506 479 c 1
 462 475 l 1
 462 475 471 514 471 540 c 0
 471 586 446 590 329 590 c 0
 266 590 262 589 256 551 c 2
 225 352 l 1
 246 352 295 351 324 351 c 0
 358 351 442 362 442 362 c 1
 445 358 l 1
 425 302 l 1
 425 302 343 305 290 305 c 0
 262 305 232 301 216 298 c 1
 200 186 185 114 185 80 c 0x6c
485 787 m 1
 481 777 l 1
 481 777 380 743 275 703 c 1
 267 708 l 1
 261 732 l 1
 355 781 460 841 460 841 c 1
 469 835 l 1
 485 787 l 1
EndSplineSet
Validated: 33
EndChar

StartChar: Ecaron
Encoding: 282 282 33
Width: 568
Flags: MW
HStem: -10 21G<29 29> 0 41<125 334> 305 46<309.5 316.5> 576 20G<143.5 163.5> 590 46<297.5 334 228.5 387.5> 818 20G<261 261 495 495>
LayerCount: 2
Back
Fore
SplineSet
185 80 m 0x6c
 185 45 201 41 257 41 c 0
 411 41 430 53 459 164 c 1
 500 169 l 1
 502 164 l 1
 502 164 474 82 455 -2 c 1
 450 -7 l 1
 450 -7 251 0 161 0 c 0x6c
 89 0 29 -10 29 -10 c 1
 40 33 l 1
 99 41 118 60 125 117 c 2
 178 542 l 2
 183 585 178 596 149 596 c 0xb4
 138 596 116 594 116 594 c 1
 115 597 l 1
 126 639 l 1
 126 639 200 636 257 636 c 0
 411 636 482 639 546 648 c 1
 548 643 l 1
 548 643 523 571 506 479 c 1
 462 475 l 1
 462 475 471 514 471 540 c 0
 471 586 446 590 329 590 c 0
 266 590 262 589 256 551 c 2
 225 352 l 1
 246 352 295 351 324 351 c 0
 358 351 442 362 442 362 c 1
 445 358 l 1
 425 302 l 1
 425 302 343 305 290 305 c 0
 262 305 232 301 216 298 c 1
 200 186 185 114 185 80 c 0x6c
504 837 m 1
 516 815 l 1
 368 704 l 1
 355 704 l 1
 235 815 l 1
 251 837 l 1
 261 838 l 1
 370 773 l 1
 495 838 l 1
 504 837 l 1
EndSplineSet
Validated: 33
EndChar

StartChar: Ecircumflex
Encoding: 202 202 34
Width: 568
Flags: MW
HStem: -10 21G<29 29> 0 41<125 334> 305 46<309.5 316.5> 576 20G<143.5 163.5> 590 46<297.5 334 228.5 387.5> 826 20G<372 386 386 386>
LayerCount: 2
Back
Fore
SplineSet
185 80 m 0x6c
 185 45 201 41 257 41 c 0
 411 41 430 53 459 164 c 1
 500 169 l 1
 502 164 l 1
 502 164 474 82 455 -2 c 1
 450 -7 l 1
 450 -7 251 0 161 0 c 0x6c
 89 0 29 -10 29 -10 c 1
 40 33 l 1
 99 41 118 60 125 117 c 2
 178 542 l 2
 183 585 178 596 149 596 c 0xb4
 138 596 116 594 116 594 c 1
 115 597 l 1
 126 639 l 1
 126 639 200 636 257 636 c 0
 411 636 482 639 546 648 c 1
 548 643 l 1
 548 643 523 571 506 479 c 1
 462 475 l 1
 462 475 471 514 471 540 c 0
 471 586 446 590 329 590 c 0
 266 590 262 589 256 551 c 2
 225 352 l 1
 246 352 295 351 324 351 c 0
 358 351 442 362 442 362 c 1
 445 358 l 1
 425 302 l 1
 425 302 343 305 290 305 c 0
 262 305 232 301 216 298 c 1
 200 186 185 114 185 80 c 0x6c
236 713 m 1
 225 735 l 1
 372 846 l 1
 386 846 l 1
 506 735 l 1
 489 713 l 1
 480 712 l 1
 370 777 l 1
 245 712 l 1
 236 713 l 1
EndSplineSet
Validated: 33
EndChar

StartChar: Edieresis
Encoding: 203 203 35
Width: 568
Flags: MW
HStem: -10 21G<29 29> 0 41<125 334> 305 46<309.5 316.5> 576 20G<143.5 163.5> 590 46<297.5 334 228.5 387.5> 725 93<283.5 294.5 444 454.5>
LayerCount: 2
Back
Fore
SplineSet
185 80 m 0x6c
 185 45 201 41 257 41 c 0
 411 41 430 53 459 164 c 1
 500 169 l 1
 502 164 l 1
 502 164 474 82 455 -2 c 1
 450 -7 l 1
 450 -7 251 0 161 0 c 0x6c
 89 0 29 -10 29 -10 c 1
 40 33 l 1
 99 41 118 60 125 117 c 2
 178 542 l 2
 183 585 178 596 149 596 c 0xb4
 138 596 116 594 116 594 c 1
 115 597 l 1
 126 639 l 1
 126 639 200 636 257 636 c 0
 411 636 482 639 546 648 c 1
 548 643 l 1
 548 643 523 571 506 479 c 1
 462 475 l 1
 462 475 471 514 471 540 c 0
 471 586 446 590 329 590 c 0
 266 590 262 589 256 551 c 2
 225 352 l 1
 246 352 295 351 324 351 c 0
 358 351 442 362 442 362 c 1
 445 358 l 1
 425 302 l 1
 425 302 343 305 290 305 c 0
 262 305 232 301 216 298 c 1
 200 186 185 114 185 80 c 0x6c
439 725 m 0
 415 725 404 744 404 763 c 0
 404 792 429 818 459 818 c 0
 483 818 495 800 495 780 c 0
 495 751 470 725 439 725 c 0
279 725 m 0
 255 725 244 744 244 763 c 0
 244 792 268 818 299 818 c 0
 323 818 335 800 335 780 c 0
 335 751 310 725 279 725 c 0
EndSplineSet
Validated: 33
EndChar

StartChar: Edotaccent
Encoding: 278 278 36
Width: 568
Flags: MW
HStem: -10 21G<29 29> 0 41<125 334> 305 46<309.5 316.5> 576 20G<143.5 163.5> 590 46<297.5 334 228.5 387.5> 719 110<363.5 377>
LayerCount: 2
Back
Fore
SplineSet
185 80 m 0x6c
 185 45 201 41 257 41 c 0
 411 41 430 53 459 164 c 1
 500 169 l 1
 502 164 l 1
 502 164 474 82 455 -2 c 1
 450 -7 l 1
 450 -7 251 0 161 0 c 0x6c
 89 0 29 -10 29 -10 c 1
 40 33 l 1
 99 41 118 60 125 117 c 2
 178 542 l 2
 183 585 178 596 149 596 c 0xb4
 138 596 116 594 116 594 c 1
 115 597 l 1
 126 639 l 1
 126 639 200 636 257 636 c 0
 411 636 482 639 546 648 c 1
 548 643 l 1
 548 643 523 571 506 479 c 1
 462 475 l 1
 462 475 471 514 471 540 c 0
 471 586 446 590 329 590 c 0
 266 590 262 589 256 551 c 2
 225 352 l 1
 246 352 295 351 324 351 c 0
 358 351 442 362 442 362 c 1
 445 358 l 1
 425 302 l 1
 425 302 343 305 290 305 c 0
 262 305 232 301 216 298 c 1
 200 186 185 114 185 80 c 0x6c
359 719 m 0
 329 719 316 741 316 764 c 0
 316 799 345 829 382 829 c 0
 410 829 424 807 424 784 c 0
 424 749 395 719 359 719 c 0
EndSplineSet
Validated: 33
EndChar

StartChar: Egrave
Encoding: 200 200 37
Width: 568
Flags: MW
HStem: -10 21G<29 29> 0 41<125 334> 305 46<309.5 316.5> 576 20G<143.5 163.5> 590 46<297.5 334 228.5 387.5> 821 20G<245 245>
LayerCount: 2
Back
Fore
SplineSet
185 80 m 0x6c
 185 45 201 41 257 41 c 0
 411 41 430 53 459 164 c 1
 500 169 l 1
 502 164 l 1
 502 164 474 82 455 -2 c 1
 450 -7 l 1
 450 -7 251 0 161 0 c 0x6c
 89 0 29 -10 29 -10 c 1
 40 33 l 1
 99 41 118 60 125 117 c 2
 178 542 l 2
 183 585 178 596 149 596 c 0xb4
 138 596 116 594 116 594 c 1
 115 597 l 1
 126 639 l 1
 126 639 200 636 257 636 c 0
 411 636 482 639 546 648 c 1
 548 643 l 1
 548 643 523 571 506 479 c 1
 462 475 l 1
 462 475 471 514 471 540 c 0
 471 586 446 590 329 590 c 0
 266 590 262 589 256 551 c 2
 225 352 l 1
 246 352 295 351 324 351 c 0
 358 351 442 362 442 362 c 1
 445 358 l 1
 425 302 l 1
 425 302 343 305 290 305 c 0
 262 305 232 301 216 298 c 1
 200 186 185 114 185 80 c 0x6c
224 777 m 1
 220 787 l 1
 236 835 l 1
 245 841 l 1
 245 841 350 781 444 732 c 1
 438 708 l 1
 430 703 l 1
 325 743 224 777 224 777 c 1
EndSplineSet
Validated: 33
EndChar

StartChar: Emacron
Encoding: 274 274 38
Width: 568
Flags: MW
HStem: -10 21G<29 29> 0 41<125 334> 305 46<309.5 316.5> 576 20G<143.5 163.5> 590 46<297.5 334 228.5 387.5> 730 52<355 363> 768 20G<508 508>
LayerCount: 2
Back
Fore
SplineSet
185 80 m 0x6c
 185 45 201 41 257 41 c 0
 411 41 430 53 459 164 c 1
 500 169 l 1
 502 164 l 1
 502 164 474 82 455 -2 c 1
 450 -7 l 1
 450 -7 251 0 161 0 c 0x6a
 89 0 29 -10 29 -10 c 1
 40 33 l 1
 99 41 118 60 125 117 c 2
 178 542 l 2
 183 585 178 596 149 596 c 0xb4
 138 596 116 594 116 594 c 1
 115 597 l 1
 126 639 l 1
 126 639 200 636 257 636 c 0
 411 636 482 639 546 648 c 1
 548 643 l 1
 548 643 523 571 506 479 c 1
 462 475 l 1
 462 475 471 514 471 540 c 0
 471 586 446 590 329 590 c 0
 266 590 262 589 256 551 c 2
 225 352 l 1
 246 352 295 351 324 351 c 0
 358 351 442 362 442 362 c 1
 445 358 l 1
 425 302 l 1
 425 302 343 305 290 305 c 0
 262 305 232 301 216 298 c 1
 200 186 185 114 185 80 c 0x6c
508 788 m 1
 513 778 l 1
 500 731 l 1
 363 730 l 2
 307 730 225 729 225 729 c 1
 220 738 l 1
 236 783 l 1
 236 783 327 782 383 782 c 0x6c
 431 782 508 788 508 788 c 1
EndSplineSet
Validated: 33
EndChar

StartChar: Eng
Encoding: 330 330 39
Width: 691
Flags: MW
HStem: -154 21G<367 367> 0 44<98.5 195.5> 593 44 625 20G<712 712>
LayerCount: 2
Back
Fore
SplineSet
189 637 m 0xe0
 204 637 260 641 260 641 c 1
 367 419 518 145 518 145 c 1
 523 145 l 1
 573 550 l 2
 576 579 568 593 546 593 c 0
 529 593 510 592 510 592 c 1
 508 596 l 1
 523 641 l 1
 523 641 584 637 615 637 c 0xe0
 656 637 712 645 712 645 c 1xd0
 702 599 l 1
 655 593 635 575 629 536 c 2
 565 86 l 2
 544 -43 488 -112 367 -154 c 1
 354 -121 l 1
 358 -113 l 1
 429 -84 467 -47 490 8 c 1
 350 289 228 511 228 511 c 1
 223 511 l 1
 166 84 l 2
 162 54 168 44 191 44 c 0
 200 44 239 46 239 46 c 1
 241 42 l 1
 227 -4 l 1
 227 -4 164 0 118 0 c 0
 79 0 32 -8 32 -8 c 1
 43 38 l 1
 87 42 103 60 114 124 c 2
 176 538 l 2
 181 577 166 590 101 600 c 1
 98 605 l 1
 110 642 l 1
 110 642 168 637 189 637 c 0xe0
EndSplineSet
Validated: 33
EndChar

StartChar: Eogonek
Encoding: 280 280 40
Width: 568
Flags: MW
HStem: -241 59<324.5 388.5> 0 41 305 46<309.5 316.5> 576 20G<143.5 163.5> 590 46<297.5 334 228.5 387.5> 628 20G<546 546>
LayerCount: 2
Back
Fore
SplineSet
447 -159 m 1xe8
 457 -178 l 1
 457 -178 404 -224 353 -241 c 1
 296 -241 257 -211 257 -158 c 0
 257 -107 302 -59 361 -4 c 1
 296 -2 211 0 161 0 c 0
 89 0 29 -10 29 -10 c 1
 40 33 l 1
 99 41 118 60 125 117 c 2
 178 542 l 2
 183 585 178 596 149 596 c 0xf4
 138 596 116 594 116 594 c 1
 115 597 l 1
 126 639 l 1
 126 639 200 636 257 636 c 0xe8
 411 636 482 639 546 648 c 1xf4
 548 643 l 1
 548 643 523 571 506 479 c 1
 462 475 l 1
 462 475 471 514 471 540 c 0
 471 586 446 590 329 590 c 0
 266 590 262 589 256 551 c 2
 225 352 l 1
 246 352 295 351 324 351 c 0
 358 351 442 362 442 362 c 1
 445 358 l 1
 425 302 l 1
 425 302 343 305 290 305 c 0
 262 305 232 301 216 298 c 1
 200 186 185 114 185 80 c 0
 185 45 201 41 257 41 c 0
 411 41 430 53 459 164 c 1
 500 169 l 1
 502 164 l 1
 502 164 474 82 455 -2 c 1
 450 -7 l 1
 450 -7 431 -6 403 -5 c 1
 343 -64 321 -93 321 -134 c 0
 321 -162 340 -182 370 -182 c 0
 407 -182 447 -159 447 -159 c 1xe8
EndSplineSet
Validated: 33
EndChar

StartChar: Eth
Encoding: 208 208 41
Width: 684
Flags: MW
HStem: -12 47<296 394 272 396.5> 0 21G<126 174> 596 44<372 395.5>
VStem: 577 86<270.5 432.5>
LayerCount: 2
Back
Fore
SplineSet
296 -12 m 1xb0
 296 -12 198 0 150 0 c 0x70
 102 0 38 -12 38 -12 c 1
 49 31 l 1
 111 43 129 61 136 117 c 2
 159 304 l 1
 26 304 l 1
 20 311 l 1
 31 343 l 1
 164 343 l 1
 188 542 l 2
 193 585 188 596 160 596 c 0
 148 596 126 594 126 594 c 1
 125 598 l 1
 136 639 l 1
 136 639 199 636 236 636 c 0
 280 636 372 640 372 640 c 1
 543 640 663 533 663 376 c 0
 663 165 497 -12 296 -12 c 1xb0
308 596 m 0
 282 596 275 592 272 574 c 2
 234 343 l 1
 396 343 l 1
 400 336 l 1
 390 304 l 1
 228 304 l 1
 211 195 201 128 201 107 c 0
 201 50 229 35 315 35 c 0
 473 35 577 167 577 356 c 0
 577 509 483 596 308 596 c 0
EndSplineSet
Validated: 33
EndChar

StartChar: F
Encoding: 70 70 42
Width: 490
Flags: MW
HStem: -12 21G<29 29> 0 40 287 47<273.5 337> 576 20G<143.5 163.5> 590 46<297.5 323 228.5 379> 628 20G<528 528>
LayerCount: 2
Back
Fore
SplineSet
213 280 m 1x68
 188 108 l 2
 181 61 189 40 222 40 c 0
 242 40 291 43 291 43 c 1
 292 39 l 1
 279 -4 l 1
 279 -4 188 0 137 0 c 0x68
 90 0 29 -12 29 -12 c 1
 39 31 l 1
 101 43 118 61 125 117 c 2
 178 542 l 2
 183 585 178 596 149 596 c 0xb4
 138 596 116 594 116 594 c 1
 115 597 l 1
 126 639 l 1
 126 639 200 636 257 636 c 0x68
 389 636 466 639 528 648 c 1x74
 530 643 l 1
 530 643 504 568 487 476 c 1
 444 472 l 1
 444 472 453 514 453 541 c 0
 453 586 429 590 329 590 c 0
 266 590 262 589 256 551 c 2
 223 335 l 1
 322 334 l 2
 352 334 424 345 424 345 c 1
 426 341 l 1
 407 284 l 1
 407 284 333 287 288 287 c 0
 259 287 230 283 213 280 c 1x68
EndSplineSet
Validated: 33
EndChar

StartChar: G
Encoding: 71 71 43
Width: 640
Flags: MW
HStem: -12 45<262.5 361.5 262.5 367.5> 252 47<358 512.5> 594 54<311.5 427>
VStem: 45 87<207 365>
LayerCount: 2
Back
Fore
SplineSet
307 -12 m 0
 150 -12 45 91 45 253 c 0
 45 477 206 648 417 648 c 0
 496 648 590 625 590 625 c 1
 593 619 l 1
 593 619 565 545 548 455 c 1
 505 451 l 1
 505 451 514 490 514 510 c 0
 514 566 471 594 383 594 c 0
 236 594 132 469 132 282 c 0
 132 132 203 33 322 33 c 0
 401 33 457 72 457 72 c 1
 472 198 l 2
 477 243 469 252 425 252 c 2
 358 252 l 1
 357 256 l 1
 371 303 l 2
 370 303 435 299 492 299 c 0
 533 299 575 304 575 304 c 1
 576 284 l 1
 557 271 543 242 536 195 c 0
 530 159 522 92 522 73 c 0
 522 64 523 43 523 43 c 1
 517 35 l 1
 517 35 428 -12 307 -12 c 0
EndSplineSet
Validated: 37
EndChar

StartChar: Gbreve
Encoding: 286 286 44
Width: 640
Flags: MW
HStem: -12 45<262.5 361.5 262.5 367.5> 252 47<358 512.5> 594 54<311.5 427> 730 58<384 424.5 384 430.5> 818 20G<310 318 318 318 503 511 511 511>
VStem: 45 87<207 365>
LayerCount: 2
Back
Fore
SplineSet
307 -12 m 0
 150 -12 45 91 45 253 c 0
 45 477 206 648 417 648 c 0
 496 648 590 625 590 625 c 1
 593 619 l 1
 593 619 565 545 548 455 c 1
 505 451 l 1
 505 451 514 490 514 510 c 0
 514 566 471 594 383 594 c 0
 236 594 132 469 132 282 c 0
 132 132 203 33 322 33 c 0
 401 33 457 72 457 72 c 1
 472 198 l 2
 477 243 469 252 425 252 c 2
 358 252 l 1
 357 256 l 1
 371 303 l 2
 370 303 435 299 492 299 c 0
 533 299 575 304 575 304 c 1
 576 284 l 1
 557 271 543 242 536 195 c 0
 530 159 522 92 522 73 c 0
 522 64 523 43 523 43 c 1
 517 35 l 1
 517 35 428 -12 307 -12 c 0
404 788 m 0
 445 788 483 805 503 838 c 1
 511 838 l 1
 526 828 l 1
 506 779 464 730 397 730 c 0
 330 730 300 779 292 828 c 1
 310 838 l 1
 318 838 l 1
 330 805 364 788 404 788 c 0
EndSplineSet
Validated: 37
EndChar

StartChar: Gcommaaccent
Encoding: 290 290 45
Width: 640
Flags: MW
HStem: -293 21G<217 217> -67 55<280 306> -12 45<262.5 361.5 262.5 367.5> 33 219<358 361.5> 252 47<358 512.5> 594 54<311.5 427>
VStem: 45 87<207 365>
LayerCount: 2
Back
Fore
SplineSet
307 -12 m 0xae
 150 -12 45 91 45 253 c 0
 45 477 206 648 417 648 c 0
 496 648 590 625 590 625 c 1
 593 619 l 1
 593 619 565 545 548 455 c 1
 505 451 l 1
 505 451 514 490 514 510 c 0
 514 566 471 594 383 594 c 0
 236 594 132 469 132 282 c 0
 132 132 203 33 322 33 c 0
 401 33 457 72 457 72 c 1
 472 198 l 2
 477 243 469 252 425 252 c 2xae
 358 252 l 1x96
 357 256 l 1
 371 303 l 2
 370 303 435 299 492 299 c 0
 533 299 575 304 575 304 c 1
 576 284 l 1
 557 271 543 242 536 195 c 0
 530 159 522 92 522 73 c 0
 522 64 523 43 523 43 c 1
 517 35 l 1
 517 35 428 -12 307 -12 c 0xae
231 -107 m 1
 233 -93 l 1
 246 -83 269 -67 291 -67 c 0xc6
 321 -67 345 -94 345 -138 c 0
 345 -210 272 -264 217 -293 c 1
 199 -278 l 1
 199 -268 l 1
 239 -243 271 -203 271 -169 c 0
 271 -142 253 -120 231 -107 c 1
EndSplineSet
Validated: 8388645
EndChar

StartChar: commaaccent
Encoding: 65547 -1 46
Width: 382
Flags: MW
HStem: -293 21G<69 69> -87 20G<132 158>
LayerCount: 2
Back
Fore
SplineSet
83 -107 m 1
 85 -93 l 1
 98 -83 121 -67 143 -67 c 0
 173 -67 197 -94 197 -138 c 0
 197 -210 124 -264 69 -293 c 1
 51 -278 l 1
 51 -268 l 1
 91 -243 123 -203 123 -169 c 0
 123 -142 105 -120 83 -107 c 1
EndSplineSet
Validated: 1
EndChar

StartChar: Gdotaccent
Encoding: 288 288 47
Width: 640
Flags: MW
HStem: -12 45<262.5 361.5 262.5 367.5> 252 47<358 512.5> 594 54<311.5 427> 719 110<399.5 413>
VStem: 45 87<207 365>
LayerCount: 2
Back
Fore
SplineSet
307 -12 m 0
 150 -12 45 91 45 253 c 0
 45 477 206 648 417 648 c 0
 496 648 590 625 590 625 c 1
 593 619 l 1
 593 619 565 545 548 455 c 1
 505 451 l 1
 505 451 514 490 514 510 c 0
 514 566 471 594 383 594 c 0
 236 594 132 469 132 282 c 0
 132 132 203 33 322 33 c 0
 401 33 457 72 457 72 c 1
 472 198 l 2
 477 243 469 252 425 252 c 2
 358 252 l 1
 357 256 l 1
 371 303 l 2
 370 303 435 299 492 299 c 0
 533 299 575 304 575 304 c 1
 576 284 l 1
 557 271 543 242 536 195 c 0
 530 159 522 92 522 73 c 0
 522 64 523 43 523 43 c 1
 517 35 l 1
 517 35 428 -12 307 -12 c 0
395 719 m 0
 365 719 352 741 352 764 c 0
 352 799 381 829 418 829 c 0
 446 829 460 807 460 784 c 0
 460 749 431 719 395 719 c 0
EndSplineSet
Validated: 37
EndChar

StartChar: H
Encoding: 72 72 48
Width: 723
Flags: MW
HStem: -12 21G<28 28> 0 42<148 232.5> 304 42<362 399.5> 596 40 626 20G<333 333 711 711>
LayerCount: 2
Back
Fore
SplineSet
633 546 m 0x68
 603 363 565 126 565 84 c 0
 565 51 575 41 601 41 c 0
 620 41 645 44 645 44 c 1
 645 44 646 42 645 41 c 2
 632 -3 l 1
 632 -3 555 0 513 0 c 2
 482 0 l 2
 446 0 407 -3 407 -2 c 2
 420 41 l 1
 479 42 496 59 507 149 c 2
 525 303 l 1
 525 303 422 304 377 304 c 0
 347 304 215 293 215 293 c 1
 198 173 l 2
 193 136 184 89 188 67 c 0
 191 47 199 42 223 42 c 0
 242 42 267 45 267 45 c 2
 267 44 268 42 268 41 c 2
 254 -3 l 2
 254 -2 209 0 176 0 c 0x70
 120 0 30 -7 28 -12 c 2
 39 31 l 1
 112 46 122 68 130 151 c 2
 178 542 l 2
 183 585 178 596 149 596 c 0
 138 596 117 594 117 594 c 1
 115 597 l 1
 127 640 l 1
 127 640 196 636 233 636 c 0xb0
 273 636 333 646 333 646 c 1x68
 325 603 l 1
 267 594 261 583 250 511 c 2
 224 347 l 1
 278 347 333 346 387 346 c 0
 436 346 474 349 532 356 c 1
 556 542 l 2
 563 585 555 596 527 596 c 0
 515 596 494 594 494 594 c 1
 492 597 l 1
 505 640 l 2
 504 639 562 636 595 636 c 0x70
 640 636 711 646 711 646 c 1
 703 603 l 1
 654 596 640 584 633 546 c 0x68
EndSplineSet
Validated: 37
EndChar

StartChar: I
Encoding: 73 73 49
Width: 346
Flags: MW
HStem: -12 21G<26 26> 0 42 596 40 620 20G<118 119> 626 20G<342 342>
LayerCount: 2
Back
Fore
SplineSet
256 546 m 0x48
 225 366 186 127 186 85 c 0
 186 52 197 42 223 42 c 0
 246 42 274 45 274 45 c 1
 276 41 l 1
 262 -3 l 1
 262 -3 183 0 137 0 c 0x60
 89 0 26 -12 26 -12 c 1
 38 31 l 1
 99 43 119 62 126 118 c 2
 178 542 l 2
 183 584 178 596 149 596 c 0xa0
 135 596 108 594 108 594 c 2
 108 595 107 596 107 597 c 2
 119 640 l 2x50
 117 640 193 636 232 636 c 0x60
 276 636 342 646 342 646 c 1
 332 603 l 1
 278 596 262 584 256 546 c 0x48
EndSplineSet
Validated: 37
EndChar

StartChar: J
Encoding: 74 74 50
Width: 313
Flags: MW
HStem: -143 21G<-4 -4> 595 41<133 153> 625 20G<316 316>
LayerCount: 2
Back
Fore
SplineSet
114 114 m 2xa0
 168 542 l 2
 173 585 167 595 139 595 c 0
 127 595 92 591 92 591 c 1
 92 594 l 1
 103 636 l 1
 206 636 l 2xc0
 245 636 316 645 316 645 c 1
 308 603 l 1
 261 596 252 588 245 546 c 0
 230 457 191 197 180 118 c 0
 163 -19 107 -97 -4 -143 c 1
 -16 -111 l 1
 -13 -103 l 1
 71 -55 100 -5 114 114 c 2xa0
EndSplineSet
Validated: 33
EndChar

StartChar: Iacute
Encoding: 205 205 51
Width: 347
Flags: MW
HStem: -12 21G<26 26> 0 42 596 40 620 20G<118 119> 821 20G<366 366>
LayerCount: 2
Back
Fore
SplineSet
256 546 m 0x68
 225 366 186 127 186 85 c 0
 186 52 197 42 223 42 c 0
 246 42 274 45 274 45 c 1
 276 41 l 1
 262 -3 l 1
 262 -3 183 0 137 0 c 0x68
 89 0 26 -12 26 -12 c 1
 38 31 l 1
 99 43 119 62 126 118 c 2
 178 542 l 2
 183 584 178 596 149 596 c 0xa8
 135 596 108 594 108 594 c 2
 108 595 107 596 107 597 c 2
 119 640 l 2x58
 117 640 193 636 232 636 c 0
 276 636 342 646 342 646 c 1
 332 603 l 1
 278 596 262 584 256 546 c 0x68
391 787 m 1
 387 777 l 1
 387 777 286 743 181 703 c 1
 173 708 l 1
 167 732 l 1
 261 781 366 841 366 841 c 1
 375 835 l 1
 391 787 l 1
EndSplineSet
Validated: 37
EndChar

StartChar: Icircumflex
Encoding: 206 206 52
Width: 347
Flags: MW
HStem: -12 21G<26 26> 0 42 596 40 620 20G<118 119> 826 20G<246 260 260 260>
LayerCount: 2
Back
Fore
SplineSet
256 546 m 0x68
 225 366 186 127 186 85 c 0
 186 52 197 42 223 42 c 0
 246 42 274 45 274 45 c 1
 276 41 l 1
 262 -3 l 1
 262 -3 183 0 137 0 c 0x68
 89 0 26 -12 26 -12 c 1
 38 31 l 1
 99 43 119 62 126 118 c 2
 178 542 l 2
 183 584 178 596 149 596 c 0xa8
 135 596 108 594 108 594 c 2
 108 595 107 596 107 597 c 2
 119 640 l 2x58
 117 640 193 636 232 636 c 0
 276 636 342 646 342 646 c 1
 332 603 l 1
 278 596 262 584 256 546 c 0x68
110 713 m 1
 99 735 l 1
 246 846 l 1
 260 846 l 1
 380 735 l 1
 363 713 l 1
 354 712 l 1
 244 777 l 1
 119 712 l 1
 110 713 l 1
EndSplineSet
Validated: 37
EndChar

StartChar: Idieresis
Encoding: 207 207 53
Width: 347
Flags: MW
HStem: -12 21G<26 26> 0 42 596 40 620 20G<118 119> 725 93<157.5 168.5 318 328.5>
LayerCount: 2
Back
Fore
SplineSet
256 546 m 0x68
 225 366 186 127 186 85 c 0
 186 52 197 42 223 42 c 0
 246 42 274 45 274 45 c 1
 276 41 l 1
 262 -3 l 1
 262 -3 183 0 137 0 c 0x68
 89 0 26 -12 26 -12 c 1
 38 31 l 1
 99 43 119 62 126 118 c 2
 178 542 l 2
 183 584 178 596 149 596 c 0xa8
 135 596 108 594 108 594 c 2
 108 595 107 596 107 597 c 2
 119 640 l 2x58
 117 640 193 636 232 636 c 0
 276 636 342 646 342 646 c 1
 332 603 l 1
 278 596 262 584 256 546 c 0x68
313 725 m 0
 289 725 278 744 278 763 c 0
 278 792 303 818 333 818 c 0
 357 818 369 800 369 780 c 0
 369 751 344 725 313 725 c 0
153 725 m 0
 129 725 118 744 118 763 c 0
 118 792 142 818 173 818 c 0
 197 818 209 800 209 780 c 0
 209 751 184 725 153 725 c 0
EndSplineSet
Validated: 37
EndChar

StartChar: Idotaccent
Encoding: 304 304 54
Width: 347
Flags: MW
HStem: -12 21G<26 26> 0 42 596 40 620 20G<118 119> 719 110<237.5 251>
LayerCount: 2
Back
Fore
SplineSet
256 546 m 0x68
 225 366 186 127 186 85 c 0
 186 52 197 42 223 42 c 0
 246 42 274 45 274 45 c 1
 276 41 l 1
 262 -3 l 1
 262 -3 183 0 137 0 c 0x68
 89 0 26 -12 26 -12 c 1
 38 31 l 1
 99 43 119 62 126 118 c 2
 178 542 l 2
 183 584 178 596 149 596 c 0xa8
 135 596 108 594 108 594 c 2
 108 595 107 596 107 597 c 2
 119 640 l 2x58
 117 640 193 636 232 636 c 0
 276 636 342 646 342 646 c 1
 332 603 l 1
 278 596 262 584 256 546 c 0x68
233 719 m 0
 203 719 190 741 190 764 c 0
 190 799 219 829 256 829 c 0
 284 829 298 807 298 784 c 0
 298 749 269 719 233 719 c 0
EndSplineSet
Validated: 37
EndChar

StartChar: Igrave
Encoding: 204 204 55
Width: 347
Flags: MW
HStem: -12 21G<26 26> 0 42 596 40 620 20G<118 119> 821 20G<119 119>
LayerCount: 2
Back
Fore
SplineSet
256 546 m 0x68
 225 366 186 127 186 85 c 0
 186 52 197 42 223 42 c 0
 246 42 274 45 274 45 c 1
 276 41 l 1
 262 -3 l 1
 262 -3 183 0 137 0 c 0x68
 89 0 26 -12 26 -12 c 1
 38 31 l 1
 99 43 119 62 126 118 c 2
 178 542 l 2
 183 584 178 596 149 596 c 0xa8
 135 596 108 594 108 594 c 2
 108 595 107 596 107 597 c 2
 119 640 l 2x58
 117 640 193 636 232 636 c 0
 276 636 342 646 342 646 c 1
 332 603 l 1
 278 596 262 584 256 546 c 0x68
98 777 m 1
 94 787 l 1
 110 835 l 1
 119 841 l 1
 119 841 224 781 318 732 c 1
 312 708 l 1
 304 703 l 1
 199 743 98 777 98 777 c 1
EndSplineSet
Validated: 37
EndChar

StartChar: Imacron
Encoding: 298 298 56
Width: 347
Flags: MW
HStem: -12 21G<26 26> 0 42 596 40 620 20G<118 119> 730 52<229 237> 768 20G<382 382>
LayerCount: 2
Back
Fore
SplineSet
256 546 m 0x68
 225 366 186 127 186 85 c 0
 186 52 197 42 223 42 c 0
 246 42 274 45 274 45 c 1
 276 41 l 1
 262 -3 l 1
 262 -3 183 0 137 0 c 0x64
 89 0 26 -12 26 -12 c 1
 38 31 l 1
 99 43 119 62 126 118 c 2
 178 542 l 2
 183 584 178 596 149 596 c 0xa8
 135 596 108 594 108 594 c 2
 108 595 107 596 107 597 c 2
 119 640 l 2x58
 117 640 193 636 232 636 c 0
 276 636 342 646 342 646 c 1
 332 603 l 1
 278 596 262 584 256 546 c 0x68
382 788 m 1
 387 778 l 1
 374 731 l 1
 237 730 l 2
 181 730 99 729 99 729 c 1
 94 738 l 1
 110 783 l 1
 110 783 201 782 257 782 c 0x68
 305 782 382 788 382 788 c 1
EndSplineSet
Validated: 37
EndChar

StartChar: Iogonek
Encoding: 302 302 57
Width: 347
Flags: MW
HStem: -242 59<135.5 199.5> 0 42<137 234.5> 596 40 620 20G<118 119> 626 20G<342 342>
LayerCount: 2
Back
Fore
SplineSet
258 -160 m 1xc8
 268 -179 l 1
 268 -179 215 -225 164 -242 c 1
 107 -242 68 -212 68 -159 c 0
 68 -107 115 -57 177 0 c 1
 137 0 l 2
 89 0 26 -12 26 -12 c 1
 38 31 l 1
 99 43 119 62 126 118 c 2
 178 542 l 2
 183 584 178 596 149 596 c 0xe0
 135 596 108 594 108 594 c 2
 108 595 107 596 107 597 c 2
 119 640 l 2xd0
 117 640 193 636 232 636 c 0xe0
 276 636 342 646 342 646 c 1
 332 603 l 1
 278 596 262 584 256 546 c 0
 225 366 186 127 186 85 c 0
 186 52 197 42 223 42 c 0
 246 42 274 45 274 45 c 1
 276 41 l 1
 262 -3 l 1
 262 -3 242 -2 219 -1 c 1
 155 -63 132 -93 132 -135 c 0
 132 -163 151 -183 181 -183 c 0
 218 -183 258 -160 258 -160 c 1xc8
EndSplineSet
Validated: 37
EndChar

StartChar: K
Encoding: 75 75 58
Width: 601
Flags: MW
HStem: -14 21G<463.5 484> 0 42 596 40 626 20G<333 333>
LayerCount: 2
Back
Fore
SplineSet
126 118 m 2x50
 178 542 l 2
 183 585 178 596 149 596 c 0
 138 596 117 594 117 594 c 1
 115 597 l 1
 127 640 l 1
 127 640 195 636 232 636 c 0xa0
 273 636 333 646 333 646 c 1
 325 603 l 1
 276 596 259 581 253 543 c 2
 188 109 l 2
 180 56 189 42 223 42 c 0
 242 42 267 45 267 45 c 1
 269 41 l 1
 254 -3 l 1
 254 -3 180 0 137 0 c 0
 90 0 28 -1 28 -1 c 1
 43 42 l 1
 104 48 119 61 126 118 c 2x50
242 315 m 1
 244 328 l 1
 442 517 l 2
 467 541 478 557 478 571 c 0
 478 587 460 596 421 599 c 1
 419 603 l 1
 431 644 l 1
 431 644 499 636 535 636 c 0
 572 636 622 640 622 640 c 1
 624 634 l 1
 614 595 l 1
 580 589 559 575 493 513 c 2
 315 339 l 1
 451 118 l 2
 490 56 519 33 564 33 c 1
 567 30 l 1
 558 -2 l 1
 558 -2 489 -14 479 -14 c 0
 448 -14 413 19 382 72 c 2
 242 315 l 1
EndSplineSet
Validated: 33
EndChar

StartChar: Kcommaaccent
Encoding: 310 310 59
Width: 605
Flags: MW
HStem: -293 21G<206 206> -67 67 0 42 596 40 626 20G<333 333>
LayerCount: 2
Back
Fore
SplineSet
126 118 m 2xa8
 178 542 l 2
 183 585 178 596 149 596 c 0
 138 596 117 594 117 594 c 1
 115 597 l 1
 127 640 l 1
 127 640 195 636 232 636 c 0xd0
 273 636 333 646 333 646 c 1
 325 603 l 1
 276 596 259 581 253 543 c 2
 188 109 l 2
 180 56 189 42 223 42 c 0
 242 42 267 45 267 45 c 1
 269 41 l 1
 254 -3 l 1
 254 -3 180 0 137 0 c 0
 90 0 28 -1 28 -1 c 1
 43 42 l 1
 104 48 119 61 126 118 c 2xa8
242 315 m 1
 244 328 l 1
 442 517 l 2
 467 541 478 557 478 571 c 0
 478 587 460 596 421 599 c 1
 419 603 l 1
 431 644 l 1
 431 644 499 636 535 636 c 0
 572 636 622 640 622 640 c 1
 624 634 l 1
 614 595 l 1
 580 589 559 575 493 513 c 2
 315 339 l 1
 451 118 l 2
 490 56 519 33 564 33 c 1
 567 30 l 1
 558 -2 l 1
 558 -2 489 -14 479 -14 c 0
 448 -14 413 19 382 72 c 2
 242 315 l 1
220 -107 m 1
 222 -93 l 1
 235 -83 258 -67 280 -67 c 0
 310 -67 334 -94 334 -138 c 0
 334 -210 261 -264 206 -293 c 1
 188 -278 l 1
 188 -268 l 1
 228 -243 260 -203 260 -169 c 0
 260 -142 242 -120 220 -107 c 1
EndSplineSet
Validated: 33
EndChar

StartChar: L
Encoding: 76 76 60
Width: 485
Flags: MW
HStem: -10 21G<38 38> 0 41<131 320.5> 596 40 620 20G<126.5 127> 626 20G<333 333>
LayerCount: 2
Back
Fore
SplineSet
167 0 m 0x48
 95 0 38 -10 38 -10 c 1
 50 33 l 1
 100 41 118 60 125 117 c 2
 178 542 l 2
 183 586 176 596 149 596 c 0xa0
 138 596 116 594 116 594 c 2
 116 595 115 596 115 597 c 2
 127 640 l 2x50
 126 640 197 636 233 636 c 0x60
 274 636 333 646 333 646 c 1
 325 604 l 1
 269 595 266 591 250 508 c 0
 229 396 188 124 188 91 c 0
 188 50 202 41 264 41 c 0
 377 41 400 59 435 182 c 1
 477 186 l 2
 477 185 478 183 478 182 c 2
 478 182 450 93 427 -4 c 1
 422 -9 l 1
 422 -9 256 0 167 0 c 0x48
EndSplineSet
Validated: 37
EndChar

StartChar: Lacute
Encoding: 313 313 61
Width: 488
Flags: MW
HStem: -10 21G<38 38> 0 41<131 320.5> 596 40 620 20G<126.5 127> 821 20G<382 382>
LayerCount: 2
Back
Fore
SplineSet
167 0 m 0x68
 95 0 38 -10 38 -10 c 1
 50 33 l 1
 100 41 118 60 125 117 c 2
 178 542 l 2
 183 586 176 596 149 596 c 0xa8
 138 596 116 594 116 594 c 2
 116 595 115 596 115 597 c 2
 127 640 l 2x58
 126 640 197 636 233 636 c 0
 274 636 333 646 333 646 c 1
 325 604 l 1
 269 595 266 591 250 508 c 0
 229 396 188 124 188 91 c 0
 188 50 202 41 264 41 c 0
 377 41 400 59 435 182 c 1
 477 186 l 2
 477 185 478 183 478 182 c 2
 478 182 450 93 427 -4 c 1
 422 -9 l 1
 422 -9 256 0 167 0 c 0x68
407 787 m 1
 403 777 l 1
 403 777 302 743 197 703 c 1
 189 708 l 1
 183 732 l 1
 277 781 382 841 382 841 c 1
 391 835 l 1
 407 787 l 1
EndSplineSet
Validated: 37
EndChar

StartChar: Lcaron
Encoding: 317 317 62
Width: 488
Flags: MW
HStem: -10 21G<38 38> 0 41<131 320.5> 596 40 620 20G 626 20G
LayerCount: 2
Back
Fore
SplineSet
496 634 m 1x50
 503 626 l 1x48
 503 626 489 516 468 414 c 1
 443 400 l 1
 432 402 l 1
 436 512 426 620 426 620 c 1
 496 634 l 1x50
167 0 m 0
 95 0 38 -10 38 -10 c 1
 50 33 l 1
 100 41 118 60 125 117 c 2
 178 542 l 2
 183 586 176 596 149 596 c 0xa0
 138 596 116 594 116 594 c 2
 116 595 115 596 115 597 c 2
 127 640 l 2x50
 126 640 197 636 233 636 c 0x60
 274 636 333 646 333 646 c 1
 325 604 l 1
 269 595 266 591 250 508 c 0
 229 396 188 124 188 91 c 0
 188 50 202 41 264 41 c 0
 377 41 400 59 435 182 c 1
 477 186 l 2
 477 185 478 183 478 182 c 2
 478 182 450 93 427 -4 c 1
 422 -9 l 1
 422 -9 256 0 167 0 c 0
EndSplineSet
Validated: 37
EndChar

StartChar: Lcommaaccent
Encoding: 315 315 63
Width: 488
Flags: MW
HStem: -293 21G<176 176> -67 67<131 265> 0 41<131 320.5> 596 40 620 20G<126.5 127> 626 20G<333 333>
LayerCount: 2
Back
Fore
SplineSet
167 0 m 0xa4
 95 0 38 -10 38 -10 c 1
 50 33 l 1
 100 41 118 60 125 117 c 2
 178 542 l 2
 183 586 176 596 149 596 c 0xb0
 138 596 116 594 116 594 c 2
 116 595 115 596 115 597 c 2
 127 640 l 2xc8
 126 640 197 636 233 636 c 0xd0
 274 636 333 646 333 646 c 1
 325 604 l 1
 269 595 266 591 250 508 c 0
 229 396 188 124 188 91 c 0
 188 50 202 41 264 41 c 0
 377 41 400 59 435 182 c 1
 477 186 l 2
 477 185 478 183 478 182 c 2
 478 182 450 93 427 -4 c 1
 422 -9 l 1
 422 -9 256 0 167 0 c 0xa4
190 -107 m 1
 192 -93 l 1
 205 -83 228 -67 250 -67 c 0xd0
 280 -67 304 -94 304 -138 c 0
 304 -210 231 -264 176 -293 c 1
 158 -278 l 1
 158 -268 l 1
 198 -243 230 -203 230 -169 c 0
 230 -142 212 -120 190 -107 c 1
EndSplineSet
Validated: 37
EndChar

StartChar: Ldot
Encoding: 319 319 64
Width: 488
Flags: MW
HStem: -10 21G<38 38> 0 41<131 320.5> 413 119<435 455.5> 596 40 620 20G<126.5 127> 626 20G<333 333>
LayerCount: 2
Back
Fore
SplineSet
167 0 m 0x64
 95 0 38 -10 38 -10 c 1
 50 33 l 1
 100 41 118 60 125 117 c 2
 178 542 l 2
 183 586 176 596 149 596 c 0xb0
 138 596 116 594 116 594 c 2
 116 595 115 596 115 597 c 2
 127 640 l 2x68
 126 640 197 636 233 636 c 0x70
 274 636 333 646 333 646 c 1
 325 604 l 1
 269 595 266 591 250 508 c 0
 229 396 188 124 188 91 c 0
 188 50 202 41 264 41 c 0
 377 41 400 59 435 182 c 1
 477 186 l 2
 477 185 478 183 478 182 c 2
 478 182 450 93 427 -4 c 1
 422 -9 l 1
 422 -9 256 0 167 0 c 0x64
435 413 m 0
 401 413 387 437 387 463 c 0
 387 500 415 532 455 532 c 0
 488 532 505 510 505 482 c 0
 505 445 476 413 435 413 c 0
EndSplineSet
Validated: 37
EndChar

StartChar: periodcentered
Encoding: 183 183 65
Width: 229
Flags: MW
HStem: 168 119<105 125.5>
LayerCount: 2
Back
Fore
SplineSet
105 168 m 0
 71 168 57 192 57 218 c 0
 57 255 85 287 125 287 c 0
 158 287 175 265 175 237 c 0
 175 200 146 168 105 168 c 0
EndSplineSet
Validated: 1
EndChar

StartChar: Lslash
Encoding: 321 321 66
Width: 488
Flags: MW
HStem: -10 21G<38 38> 0 41<131 320.5> 596 40 620 20G<126.5 127> 626 20G<333 333>
LayerCount: 2
Back
Fore
SplineSet
167 0 m 0x48
 95 0 38 -10 38 -10 c 1
 50 33 l 1
 100 41 118 60 125 117 c 2
 149 308 l 1
 48 258 l 1
 39 261 l 1
 34 293 l 1
 154 353 l 1
 178 542 l 2
 183 586 176 596 149 596 c 0xa0
 138 596 116 594 116 594 c 2
 116 595 115 596 115 597 c 2
 127 640 l 2x50
 126 640 197 636 233 636 c 0x60
 274 636 333 646 333 646 c 1
 325 604 l 1
 269 595 266 591 250 508 c 2
 228 383 l 1
 371 454 l 1
 379 449 l 1
 384 418 l 1
 221 338 l 1
 204 227 188 112 188 91 c 0
 188 50 202 41 264 41 c 0
 377 41 400 59 435 182 c 1
 477 186 l 2
 477 185 478 183 478 182 c 2
 478 182 450 93 427 -4 c 1
 422 -9 l 1
 422 -9 256 0 167 0 c 0x48
EndSplineSet
Validated: 37
EndChar

StartChar: M
Encoding: 77 77 67
Width: 813
Flags: MW
HStem: -19 21G<353 353> 0 41<80 169> 622 20G<789 789>
LayerCount: 2
Back
Fore
SplineSet
374 -13 m 1x60
 353 -19 l 1xa0
 313 159 272 342 231 529 c 1
 227 529 l 1
 227 529 138 86 138 66 c 0
 138 49 146 41 164 41 c 0
 174 41 204 42 204 42 c 2
 204 41 205 40 205 39 c 2
 191 -4 l 1
 191 -4 131 0 99 0 c 0
 61 0 17 -8 17 -8 c 1
 28 35 l 1
 68 41 86 59 98 113 c 0
 114 191 189 532 189 555 c 0
 189 586 165 601 111 605 c 1
 109 609 l 1
 120 641 l 1
 120 641 193 636 223 636 c 0
 251 636 286 640 286 640 c 1
 340 341 396 134 396 134 c 1
 400 134 l 1
 400 134 499 343 624 639 c 0
 623 641 666 636 684 636 c 0
 712 636 789 642 789 642 c 2
 789 641 790 639 790 638 c 2
 781 604 l 1
 724 597 702 582 699 549 c 0
 696 522 681 280 678 137 c 0
 676 58 683 41 714 41 c 0
 725 41 741 43 741 43 c 2
 741 42 742 41 742 40 c 2
 728 -3 l 1
 728 -3 673 0 638 0 c 0
 596 0 540 -8 540 -8 c 1
 549 35 l 1
 589 40 608 56 612 85 c 0
 616 119 633 529 633 529 c 1
 628 529 l 1
 543 342 458 163 374 -13 c 1x60
EndSplineSet
Validated: 33
EndChar

StartChar: N
Encoding: 78 78 68
Width: 689
Flags: MW
HStem: -42 21G<518 518> 0 42 574 20G<512.5 513> 595 41 625 20G<709 709>
LayerCount: 2
Back
Fore
SplineSet
520 134 m 1xf0
 524 134 l 1
 576 552 l 2
 579 581 569 595 549 595 c 0
 532 595 512 594 513 594 c 2
 511 598 l 1
 525 640 l 1
 525 640 582 636 614 636 c 0xf0
 654 636 709 645 709 645 c 1xe8
 699 601 l 1
 654 595 631 577 625 538 c 2
 543 -28 l 1
 518 -42 l 1
 366 269 225 522 225 522 c 1
 221 522 l 1
 161 81 l 2
 157 51 164 42 186 42 c 2
 235 42 l 1
 237 39 l 1
 223 -4 l 1
 223 -4 165 0 123 0 c 0
 86 0 34 -8 34 -8 c 1
 45 35 l 1
 85 40 106 57 112 98 c 2
 179 541 l 2
 184 581 166 595 102 602 c 0
 102 604 101 605 101 607 c 2
 112 641 l 1
 112 641 167 636 193 636 c 0
 224 636 255 640 255 640 c 1
 385 377 520 134 520 134 c 1xf0
EndSplineSet
Validated: 37
EndChar

StartChar: Nacute
Encoding: 323 323 69
Width: 691
Flags: MW
HStem: -42 21G<518 518> 0 42 574 20G<512.5 513> 595 41 821 20G<553 553>
LayerCount: 2
Back
Fore
SplineSet
520 134 m 1
 524 134 l 1
 576 552 l 2
 579 581 569 595 549 595 c 0
 532 595 512 594 513 594 c 2
 511 598 l 1
 525 640 l 1
 525 640 582 636 614 636 c 0
 654 636 709 645 709 645 c 1
 699 601 l 1
 654 595 631 577 625 538 c 2
 543 -28 l 1
 518 -42 l 1
 366 269 225 522 225 522 c 1
 221 522 l 1
 161 81 l 2
 157 51 164 42 186 42 c 2
 235 42 l 1
 237 39 l 1
 223 -4 l 1
 223 -4 165 0 123 0 c 0
 86 0 34 -8 34 -8 c 1
 45 35 l 1
 85 40 106 57 112 98 c 2
 179 541 l 2
 184 581 166 595 102 602 c 0
 102 604 101 605 101 607 c 2
 112 641 l 1
 112 641 167 636 193 636 c 0
 224 636 255 640 255 640 c 1
 385 377 520 134 520 134 c 1
578 787 m 1
 574 777 l 1
 574 777 473 743 368 703 c 1
 360 708 l 1
 354 732 l 1
 448 781 553 841 553 841 c 1
 562 835 l 1
 578 787 l 1
EndSplineSet
Validated: 37
EndChar

StartChar: Ncaron
Encoding: 327 327 70
Width: 691
Flags: MW
HStem: -42 21G<518 518> 0 42 574 20G<512.5 513> 595 41 818 20G<312 312 546 546>
LayerCount: 2
Back
Fore
SplineSet
520 134 m 1
 524 134 l 1
 576 552 l 2
 579 581 569 595 549 595 c 0
 532 595 512 594 513 594 c 2
 511 598 l 1
 525 640 l 1
 525 640 582 636 614 636 c 0
 654 636 709 645 709 645 c 1
 699 601 l 1
 654 595 631 577 625 538 c 2
 543 -28 l 1
 518 -42 l 1
 366 269 225 522 225 522 c 1
 221 522 l 1
 161 81 l 2
 157 51 164 42 186 42 c 2
 235 42 l 1
 237 39 l 1
 223 -4 l 1
 223 -4 165 0 123 0 c 0
 86 0 34 -8 34 -8 c 1
 45 35 l 1
 85 40 106 57 112 98 c 2
 179 541 l 2
 184 581 166 595 102 602 c 0
 102 604 101 605 101 607 c 2
 112 641 l 1
 112 641 167 636 193 636 c 0
 224 636 255 640 255 640 c 1
 385 377 520 134 520 134 c 1
555 837 m 1
 567 815 l 1
 419 704 l 1
 406 704 l 1
 286 815 l 1
 302 837 l 1
 312 838 l 1
 421 773 l 1
 546 838 l 1
 555 837 l 1
EndSplineSet
Validated: 37
EndChar

StartChar: Ncommaaccent
Encoding: 325 325 71
Width: 691
Flags: MW
HStem: -293 21G<242 242> 0 42 574 20G<512.5 513> 595 41 625 20G<709 709>
LayerCount: 2
Back
Fore
SplineSet
520 134 m 1xf0
 524 134 l 1
 576 552 l 2
 579 581 569 595 549 595 c 0
 532 595 512 594 513 594 c 2
 511 598 l 1
 525 640 l 1
 525 640 582 636 614 636 c 0xf0
 654 636 709 645 709 645 c 1xe8
 699 601 l 1
 654 595 631 577 625 538 c 2
 543 -28 l 1
 518 -42 l 1
 366 269 225 522 225 522 c 1
 221 522 l 1
 161 81 l 2
 157 51 164 42 186 42 c 2
 235 42 l 1
 237 39 l 1
 223 -4 l 1
 223 -4 165 0 123 0 c 0
 86 0 34 -8 34 -8 c 1
 45 35 l 1
 85 40 106 57 112 98 c 2
 179 541 l 2
 184 581 166 595 102 602 c 0
 102 604 101 605 101 607 c 2
 112 641 l 1
 112 641 167 636 193 636 c 0
 224 636 255 640 255 640 c 1
 385 377 520 134 520 134 c 1xf0
256 -107 m 1
 258 -93 l 1
 271 -83 294 -67 316 -67 c 0
 346 -67 370 -94 370 -138 c 0
 370 -210 297 -264 242 -293 c 1
 224 -278 l 1
 224 -268 l 1
 264 -243 296 -203 296 -169 c 0
 296 -142 278 -120 256 -107 c 1
EndSplineSet
Validated: 37
EndChar

StartChar: Ntilde
Encoding: 209 209 72
Width: 691
Flags: MW
HStem: -42 21G<518 518> 0 42 574 20G<512.5 513> 595 41 711 64<479.5 485> 744 64<356 362.5> 800 20G<559 565 565 565>
LayerCount: 2
Back
Fore
SplineSet
520 134 m 1xf4
 524 134 l 1
 576 552 l 2
 579 581 569 595 549 595 c 0
 532 595 512 594 513 594 c 2
 511 598 l 1
 525 640 l 1
 525 640 582 636 614 636 c 0
 654 636 709 645 709 645 c 1
 699 601 l 1
 654 595 631 577 625 538 c 2
 543 -28 l 1
 518 -42 l 1
 366 269 225 522 225 522 c 1
 221 522 l 1
 161 81 l 2
 157 51 164 42 186 42 c 2
 235 42 l 1
 237 39 l 1
 223 -4 l 1
 223 -4 165 0 123 0 c 0
 86 0 34 -8 34 -8 c 1
 45 35 l 1
 85 40 106 57 112 98 c 2
 179 541 l 2
 184 581 166 595 102 602 c 0
 102 604 101 605 101 607 c 2
 112 641 l 1
 112 641 167 636 193 636 c 0
 224 636 255 640 255 640 c 1
 385 377 520 134 520 134 c 1xf4
283 699 m 1
 277 699 l 1
 257 720 l 1
 258 725 l 1
 341 804 l 1
 356 808 l 1xf4
 388 808 466 775 493 775 c 0
 515 775 559 820 559 820 c 1
 565 820 l 1
 584 799 l 1
 584 794 l 1
 501 715 l 1
 485 711 l 1xfa
 453 711 376 744 349 744 c 0
 326 744 283 699 283 699 c 1
EndSplineSet
Validated: 37
EndChar

StartChar: O
Encoding: 79 79 73
Width: 665
Flags: MW
HStem: -12 47<255.5 382 255.5 384> 593 55<300.5 425>
VStem: 45 82<209.5 362> 557 87<273.5 418.5>
LayerCount: 2
Back
Fore
SplineSet
311 35 m 0
 453 35 557 166 557 343 c 0
 557 494 482 593 368 593 c 0
 230 593 127 460 127 285 c 0
 127 134 200 35 311 35 c 0
286 -12 m 0
 144 -12 45 97 45 254 c 0
 45 470 204 648 397 648 c 0
 543 648 644 538 644 382 c 0
 644 165 482 -12 286 -12 c 0
EndSplineSet
Validated: 1
EndChar

StartChar: OE
Encoding: 338 338 74
Width: 923
Flags: MW
HStem: -12 57 1 44<466 688.5> 303 50<648 697.5> 571 20G<304.5 438.5> 587 48<653 677 569.5 741> 587 62
VStem: 45 90<208.5 363>
LayerCount: 2
Back
Fore
SplineSet
546 105 m 2xa6
 539 51 545 45 614 45 c 0
 763 45 783 57 812 167 c 1
 857 172 l 1
 859 167 l 1
 859 167 832 84 813 -1 c 1
 807 -7 l 1
 807 -7 608 1 515 1 c 0x72
 417 1 348 -12 280 -12 c 0
 142 -12 45 97 45 253 c 0
 45 473 200 649 390 649 c 0xa6
 456 649 530 635 609 635 c 0xaa
 745 635 833 639 903 649 c 1
 906 643 l 1
 906 643 880 569 863 477 c 1
 814 473 l 1
 814 473 823 511 823 536 c 0
 823 582 798 587 684 587 c 0
 622 587 619 585 613 548 c 2
 581 354 l 1
 680 353 l 2
 715 353 799 364 799 364 c 1
 802 359 l 1
 781 300 l 1
 781 300 699 303 648 303 c 1
 572 296 l 1
 546 105 l 2xa6
306 40 m 0
 427 40 477 85 494 208 c 2
 527 467 l 2
 539 566 506 591 371 591 c 0
 238 591 135 463 135 280 c 0
 135 137 200 40 306 40 c 0
EndSplineSet
Validated: 33
EndChar

StartChar: Oacute
Encoding: 211 211 75
Width: 663
Flags: MW
HStem: -12 47<255.5 382 255.5 384> 593 55<300.5 425> 821 20G<504 504>
VStem: 45 82<209.5 362> 557 87<273.5 418.5>
LayerCount: 2
Back
Fore
SplineSet
311 35 m 0
 453 35 557 166 557 343 c 0
 557 494 482 593 368 593 c 0
 230 593 127 460 127 285 c 0
 127 134 200 35 311 35 c 0
286 -12 m 0
 144 -12 45 97 45 254 c 0
 45 470 204 648 397 648 c 0
 543 648 644 538 644 382 c 0
 644 165 482 -12 286 -12 c 0
529 787 m 1
 525 777 l 1
 525 777 424 743 319 703 c 1
 311 708 l 1
 305 732 l 1
 399 781 504 841 504 841 c 1
 513 835 l 1
 529 787 l 1
EndSplineSet
Validated: 1
EndChar

StartChar: Ocircumflex
Encoding: 212 212 76
Width: 663
Flags: MW
HStem: -12 47<255.5 382 255.5 384> 593 55<300.5 425> 826 20G<394 408 408 408>
VStem: 45 82<209.5 362> 557 87<273.5 418.5>
LayerCount: 2
Back
Fore
SplineSet
311 35 m 0
 453 35 557 166 557 343 c 0
 557 494 482 593 368 593 c 0
 230 593 127 460 127 285 c 0
 127 134 200 35 311 35 c 0
286 -12 m 0
 144 -12 45 97 45 254 c 0
 45 470 204 648 397 648 c 0
 543 648 644 538 644 382 c 0
 644 165 482 -12 286 -12 c 0
258 713 m 1
 247 735 l 1
 394 846 l 1
 408 846 l 1
 528 735 l 1
 511 713 l 1
 502 712 l 1
 392 777 l 1
 267 712 l 1
 258 713 l 1
EndSplineSet
Validated: 1
EndChar

StartChar: Odieresis
Encoding: 214 214 77
Width: 663
Flags: MW
HStem: -12 47<255.5 382 255.5 384> 593 55<300.5 425> 725 93<305.5 316.5 466 476.5>
VStem: 45 82<209.5 362> 557 87<273.5 418.5>
LayerCount: 2
Back
Fore
SplineSet
311 35 m 0
 453 35 557 166 557 343 c 0
 557 494 482 593 368 593 c 0
 230 593 127 460 127 285 c 0
 127 134 200 35 311 35 c 0
286 -12 m 0
 144 -12 45 97 45 254 c 0
 45 470 204 648 397 648 c 0
 543 648 644 538 644 382 c 0
 644 165 482 -12 286 -12 c 0
461 725 m 0
 437 725 426 744 426 763 c 0
 426 792 451 818 481 818 c 0
 505 818 517 800 517 780 c 0
 517 751 492 725 461 725 c 0
301 725 m 0
 277 725 266 744 266 763 c 0
 266 792 290 818 321 818 c 0
 345 818 357 800 357 780 c 0
 357 751 332 725 301 725 c 0
EndSplineSet
Validated: 1
EndChar

StartChar: Ograve
Encoding: 210 210 78
Width: 663
Flags: MW
HStem: -12 47<255.5 382 255.5 384> 593 55<300.5 425> 821 20G<277 277>
VStem: 45 82<209.5 362> 557 87<273.5 418.5>
LayerCount: 2
Back
Fore
SplineSet
311 35 m 0
 453 35 557 166 557 343 c 0
 557 494 482 593 368 593 c 0
 230 593 127 460 127 285 c 0
 127 134 200 35 311 35 c 0
286 -12 m 0
 144 -12 45 97 45 254 c 0
 45 470 204 648 397 648 c 0
 543 648 644 538 644 382 c 0
 644 165 482 -12 286 -12 c 0
256 777 m 1
 252 787 l 1
 268 835 l 1
 277 841 l 1
 277 841 382 781 476 732 c 1
 470 708 l 1
 462 703 l 1
 357 743 256 777 256 777 c 1
EndSplineSet
Validated: 1
EndChar

StartChar: Ohungarumlaut
Encoding: 336 336 79
Width: 663
Flags: MW
HStem: -12 47<255.5 382 255.5 384> 593 55<300.5 425> 817 20G<414 414>
VStem: 45 82<209.5 362> 557 87<273.5 418.5>
LayerCount: 2
Back
Fore
SplineSet
311 35 m 0
 453 35 557 166 557 343 c 0
 557 494 482 593 368 593 c 0
 230 593 127 460 127 285 c 0
 127 134 200 35 311 35 c 0
286 -12 m 0
 144 -12 45 97 45 254 c 0
 45 470 204 648 397 648 c 0
 543 648 644 538 644 382 c 0
 644 165 482 -12 286 -12 c 0
445 790 m 1
 442 781 l 1
 442 781 362 741 278 694 c 1
 270 699 l 1
 261 720 l 1
 333 773 414 837 414 837 c 1
 423 833 l 1
 445 790 l 1
585 781 m 1
 582 772 l 1
 582 772 502 732 418 685 c 1
 411 689 l 1
 401 710 l 1
 473 764 554 828 554 828 c 1
 563 823 l 1
 585 781 l 1
EndSplineSet
Validated: 1
EndChar

StartChar: hungarumlaut.cap
Encoding: 65548 -1 80
Width: 382
Flags: MW
HStem: 685 21G<301 301> 817 20G<297 297>
LayerCount: 2
Back
Fore
SplineSet
328 790 m 1
 325 781 l 1
 325 781 245 741 161 694 c 1
 153 699 l 1
 144 720 l 1
 216 773 297 837 297 837 c 1
 306 833 l 1
 328 790 l 1
468 781 m 1
 465 772 l 1
 465 772 385 732 301 685 c 1
 294 689 l 1
 284 710 l 1
 356 764 437 828 437 828 c 1
 446 823 l 1
 468 781 l 1
EndSplineSet
Validated: 1
EndChar

StartChar: Omacron
Encoding: 332 332 81
Width: 663
Flags: MW
HStem: -12 47<255.5 382 255.5 384> 593 55<300.5 425> 730 52<387 395> 768 20G<540 540>
VStem: 45 82<209.5 362> 557 87<273.5 418.5>
LayerCount: 2
Back
Fore
SplineSet
311 35 m 0xdc
 453 35 557 166 557 343 c 0
 557 494 482 593 368 593 c 0
 230 593 127 460 127 285 c 0
 127 134 200 35 311 35 c 0xdc
286 -12 m 0
 144 -12 45 97 45 254 c 0
 45 470 204 648 397 648 c 0
 543 648 644 538 644 382 c 0
 644 165 482 -12 286 -12 c 0
540 788 m 1
 545 778 l 1
 532 731 l 1
 395 730 l 2
 339 730 257 729 257 729 c 1
 252 738 l 1
 268 783 l 1
 268 783 359 782 415 782 c 0xec
 463 782 540 788 540 788 c 1
EndSplineSet
Validated: 1
EndChar

StartChar: Oslash
Encoding: 216 216 82
Width: 663
Flags: MW
HStem: -98 21G<137 137> -12 47<294 382 294 384> 593 55<300.5 383> 688 20G<521 521>
VStem: 45 82<241 362> 557 87<273.5 389.5>
LayerCount: 2
Back
Fore
SplineSet
108 -82 m 1
 161 21 l 1
 89 65 45 149 45 254 c 0
 45 470 204 648 397 648 c 0
 427 648 456 643 482 634 c 1
 521 708 l 1
 550 701 l 1
 553 689 l 1
 515 619 l 1
 594 577 644 490 644 382 c 0
 644 165 482 -12 286 -12 c 0
 252 -12 221 -5 192 6 c 1
 137 -98 l 1
 110 -92 l 1
 108 -82 l 1
311 35 m 0
 453 35 557 166 557 343 c 0
 557 436 528 509 479 552 c 1
 221 61 l 1
 247 44 277 35 311 35 c 0
127 285 m 0
 127 197 152 127 194 84 c 1
 450 572 l 1
 426 585 398 593 368 593 c 0
 230 593 127 460 127 285 c 0
EndSplineSet
Validated: 1
EndChar

StartChar: Otilde
Encoding: 213 213 83
Width: 663
Flags: MW
HStem: -12 47<255.5 382 255.5 384> 593 55<300.5 425> 711 64<460.5 466> 744 64<337 343.5> 800 20G<540 546 546 546>
VStem: 45 82<209.5 362> 557 87<273.5 418.5>
LayerCount: 2
Back
Fore
SplineSet
311 35 m 0xd6
 453 35 557 166 557 343 c 0
 557 494 482 593 368 593 c 0
 230 593 127 460 127 285 c 0
 127 134 200 35 311 35 c 0xd6
286 -12 m 0
 144 -12 45 97 45 254 c 0
 45 470 204 648 397 648 c 0
 543 648 644 538 644 382 c 0
 644 165 482 -12 286 -12 c 0
264 699 m 1
 258 699 l 1
 238 720 l 1
 239 725 l 1
 322 804 l 1
 337 808 l 1xd6
 369 808 447 775 474 775 c 0
 496 775 540 820 540 820 c 1
 546 820 l 1
 565 799 l 1
 565 794 l 1
 482 715 l 1
 466 711 l 1xee
 434 711 357 744 330 744 c 0
 307 744 264 699 264 699 c 1
EndSplineSet
Validated: 1
EndChar

StartChar: P
Encoding: 80 80 84
Width: 528
Flags: MW
HStem: -8 21G<34 34> 0 41<150.5 231.5> 596 44<126 163 342 347>
VStem: 457 78<426.5 512.5>
LayerCount: 2
Back
Fore
SplineSet
115 598 m 1xb0
 127 640 l 2
 125 640 196 636 232 636 c 0
 258 636 342 640 342 640 c 1
 462 640 535 587 535 489 c 0
 535 364 422 246 299 246 c 2
 207 246 l 1
 184 92 l 2
 178 54 189 41 222 41 c 0
 241 41 275 45 275 45 c 2
 275 44 276 42 276 41 c 2
 262 -3 l 2
 262 -2 207 0 177 0 c 0x70
 124 0 36 -5 34 -8 c 2
 46 35 l 1
 104 46 119 60 126 117 c 2
 178 542 l 2
 183 585 177 596 149 596 c 0
 138 596 117 594 117 594 c 1
 115 598 l 1xb0
217 301 m 1
 317 286 l 1
 407 300 457 365 457 469 c 0
 457 556 404 596 290 596 c 0
 264 596 265 595 263 582 c 0
 246 498 230 396 217 301 c 1
EndSplineSet
Validated: 37
EndChar

StartChar: Q
Encoding: 81 81 85
Width: 670
Flags: MW
HStem: -214 73<612.5 649> -12 47<255.5 286 286 287> 593 55<300.5 425>
VStem: 45 82<209.5 362> 557 87<289.5 418.5>
LayerCount: 2
Back
Fore
SplineSet
286 -12 m 2
 144 -12 45 97 45 254 c 0
 45 470 204 648 397 648 c 0
 543 648 644 538 644 382 c 0
 644 197 527 42 371 0 c 1
 371 -6 l 1
 497 -105 574 -141 651 -141 c 0
 697 -141 729 -131 729 -131 c 1
 733 -133 l 1
 736 -148 l 1
 736 -148 658 -214 640 -214 c 0
 548 -214 493 -184 287 -12 c 1
 286 -12 l 2
311 35 m 0
 453 35 557 166 557 343 c 0
 557 494 482 593 368 593 c 0
 230 593 127 460 127 285 c 0
 127 134 200 35 311 35 c 0
EndSplineSet
Validated: 1
EndChar

StartChar: R
Encoding: 82 82 86
Width: 585
Flags: MW
HStem: -16 21G<457 473> -1 40 576 20G<143.5 163> 620 20G<127 127 339 393>
VStem: 443 79<459 524>
LayerCount: 2
Back
Fore
SplineSet
303 276 m 1xb8
 212 276 l 1
 190 122 l 2
 180 49 187 39 249 39 c 1
 250 36 l 1
 237 -4 l 1
 237 -4 182 -2 137 -1 c 0
 90 0 28 -4 28 -4 c 1
 42 39 l 1x78
 103 46 119 59 126 117 c 2
 178 541 l 2
 183 585 177 596 149 596 c 0
 138 596 117 594 117 594 c 1
 115 598 l 1
 127 640 l 1
 127 640 196 636 232 636 c 0
 264 636 339 640 339 640 c 1
 447 640 522 587 522 503 c 0
 522 415 470 339 365 293 c 1
 450 115 l 2
 481 52 507 30 560 30 c 1
 563 27 l 1
 554 -5 l 1
 473 -16 l 1
 441 -16 407 22 383 79 c 2
 303 276 l 1xb8
221 328 m 1
 319 318 l 2
 317 317 443 348 443 486 c 0
 443 562 389 602 281 602 c 0
 268 602 265 597 260 579 c 0
 239 472 230 400 221 328 c 1
EndSplineSet
Validated: 33
EndChar

StartChar: Racute
Encoding: 340 340 87
Width: 589
Flags: MW
HStem: -16 21G<457 473> -1 40 576 20G<143.5 163> 620 20G<127 127 339 393> 821 20G<487 487>
VStem: 443 79<459 524>
LayerCount: 2
Back
Fore
SplineSet
303 276 m 1xbc
 212 276 l 1
 190 122 l 2
 180 49 187 39 249 39 c 1
 250 36 l 1
 237 -4 l 1
 237 -4 182 -2 137 -1 c 0
 90 0 28 -4 28 -4 c 1
 42 39 l 1x7c
 103 46 119 59 126 117 c 2
 178 541 l 2
 183 585 177 596 149 596 c 0
 138 596 117 594 117 594 c 1
 115 598 l 1
 127 640 l 1
 127 640 196 636 232 636 c 0
 264 636 339 640 339 640 c 1
 447 640 522 587 522 503 c 0
 522 415 470 339 365 293 c 1
 450 115 l 2
 481 52 507 30 560 30 c 1
 563 27 l 1
 554 -5 l 1
 473 -16 l 1
 441 -16 407 22 383 79 c 2
 303 276 l 1xbc
221 328 m 1
 319 318 l 2
 317 317 443 348 443 486 c 0
 443 562 389 602 281 602 c 0
 268 602 265 597 260 579 c 0
 239 472 230 400 221 328 c 1
512 787 m 1
 508 777 l 1
 508 777 407 743 302 703 c 1
 294 708 l 1
 288 732 l 1
 382 781 487 841 487 841 c 1
 496 835 l 1
 512 787 l 1
EndSplineSet
Validated: 33
EndChar

StartChar: Rcaron
Encoding: 344 344 88
Width: 589
Flags: MW
HStem: -16 21G<457 473> -1 40 576 20G<143.5 163> 620 20G<127 127 339 393> 818 20G<246 246 480 480>
VStem: 443 79<459 524>
LayerCount: 2
Back
Fore
SplineSet
303 276 m 1xbc
 212 276 l 1
 190 122 l 2
 180 49 187 39 249 39 c 1
 250 36 l 1
 237 -4 l 1
 237 -4 182 -2 137 -1 c 0
 90 0 28 -4 28 -4 c 1
 42 39 l 1x7c
 103 46 119 59 126 117 c 2
 178 541 l 2
 183 585 177 596 149 596 c 0
 138 596 117 594 117 594 c 1
 115 598 l 1
 127 640 l 1
 127 640 196 636 232 636 c 0
 264 636 339 640 339 640 c 1
 447 640 522 587 522 503 c 0
 522 415 470 339 365 293 c 1
 450 115 l 2
 481 52 507 30 560 30 c 1
 563 27 l 1
 554 -5 l 1
 473 -16 l 1
 441 -16 407 22 383 79 c 2
 303 276 l 1xbc
221 328 m 1
 319 318 l 2
 317 317 443 348 443 486 c 0
 443 562 389 602 281 602 c 0
 268 602 265 597 260 579 c 0
 239 472 230 400 221 328 c 1
489 837 m 1
 501 815 l 1
 353 704 l 1
 340 704 l 1
 220 815 l 1
 236 837 l 1
 246 838 l 1
 355 773 l 1
 480 838 l 1
 489 837 l 1
EndSplineSet
Validated: 33
EndChar

StartChar: Rcommaaccent
Encoding: 342 342 89
Width: 589
Flags: MW
HStem: -293 21G<196 196> -1 40 39 237<42 303 218 249> 576 20G<143.5 163> 620 20G<127 127 339 393>
VStem: 443 79<459 524>
LayerCount: 2
Back
Fore
SplineSet
303 276 m 1xdc
 212 276 l 1xbc
 190 122 l 2
 180 49 187 39 249 39 c 1
 250 36 l 1
 237 -4 l 1
 237 -4 182 -2 137 -1 c 0
 90 0 28 -4 28 -4 c 1
 42 39 l 1
 103 46 119 59 126 117 c 2
 178 541 l 2
 183 585 177 596 149 596 c 0
 138 596 117 594 117 594 c 1
 115 598 l 1
 127 640 l 1
 127 640 196 636 232 636 c 0
 264 636 339 640 339 640 c 1
 447 640 522 587 522 503 c 0
 522 415 470 339 365 293 c 1
 450 115 l 2
 481 52 507 30 560 30 c 1
 563 27 l 1
 554 -5 l 1
 473 -16 l 1
 441 -16 407 22 383 79 c 2
 303 276 l 1xdc
221 328 m 1
 319 318 l 2
 317 317 443 348 443 486 c 0
 443 562 389 602 281 602 c 0
 268 602 265 597 260 579 c 0
 239 472 230 400 221 328 c 1
210 -107 m 1
 212 -93 l 1
 225 -83 248 -67 270 -67 c 0
 300 -67 324 -94 324 -138 c 0
 324 -210 251 -264 196 -293 c 1
 178 -278 l 1
 178 -268 l 1
 218 -243 250 -203 250 -169 c 0
 250 -142 232 -120 210 -107 c 1
EndSplineSet
Validated: 33
EndChar

StartChar: S
Encoding: 83 83 90
Width: 507
Flags: MW
HStem: -12 44<158.5 255 158.5 266> 599 49<268 344.5>
VStem: 96 74<470.5 504.5> 361 81<136.5 180.5>
LayerCount: 2
Back
Fore
SplineSet
192 -12 m 0
 102 -12 36 21 36 21 c 1
 32 31 l 1
 32 31 54 106 66 205 c 1
 107 210 l 1
 89 61 106 32 211 32 c 0
 299 32 361 81 361 154 c 0
 361 207 312 242 255 276 c 0
 181 320 96 364 96 450 c 0
 96 559 197 648 328 648 c 0
 413 648 480 624 480 624 c 1
 482 619 l 1
 482 619 458 542 441 450 c 1
 405 446 l 1
 400 451 l 1
 400 451 411 495 411 525 c 0
 411 580 383 599 306 599 c 0
 230 599 170 553 170 492 c 0
 170 449 202 419 243 390 c 0
 323 336 442 292 442 195 c 0
 442 78 340 -12 192 -12 c 0
EndSplineSet
Validated: 33
EndChar

StartChar: Sacute
Encoding: 346 346 91
Width: 509
Flags: MW
HStem: -12 44<158.5 255 158.5 266> 599 49<268 344.5> 821 20G<454 454>
VStem: 96 74<470.5 504.5> 361 81<136.5 180.5>
LayerCount: 2
Back
Fore
SplineSet
192 -12 m 0
 102 -12 36 21 36 21 c 1
 32 31 l 1
 32 31 54 106 66 205 c 1
 107 210 l 1
 89 61 106 32 211 32 c 0
 299 32 361 81 361 154 c 0
 361 207 312 242 255 276 c 0
 181 320 96 364 96 450 c 0
 96 559 197 648 328 648 c 0
 413 648 480 624 480 624 c 1
 482 619 l 1
 482 619 458 542 441 450 c 1
 405 446 l 1
 400 451 l 1
 400 451 411 495 411 525 c 0
 411 580 383 599 306 599 c 0
 230 599 170 553 170 492 c 0
 170 449 202 419 243 390 c 0
 323 336 442 292 442 195 c 0
 442 78 340 -12 192 -12 c 0
479 787 m 1
 475 777 l 1
 475 777 374 743 269 703 c 1
 261 708 l 1
 255 732 l 1
 349 781 454 841 454 841 c 1
 463 835 l 1
 479 787 l 1
EndSplineSet
Validated: 33
EndChar

StartChar: Scaron
Encoding: 352 352 92
Width: 509
Flags: MW
HStem: -12 44<158.5 255 158.5 266> 599 49<268 344.5> 818 20G<223 223 457 457>
VStem: 96 74<470.5 504.5> 361 81<136.5 180.5>
LayerCount: 2
Back
Fore
SplineSet
192 -12 m 0
 102 -12 36 21 36 21 c 1
 32 31 l 1
 32 31 54 106 66 205 c 1
 107 210 l 1
 89 61 106 32 211 32 c 0
 299 32 361 81 361 154 c 0
 361 207 312 242 255 276 c 0
 181 320 96 364 96 450 c 0
 96 559 197 648 328 648 c 0
 413 648 480 624 480 624 c 1
 482 619 l 1
 482 619 458 542 441 450 c 1
 405 446 l 1
 400 451 l 1
 400 451 411 495 411 525 c 0
 411 580 383 599 306 599 c 0
 230 599 170 553 170 492 c 0
 170 449 202 419 243 390 c 0
 323 336 442 292 442 195 c 0
 442 78 340 -12 192 -12 c 0
466 837 m 1
 478 815 l 1
 330 704 l 1
 317 704 l 1
 197 815 l 1
 213 837 l 1
 223 838 l 1
 332 773 l 1
 457 838 l 1
 466 837 l 1
EndSplineSet
Validated: 33
EndChar

StartChar: Scedilla
Encoding: 350 350 93
Width: 509
Flags: MW
HStem: -233 21G<145 187> -218 20G<168 196.5> -161 20G<129 137 137 137> -12 44<158.5 191> 599 49<268 344.5>
VStem: 96 74<470.5 504.5> 361 81<142 180.5>
LayerCount: 2
Back
Fore
SplineSet
161 -85 m 1x7e
 191 -12 l 1
 102 -12 36 21 36 21 c 1
 32 31 l 1
 32 31 54 106 66 205 c 1
 107 210 l 1
 89 61 106 32 211 32 c 0
 299 32 361 81 361 154 c 0
 361 207 312 242 255 276 c 0
 181 320 96 364 96 450 c 0
 96 559 197 648 328 648 c 0
 413 648 480 624 480 624 c 1
 482 619 l 1
 482 619 458 542 441 450 c 1
 405 446 l 1
 400 451 l 1
 400 451 411 495 411 525 c 0
 411 580 383 599 306 599 c 0
 230 599 170 553 170 492 c 0
 170 449 202 419 243 390 c 0
 323 336 442 292 442 195 c 0
 442 89 358 5 233 -9 c 1
 215 -50 l 1
 243 -72 287 -100 287 -135 c 0
 287 -188 215 -233 159 -233 c 0xbe
 131 -233 97 -221 97 -199 c 0
 97 -186 116 -158 129 -141 c 1
 137 -141 l 1
 134 -178 153 -198 183 -198 c 0
 210 -198 234 -181 234 -158 c 0
 234 -135 195 -107 161 -85 c 1x7e
EndSplineSet
Validated: 33
EndChar

StartChar: Scommaaccent
Encoding: 536 536 94
Width: 509
Flags: MW
HStem: -293 21G<129 129> -67 55<192 218> -12 44<158.5 255 158.5 266> 599 49<268 344.5>
VStem: 96 74<470.5 504.5> 361 81<136.5 180.5>
LayerCount: 2
Back
Fore
SplineSet
192 -12 m 0xbc
 102 -12 36 21 36 21 c 1
 32 31 l 1
 32 31 54 106 66 205 c 1
 107 210 l 1
 89 61 106 32 211 32 c 0
 299 32 361 81 361 154 c 0
 361 207 312 242 255 276 c 0
 181 320 96 364 96 450 c 0
 96 559 197 648 328 648 c 0
 413 648 480 624 480 624 c 1
 482 619 l 1
 482 619 458 542 441 450 c 1
 405 446 l 1
 400 451 l 1
 400 451 411 495 411 525 c 0
 411 580 383 599 306 599 c 0
 230 599 170 553 170 492 c 0
 170 449 202 419 243 390 c 0
 323 336 442 292 442 195 c 0
 442 78 340 -12 192 -12 c 0xbc
143 -107 m 1
 145 -93 l 1
 158 -83 181 -67 203 -67 c 0xdc
 233 -67 257 -94 257 -138 c 0
 257 -210 184 -264 129 -293 c 1
 111 -278 l 1
 111 -268 l 1
 151 -243 183 -203 183 -169 c 0
 183 -142 165 -120 143 -107 c 1
EndSplineSet
Validated: 33
EndChar

StartChar: T
Encoding: 84 84 95
Width: 523
Flags: MW
HStem: -4 21G<94 94> 0 41 617 20G<161 459 459 459> 628 20G<85 85 541 541>
LayerCount: 2
Back
Fore
SplineSet
218 162 m 2x90
 271 602 l 1
 116 595 114 593 84 477 c 1
 40 473 l 1
 40 473 62 558 75 641 c 1
 85 648 l 1x50
 161 637 l 1
 459 637 l 1x60
 541 648 l 1
 549 641 l 1
 541 558 543 477 543 477 c 1
 499 473 l 1
 496 592 493 595 351 602 c 1
 331 508 273 130 273 92 c 0
 273 56 287 41 320 41 c 0
 355 41 375 44 375 44 c 1
 377 40 l 1
 363 -3 l 1
 363 -3 269 0 223 0 c 0x50
 177 0 94 -4 94 -4 c 1
 106 36 l 1
 196 45 204 54 218 162 c 2x90
EndSplineSet
Validated: 33
EndChar

StartChar: Tbar
Encoding: 358 358 96
Width: 526
Flags: MW
HStem: -4 21G<94 94> 0 41 309 46<235 241> 617 20G<161 459 459 459> 628 20G<85 85 541 541>
LayerCount: 2
Back
Fore
SplineSet
218 162 m 2xa8
 235 309 l 1
 146 308 l 1
 137 317 l 1
 144 356 l 1
 241 355 l 1
 271 602 l 1
 116 595 114 593 84 477 c 1
 40 473 l 1
 40 473 62 558 75 641 c 1
 85 648 l 1x68
 161 637 l 1
 459 637 l 1x70
 541 648 l 1
 549 641 l 1
 541 558 543 477 543 477 c 1
 499 473 l 1
 496 592 493 595 351 602 c 1
 342 559 325 458 309 356 c 1
 389 360 l 1
 402 347 l 1
 398 310 l 1
 302 309 l 1
 286 205 273 110 273 92 c 0
 273 56 287 41 320 41 c 0
 355 41 375 44 375 44 c 1
 377 40 l 1
 363 -3 l 1
 363 -3 269 0 223 0 c 0x68
 177 0 94 -4 94 -4 c 1
 106 36 l 1
 196 45 204 54 218 162 c 2xa8
EndSplineSet
Validated: 33
EndChar

StartChar: Tcaron
Encoding: 356 356 97
Width: 526
Flags: MW
HStem: -4 21G<94 94> 0 41 617 20G<161 459 459 459> 818 20G<227 227 461 461>
LayerCount: 2
Back
Fore
SplineSet
218 162 m 2xb0
 271 602 l 1
 116 595 114 593 84 477 c 1
 40 473 l 1
 40 473 62 558 75 641 c 1
 85 648 l 1
 161 637 l 1
 459 637 l 1
 541 648 l 1
 549 641 l 1
 541 558 543 477 543 477 c 1
 499 473 l 1
 496 592 493 595 351 602 c 1
 331 508 273 130 273 92 c 0
 273 56 287 41 320 41 c 0
 355 41 375 44 375 44 c 1
 377 40 l 1
 363 -3 l 1
 363 -3 269 0 223 0 c 0x70
 177 0 94 -4 94 -4 c 1
 106 36 l 1
 196 45 204 54 218 162 c 2xb0
470 837 m 1
 482 815 l 1
 334 704 l 1
 321 704 l 1
 201 815 l 1
 217 837 l 1
 227 838 l 1
 336 773 l 1
 461 838 l 1
 470 837 l 1
EndSplineSet
Validated: 33
EndChar

StartChar: Tcedilla
Encoding: 354 354 98
Width: 526
Flags: MW
HStem: -233 21G<167 209> -218 20G<190 218.5> -161 20G<151 159 159 159> 0 41 617 20G<161 459 459 459> 628 20G<85 85 541 541>
LayerCount: 2
Back
Fore
SplineSet
183 -85 m 1x74
 218 0 l 1
 172 0 94 -4 94 -4 c 1
 106 36 l 1
 196 45 204 54 218 162 c 2
 271 602 l 1
 116 595 114 593 84 477 c 1
 40 473 l 1
 40 473 62 558 75 641 c 1
 85 648 l 1x74
 161 637 l 1
 459 637 l 1x78
 541 648 l 1
 549 641 l 1
 541 558 543 477 543 477 c 1
 499 473 l 1
 496 592 493 595 351 602 c 1
 331 508 273 130 273 92 c 0
 273 56 287 41 320 41 c 0
 355 41 375 44 375 44 c 1
 377 40 l 1
 363 -3 l 1
 363 -3 306 -1 259 0 c 1
 237 -50 l 1
 265 -72 309 -100 309 -135 c 0
 309 -188 237 -233 181 -233 c 0xb4
 153 -233 119 -221 119 -199 c 0
 119 -186 138 -158 151 -141 c 1
 159 -141 l 1
 156 -178 175 -198 205 -198 c 0
 232 -198 256 -181 256 -158 c 0
 256 -135 217 -107 183 -85 c 1x74
EndSplineSet
Validated: 33
EndChar

StartChar: Thorn
Encoding: 222 222 99
Width: 523
Flags: MW
HStem: -12 21G<24 24> 0 44 454 49<258.5 325> 594 43 620 20G<117 117.5> 626 20G<345 345>
VStem: 432 87<302.5 379.5>
LayerCount: 2
Back
Fore
SplineSet
260 544 m 2x66
 253 503 l 1
 331 503 l 2
 453 503 519 452 519 360 c 0
 519 245 395 148 266 148 c 2
 198 148 l 1
 193 112 l 2
 187 58 193 44 227 44 c 0
 250 44 278 47 278 47 c 1
 279 43 l 1
 265 -3 l 1
 265 -3 183 0 138 0 c 0x72
 89 0 24 -12 24 -12 c 1
 36 34 l 1
 97 46 116 64 123 120 c 2
 175 540 l 2
 180 582 175 594 146 594 c 0xb2
 132 594 106 592 106 592 c 1
 104 596 l 1
 117 640 l 2x6a
 118 640 192 637 232 637 c 0x72
 276 637 345 646 345 646 c 1
 335 601 l 1
 281 594 266 582 260 544 c 2x66
243 446 m 0
 224 331 213 260 206 209 c 1
 228 201 274 193 301 192 c 1
 388 203 432 255 432 341 c 0
 432 418 381 454 269 454 c 0
 248 454 245 453 243 446 c 0
EndSplineSet
Validated: 33
EndChar

StartChar: U
Encoding: 85 85 100
Width: 655
Flags: MW
HStem: -12 53<269 361> 596 40 626 20G<300 300 675 675>
LayerCount: 2
Back
Fore
SplineSet
222 546 m 2xa0
 178 252 l 2
 176 234 175 217 175 202 c 0
 175 98 223 41 315 41 c 0
 422 41 487 102 500 215 c 0
 509 285 535 542 535 542 c 2
 538 588 534 596 506 596 c 0
 494 596 463 594 463 594 c 1
 463 598 l 1
 474 639 l 1
 474 639 545 636 581 636 c 0xc0
 622 636 675 646 675 646 c 1xa0
 665 603 l 1
 608 596 597 588 592 546 c 2
 550 206 l 2
 533 68 436 -12 286 -12 c 0
 165 -12 100 54 101 170 c 0
 101 183 102 196 104 210 c 2
 145 542 l 2
 150 585 145 596 115 596 c 0
 103 596 82 594 82 594 c 1
 81 598 l 1
 93 639 l 1
 93 639 163 636 199 636 c 0xc0
 240 636 300 646 300 646 c 1
 291 603 l 1
 242 596 229 584 222 546 c 2xa0
EndSplineSet
Validated: 33
EndChar

StartChar: Uacute
Encoding: 218 218 101
Width: 652
Flags: MW
HStem: -12 53<269 361> 596 40 821 20G<539 539>
LayerCount: 2
Back
Fore
SplineSet
222 546 m 2
 178 252 l 2
 176 234 175 217 175 202 c 0
 175 98 223 41 315 41 c 0
 422 41 487 102 500 215 c 0
 509 285 535 542 535 542 c 2
 538 588 534 596 506 596 c 0
 494 596 463 594 463 594 c 1
 463 598 l 1
 474 639 l 1
 474 639 545 636 581 636 c 0
 622 636 675 646 675 646 c 1
 665 603 l 1
 608 596 597 588 592 546 c 2
 550 206 l 2
 533 68 436 -12 286 -12 c 0
 165 -12 100 54 101 170 c 0
 101 183 102 196 104 210 c 2
 145 542 l 2
 150 585 145 596 115 596 c 0
 103 596 82 594 82 594 c 1
 81 598 l 1
 93 639 l 1
 93 639 163 636 199 636 c 0
 240 636 300 646 300 646 c 1
 291 603 l 1
 242 596 229 584 222 546 c 2
564 787 m 1
 560 777 l 1
 560 777 459 743 354 703 c 1
 346 708 l 1
 340 732 l 1
 434 781 539 841 539 841 c 1
 548 835 l 1
 564 787 l 1
EndSplineSet
Validated: 33
EndChar

StartChar: Ucircumflex
Encoding: 219 219 102
Width: 652
Flags: MW
HStem: -12 53<269 361> 596 40 826 20G<409 423 423 423>
LayerCount: 2
Back
Fore
SplineSet
222 546 m 2
 178 252 l 2
 176 234 175 217 175 202 c 0
 175 98 223 41 315 41 c 0
 422 41 487 102 500 215 c 0
 509 285 535 542 535 542 c 2
 538 588 534 596 506 596 c 0
 494 596 463 594 463 594 c 1
 463 598 l 1
 474 639 l 1
 474 639 545 636 581 636 c 0
 622 636 675 646 675 646 c 1
 665 603 l 1
 608 596 597 588 592 546 c 2
 550 206 l 2
 533 68 436 -12 286 -12 c 0
 165 -12 100 54 101 170 c 0
 101 183 102 196 104 210 c 2
 145 542 l 2
 150 585 145 596 115 596 c 0
 103 596 82 594 82 594 c 1
 81 598 l 1
 93 639 l 1
 93 639 163 636 199 636 c 0
 240 636 300 646 300 646 c 1
 291 603 l 1
 242 596 229 584 222 546 c 2
273 713 m 1
 262 735 l 1
 409 846 l 1
 423 846 l 1
 543 735 l 1
 526 713 l 1
 517 712 l 1
 407 777 l 1
 282 712 l 1
 273 713 l 1
EndSplineSet
Validated: 33
EndChar

StartChar: Udieresis
Encoding: 220 220 103
Width: 652
Flags: MW
HStem: -12 53<269 361> 596 40 725 93<320.5 331.5 481 491.5>
LayerCount: 2
Back
Fore
SplineSet
222 546 m 2
 178 252 l 2
 176 234 175 217 175 202 c 0
 175 98 223 41 315 41 c 0
 422 41 487 102 500 215 c 0
 509 285 535 542 535 542 c 2
 538 588 534 596 506 596 c 0
 494 596 463 594 463 594 c 1
 463 598 l 1
 474 639 l 1
 474 639 545 636 581 636 c 0
 622 636 675 646 675 646 c 1
 665 603 l 1
 608 596 597 588 592 546 c 2
 550 206 l 2
 533 68 436 -12 286 -12 c 0
 165 -12 100 54 101 170 c 0
 101 183 102 196 104 210 c 2
 145 542 l 2
 150 585 145 596 115 596 c 0
 103 596 82 594 82 594 c 1
 81 598 l 1
 93 639 l 1
 93 639 163 636 199 636 c 0
 240 636 300 646 300 646 c 1
 291 603 l 1
 242 596 229 584 222 546 c 2
476 725 m 0
 452 725 441 744 441 763 c 0
 441 792 466 818 496 818 c 0
 520 818 532 800 532 780 c 0
 532 751 507 725 476 725 c 0
316 725 m 0
 292 725 281 744 281 763 c 0
 281 792 305 818 336 818 c 0
 360 818 372 800 372 780 c 0
 372 751 347 725 316 725 c 0
EndSplineSet
Validated: 33
EndChar

StartChar: Ugrave
Encoding: 217 217 104
Width: 652
Flags: MW
HStem: -12 53<269 361> 596 40 821 20G<282 282>
LayerCount: 2
Back
Fore
SplineSet
222 546 m 2
 178 252 l 2
 176 234 175 217 175 202 c 0
 175 98 223 41 315 41 c 0
 422 41 487 102 500 215 c 0
 509 285 535 542 535 542 c 2
 538 588 534 596 506 596 c 0
 494 596 463 594 463 594 c 1
 463 598 l 1
 474 639 l 1
 474 639 545 636 581 636 c 0
 622 636 675 646 675 646 c 1
 665 603 l 1
 608 596 597 588 592 546 c 2
 550 206 l 2
 533 68 436 -12 286 -12 c 0
 165 -12 100 54 101 170 c 0
 101 183 102 196 104 210 c 2
 145 542 l 2
 150 585 145 596 115 596 c 0
 103 596 82 594 82 594 c 1
 81 598 l 1
 93 639 l 1
 93 639 163 636 199 636 c 0
 240 636 300 646 300 646 c 1
 291 603 l 1
 242 596 229 584 222 546 c 2
261 777 m 1
 257 787 l 1
 273 835 l 1
 282 841 l 1
 282 841 387 781 481 732 c 1
 475 708 l 1
 467 703 l 1
 362 743 261 777 261 777 c 1
EndSplineSet
Validated: 33
EndChar

StartChar: Uhungarumlaut
Encoding: 368 368 105
Width: 652
Flags: MW
HStem: -12 53<269 361> 596 40 817 20G<449 449>
LayerCount: 2
Back
Fore
SplineSet
222 546 m 2
 178 252 l 2
 176 234 175 217 175 202 c 0
 175 98 223 41 315 41 c 0
 422 41 487 102 500 215 c 0
 509 285 535 542 535 542 c 2
 538 588 534 596 506 596 c 0
 494 596 463 594 463 594 c 1
 463 598 l 1
 474 639 l 1
 474 639 545 636 581 636 c 0
 622 636 675 646 675 646 c 1
 665 603 l 1
 608 596 597 588 592 546 c 2
 550 206 l 2
 533 68 436 -12 286 -12 c 0
 165 -12 100 54 101 170 c 0
 101 183 102 196 104 210 c 2
 145 542 l 2
 150 585 145 596 115 596 c 0
 103 596 82 594 82 594 c 1
 81 598 l 1
 93 639 l 1
 93 639 163 636 199 636 c 0
 240 636 300 646 300 646 c 1
 291 603 l 1
 242 596 229 584 222 546 c 2
480 790 m 1
 477 781 l 1
 477 781 397 741 313 694 c 1
 305 699 l 1
 296 720 l 1
 368 773 449 837 449 837 c 1
 458 833 l 1
 480 790 l 1
620 781 m 1
 617 772 l 1
 617 772 537 732 453 685 c 1
 446 689 l 1
 436 710 l 1
 508 764 589 828 589 828 c 1
 598 823 l 1
 620 781 l 1
EndSplineSet
Validated: 33
EndChar

StartChar: Umacron
Encoding: 362 362 106
Width: 652
Flags: MW
HStem: -12 53<269 361> 596 40 730 52<392 400> 768 20G<545 545>
LayerCount: 2
Back
Fore
SplineSet
222 546 m 2xd0
 178 252 l 2
 176 234 175 217 175 202 c 0
 175 98 223 41 315 41 c 0
 422 41 487 102 500 215 c 0
 509 285 535 542 535 542 c 2
 538 588 534 596 506 596 c 0
 494 596 463 594 463 594 c 1
 463 598 l 1
 474 639 l 1
 474 639 545 636 581 636 c 0
 622 636 675 646 675 646 c 1
 665 603 l 1
 608 596 597 588 592 546 c 2
 550 206 l 2
 533 68 436 -12 286 -12 c 0
 165 -12 100 54 101 170 c 0
 101 183 102 196 104 210 c 2
 145 542 l 2
 150 585 145 596 115 596 c 0
 103 596 82 594 82 594 c 1
 81 598 l 1
 93 639 l 1
 93 639 163 636 199 636 c 0
 240 636 300 646 300 646 c 1
 291 603 l 1
 242 596 229 584 222 546 c 2xd0
545 788 m 1
 550 778 l 1
 537 731 l 1
 400 730 l 2
 344 730 262 729 262 729 c 1
 257 738 l 1
 273 783 l 1
 273 783 364 782 420 782 c 0xe0
 468 782 545 788 545 788 c 1
EndSplineSet
Validated: 33
EndChar

StartChar: Uogonek
Encoding: 370 370 107
Width: 652
Flags: MW
HStem: -241 59<343.5 408.5> -12 53<269.5 302.5> 596 40 626 20G<300 300 675 675>
LayerCount: 2
Back
Fore
SplineSet
467 -159 m 1xd0
 477 -178 l 1
 477 -178 424 -224 373 -241 c 1
 314 -241 277 -209 277 -158 c 0
 277 -118 307 -71 379 0 c 1
 351 -8 319 -12 286 -12 c 0
 166 -12 100 53 101 170 c 0
 101 183 102 196 104 210 c 2
 145 542 l 2
 150 586 144 596 115 596 c 0
 103 596 82 594 82 594 c 1
 81 598 l 1
 93 639 l 1
 93 639 163 636 199 636 c 0xe0
 240 636 300 646 300 646 c 1xd0
 291 603 l 1
 242 596 228 584 222 546 c 2
 178 252 l 2
 176 234 175 217 175 202 c 0
 175 97 224 41 315 41 c 0
 421 41 486 101 500 215 c 0
 509 285 535 542 535 542 c 2
 538 589 534 596 506 596 c 0
 494 596 463 594 463 594 c 1
 463 598 l 1
 474 639 l 1
 474 639 545 636 581 636 c 0xe0
 622 636 675 646 675 646 c 1
 665 603 l 1
 605 594 595 585 592 546 c 2
 550 206 l 2
 542 143 514 86 473 45 c 0
 362 -68 341 -97 341 -134 c 0
 341 -163 361 -182 390 -182 c 0
 427 -182 467 -159 467 -159 c 1xd0
EndSplineSet
Validated: 33
EndChar

StartChar: Uring
Encoding: 366 366 108
Width: 652
Flags: MW
HStem: -12 53<269 361> 596 40 674 164<391 418.5>
LayerCount: 2
Back
Fore
SplineSet
222 546 m 2
 178 252 l 2
 176 234 175 217 175 202 c 0
 175 98 223 41 315 41 c 0
 422 41 487 102 500 215 c 0
 509 285 535 542 535 542 c 2
 538 588 534 596 506 596 c 0
 494 596 463 594 463 594 c 1
 463 598 l 1
 474 639 l 1
 474 639 545 636 581 636 c 0
 622 636 675 646 675 646 c 1
 665 603 l 1
 608 596 597 588 592 546 c 2
 550 206 l 2
 533 68 436 -12 286 -12 c 0
 165 -12 100 54 101 170 c 0
 101 183 102 196 104 210 c 2
 145 542 l 2
 150 585 145 596 115 596 c 0
 103 596 82 594 82 594 c 1
 81 598 l 1
 93 639 l 1
 93 639 163 636 199 636 c 0
 240 636 300 646 300 646 c 1
 291 603 l 1
 242 596 229 584 222 546 c 2
401 712 m 0
 418 712 449 717 449 757 c 0
 449 782 434 799 405 799 c 0
 375 799 358 781 358 754 c 0
 358 724 383 712 401 712 c 0
390 674 m 0
 347 674 325 702 325 742 c 0
 325 797 364 838 418 838 c 0
 466 838 484 806 484 772 c 0
 484 722 447 674 390 674 c 0
EndSplineSet
Validated: 33
EndChar

StartChar: V
Encoding: 86 86 109
Width: 584
Flags: MW
HStem: -17 21G<227 227> 628 20G<304 304>
LayerCount: 2
Back
Fore
SplineSet
122 538 m 0
 115 576 89 594 39 595 c 1
 38 599 l 1
 50 639 l 1
 50 639 127 636 159 636 c 0
 209 636 304 648 304 648 c 1
 306 641 l 1
 297 604 l 1
 217 599 206 590 206 560 c 0
 206 514 272 93 272 93 c 1
 280 93 l 1
 348 234 499 535 499 563 c 0
 499 588 480 599 437 599 c 2
 386 599 l 1
 384 603 l 1
 395 644 l 1
 395 644 468 636 531 636 c 0
 577 636 637 640 637 640 c 1
 624 595 l 1
 584 593 573 585 553 547 c 2
 285 5 l 1
 227 -17 l 1
 227 -17 173 269 122 538 c 0
EndSplineSet
Validated: 1
EndChar

StartChar: W
Encoding: 87 87 110
Width: 893
Flags: MW
HStem: -17 21G<213 213 535 535> 628 20G<297 297 621 621>
LayerCount: 2
Back
Fore
SplineSet
592 5 m 1
 535 -17 l 1
 467 415 l 1
 461 415 l 1
 272 5 l 1
 213 -17 l 1
 213 -17 170 270 121 538 c 0
 114 576 90 594 42 595 c 1
 40 599 l 1
 51 639 l 1
 51 639 127 636 157 636 c 0
 225 636 297 648 297 648 c 1
 299 641 l 1
 292 604 l 1
 214 599 202 590 202 559 c 0
 202 503 265 93 265 93 c 1
 271 93 l 1
 331 223 393 348 456 480 c 1
 450 496 448 517 445 536 c 0
 436 577 411 593 364 595 c 1
 363 599 l 1
 375 639 l 1
 375 639 450 636 481 636 c 0
 538 636 621 648 621 648 c 1
 622 641 l 1
 614 604 l 1
 535 598 524 590 524 560 c 0
 524 512 588 93 588 93 c 1
 594 93 l 1
 659 231 809 539 809 568 c 0
 809 590 790 599 747 599 c 2
 699 599 l 1
 697 603 l 1
 709 644 l 1
 709 644 780 636 841 636 c 0
 884 636 942 640 942 640 c 1
 930 595 l 1
 893 593 881 586 862 547 c 2
 592 5 l 1
EndSplineSet
Validated: 1
EndChar

StartChar: Wacute
Encoding: 7810 7810 111
Width: 897
Flags: MW
HStem: -17 21G<213 213 535 535> 821 20G<658 658>
LayerCount: 2
Back
Fore
SplineSet
592 5 m 1
 535 -17 l 1
 467 415 l 1
 461 415 l 1
 272 5 l 1
 213 -17 l 1
 213 -17 170 270 121 538 c 0
 114 576 90 594 42 595 c 1
 40 599 l 1
 51 639 l 1
 51 639 127 636 157 636 c 0
 225 636 297 648 297 648 c 1
 299 641 l 1
 292 604 l 1
 214 599 202 590 202 559 c 0
 202 503 265 93 265 93 c 1
 271 93 l 1
 331 223 393 348 456 480 c 1
 450 496 448 517 445 536 c 0
 436 577 411 593 364 595 c 1
 363 599 l 1
 375 639 l 1
 375 639 450 636 481 636 c 0
 538 636 621 648 621 648 c 1
 622 641 l 1
 614 604 l 1
 535 598 524 590 524 560 c 0
 524 512 588 93 588 93 c 1
 594 93 l 1
 659 231 809 539 809 568 c 0
 809 590 790 599 747 599 c 2
 699 599 l 1
 697 603 l 1
 709 644 l 1
 709 644 780 636 841 636 c 0
 884 636 942 640 942 640 c 1
 930 595 l 1
 893 593 881 586 862 547 c 2
 592 5 l 1
683 787 m 1
 679 777 l 1
 679 777 578 743 473 703 c 1
 465 708 l 1
 459 732 l 1
 553 781 658 841 658 841 c 1
 667 835 l 1
 683 787 l 1
EndSplineSet
Validated: 1
EndChar

StartChar: Wcircumflex
Encoding: 372 372 112
Width: 897
Flags: MW
HStem: -17 21G<213 213 535 535> 826 20G<528 542 542 542>
LayerCount: 2
Back
Fore
SplineSet
592 5 m 1
 535 -17 l 1
 467 415 l 1
 461 415 l 1
 272 5 l 1
 213 -17 l 1
 213 -17 170 270 121 538 c 0
 114 576 90 594 42 595 c 1
 40 599 l 1
 51 639 l 1
 51 639 127 636 157 636 c 0
 225 636 297 648 297 648 c 1
 299 641 l 1
 292 604 l 1
 214 599 202 590 202 559 c 0
 202 503 265 93 265 93 c 1
 271 93 l 1
 331 223 393 348 456 480 c 1
 450 496 448 517 445 536 c 0
 436 577 411 593 364 595 c 1
 363 599 l 1
 375 639 l 1
 375 639 450 636 481 636 c 0
 538 636 621 648 621 648 c 1
 622 641 l 1
 614 604 l 1
 535 598 524 590 524 560 c 0
 524 512 588 93 588 93 c 1
 594 93 l 1
 659 231 809 539 809 568 c 0
 809 590 790 599 747 599 c 2
 699 599 l 1
 697 603 l 1
 709 644 l 1
 709 644 780 636 841 636 c 0
 884 636 942 640 942 640 c 1
 930 595 l 1
 893 593 881 586 862 547 c 2
 592 5 l 1
392 713 m 1
 381 735 l 1
 528 846 l 1
 542 846 l 1
 662 735 l 1
 645 713 l 1
 636 712 l 1
 526 777 l 1
 401 712 l 1
 392 713 l 1
EndSplineSet
Validated: 1
EndChar

StartChar: Wdieresis
Encoding: 7812 7812 113
Width: 897
Flags: MW
HStem: -17 21G<213 213 535 535> 604 214<292 467 614 614> 725 93<439.5 450.5 600 610.5>
LayerCount: 2
Back
Fore
SplineSet
592 5 m 1xc0
 535 -17 l 1
 467 415 l 1
 461 415 l 1
 272 5 l 1
 213 -17 l 1
 213 -17 170 270 121 538 c 0
 114 576 90 594 42 595 c 1
 40 599 l 1
 51 639 l 1
 51 639 127 636 157 636 c 0
 225 636 297 648 297 648 c 1
 299 641 l 1
 292 604 l 1
 214 599 202 590 202 559 c 0
 202 503 265 93 265 93 c 1
 271 93 l 1
 331 223 393 348 456 480 c 1
 450 496 448 517 445 536 c 0
 436 577 411 593 364 595 c 1
 363 599 l 1
 375 639 l 1
 375 639 450 636 481 636 c 0
 538 636 621 648 621 648 c 1
 622 641 l 1
 614 604 l 1
 535 598 524 590 524 560 c 0
 524 512 588 93 588 93 c 1
 594 93 l 1
 659 231 809 539 809 568 c 0
 809 590 790 599 747 599 c 2
 699 599 l 1
 697 603 l 1
 709 644 l 1
 709 644 780 636 841 636 c 0
 884 636 942 640 942 640 c 1
 930 595 l 1
 893 593 881 586 862 547 c 2
 592 5 l 1xc0
595 725 m 0xa0
 571 725 560 744 560 763 c 0
 560 792 585 818 615 818 c 0
 639 818 651 800 651 780 c 0
 651 751 626 725 595 725 c 0xa0
435 725 m 0
 411 725 400 744 400 763 c 0
 400 792 424 818 455 818 c 0
 479 818 491 800 491 780 c 0
 491 751 466 725 435 725 c 0
EndSplineSet
Validated: 1
EndChar

StartChar: Wgrave
Encoding: 7808 7808 114
Width: 897
Flags: MW
HStem: -17 21G<213 213 535 535> 821 20G<401 401>
LayerCount: 2
Back
Fore
SplineSet
592 5 m 1
 535 -17 l 1
 467 415 l 1
 461 415 l 1
 272 5 l 1
 213 -17 l 1
 213 -17 170 270 121 538 c 0
 114 576 90 594 42 595 c 1
 40 599 l 1
 51 639 l 1
 51 639 127 636 157 636 c 0
 225 636 297 648 297 648 c 1
 299 641 l 1
 292 604 l 1
 214 599 202 590 202 559 c 0
 202 503 265 93 265 93 c 1
 271 93 l 1
 331 223 393 348 456 480 c 1
 450 496 448 517 445 536 c 0
 436 577 411 593 364 595 c 1
 363 599 l 1
 375 639 l 1
 375 639 450 636 481 636 c 0
 538 636 621 648 621 648 c 1
 622 641 l 1
 614 604 l 1
 535 598 524 590 524 560 c 0
 524 512 588 93 588 93 c 1
 594 93 l 1
 659 231 809 539 809 568 c 0
 809 590 790 599 747 599 c 2
 699 599 l 1
 697 603 l 1
 709 644 l 1
 709 644 780 636 841 636 c 0
 884 636 942 640 942 640 c 1
 930 595 l 1
 893 593 881 586 862 547 c 2
 592 5 l 1
380 777 m 1
 376 787 l 1
 392 835 l 1
 401 841 l 1
 401 841 506 781 600 732 c 1
 594 708 l 1
 586 703 l 1
 481 743 380 777 380 777 c 1
EndSplineSet
Validated: 1
EndChar

StartChar: X
Encoding: 88 88 115
Width: 627
Flags: MW
HStem: -8 21G<323 323> 0 21G<64 100 444 493> 624 20G<451.5 452> 625 20G<344 344>
LayerCount: 2
Back
Fore
SplineSet
170 180 m 2x60
 293 316 l 1
 190 517 l 2
 165 565 127 592 68 600 c 1
 68 604 l 1
 77 640 l 1
 77 640 172 636 214 636 c 0
 291 636 344 645 344 645 c 1x50
 346 638 l 1
 339 605 l 1
 282 601 258 590 258 568 c 0
 258 550 292 476 342 374 c 1
 394 438 497 547 497 576 c 0
 497 592 480 599 444 603 c 0
 444 604 443 606 443 607 c 2
 452 644 l 2
 451 644 522 636 557 636 c 0
 594 636 649 640 649 640 c 1
 652 634 l 1
 642 599 l 1
 583 589 561 565 499 496 c 2
 362 342 l 1
 478 124 l 2
 506 72 539 47 600 41 c 1
 589 -3 l 1
 589 -3 515 0 471 0 c 0x60
 417 0 323 -8 323 -8 c 1xa0
 321 -1 l 1
 329 35 l 1
 384 38 410 49 410 74 c 0
 410 85 404 99 396 116 c 2
 313 284 l 1
 205 159 l 2
 154 100 144 84 144 64 c 0
 144 48 160 40 196 37 c 1
 198 34 l 1
 186 -7 l 1
 186 -7 118 0 82 0 c 0
 46 0 -11 -4 -11 -4 c 1
 -14 3 l 1
 -4 41 l 1
 56 59 102 105 170 180 c 2x60
EndSplineSet
Validated: 37
EndChar

StartChar: Y
Encoding: 89 89 116
Width: 512
Flags: MW
HStem: -12 21G<110 110> 0 41 624 20G<387.5 388> 625 20G<279 279>
LayerCount: 2
Back
Fore
SplineSet
195 567 m 0x90
 195 531 272 302 272 304 c 2
 276 304 l 1
 415 522 l 2
 428 542 436 562 436 575 c 0
 436 591 418 600 379 603 c 1
 377 607 l 1
 388 644 l 2
 387 644 457 636 492 636 c 0
 529 636 581 640 581 640 c 1
 584 634 l 1
 573 599 l 1
 505 587 496 566 431 469 c 2
 314 294 l 2
 287 257 286 223 270 110 c 0
 263 58 268 41 303 41 c 0
 322 41 350 44 350 44 c 1
 352 40 l 1
 338 -3 l 1
 338 -3 260 0 219 0 c 0x60
 171 0 110 -12 110 -12 c 1
 121 31 l 1
 191 46 201 66 209 141 c 2
 214 186 l 2
 218 226 218 252 200 301 c 2
 137 483 l 2
 108 567 106 593 30 600 c 1
 28 604 l 1
 39 640 l 1
 39 640 98 636 142 636 c 0
 197 636 279 645 279 645 c 1
 281 638 l 1
 273 605 l 1
 207 599 195 591 195 567 c 0x90
EndSplineSet
Validated: 37
EndChar

StartChar: Yacute
Encoding: 221 221 117
Width: 520
Flags: MW
HStem: -12 21G<110 110> 0 41 624 20G<387.5 388> 821 20G<477 477>
LayerCount: 2
Back
Fore
SplineSet
195 567 m 0xb0
 195 531 272 302 272 304 c 2
 276 304 l 1
 415 522 l 2
 428 542 436 562 436 575 c 0
 436 591 418 600 379 603 c 1
 377 607 l 1
 388 644 l 2
 387 644 457 636 492 636 c 0
 529 636 581 640 581 640 c 1
 584 634 l 1
 573 599 l 1
 505 587 496 566 431 469 c 2
 314 294 l 2
 287 257 286 223 270 110 c 0
 263 58 268 41 303 41 c 0
 322 41 350 44 350 44 c 1
 352 40 l 1
 338 -3 l 1
 338 -3 260 0 219 0 c 0x70
 171 0 110 -12 110 -12 c 1
 121 31 l 1
 191 46 201 66 209 141 c 2
 214 186 l 2
 218 226 218 252 200 301 c 2
 137 483 l 2
 108 567 106 593 30 600 c 1
 28 604 l 1
 39 640 l 1
 39 640 98 636 142 636 c 0
 197 636 279 645 279 645 c 1
 281 638 l 1
 273 605 l 1
 207 599 195 591 195 567 c 0xb0
502 787 m 1
 498 777 l 1
 498 777 397 743 292 703 c 1
 284 708 l 1
 278 732 l 1
 372 781 477 841 477 841 c 1
 486 835 l 1
 502 787 l 1
EndSplineSet
Validated: 37
EndChar

StartChar: Ycircumflex
Encoding: 374 374 118
Width: 520
Flags: MW
HStem: -12 21G<110 110> 0 41 624 20G<387.5 388> 826 20G<347 361 361 361>
LayerCount: 2
Back
Fore
SplineSet
195 567 m 0xb0
 195 531 272 302 272 304 c 2
 276 304 l 1
 415 522 l 2
 428 542 436 562 436 575 c 0
 436 591 418 600 379 603 c 1
 377 607 l 1
 388 644 l 2
 387 644 457 636 492 636 c 0
 529 636 581 640 581 640 c 1
 584 634 l 1
 573 599 l 1
 505 587 496 566 431 469 c 2
 314 294 l 2
 287 257 286 223 270 110 c 0
 263 58 268 41 303 41 c 0
 322 41 350 44 350 44 c 1
 352 40 l 1
 338 -3 l 1
 338 -3 260 0 219 0 c 0x70
 171 0 110 -12 110 -12 c 1
 121 31 l 1
 191 46 201 66 209 141 c 2
 214 186 l 2
 218 226 218 252 200 301 c 2
 137 483 l 2
 108 567 106 593 30 600 c 1
 28 604 l 1
 39 640 l 1
 39 640 98 636 142 636 c 0
 197 636 279 645 279 645 c 1
 281 638 l 1
 273 605 l 1
 207 599 195 591 195 567 c 0xb0
211 713 m 1
 200 735 l 1
 347 846 l 1
 361 846 l 1
 481 735 l 1
 464 713 l 1
 455 712 l 1
 345 777 l 1
 220 712 l 1
 211 713 l 1
EndSplineSet
Validated: 37
EndChar

StartChar: Ydieresis
Encoding: 376 376 119
Width: 520
Flags: MW
HStem: -12 21G<110 110> 0 41 624 20G<387.5 388> 725 93<258.5 269.5 419 429.5>
LayerCount: 2
Back
Fore
SplineSet
195 567 m 0xb0
 195 531 272 302 272 304 c 2
 276 304 l 1
 415 522 l 2
 428 542 436 562 436 575 c 0
 436 591 418 600 379 603 c 1
 377 607 l 1
 388 644 l 2
 387 644 457 636 492 636 c 0
 529 636 581 640 581 640 c 1
 584 634 l 1
 573 599 l 1
 505 587 496 566 431 469 c 2
 314 294 l 2
 287 257 286 223 270 110 c 0
 263 58 268 41 303 41 c 0
 322 41 350 44 350 44 c 1
 352 40 l 1
 338 -3 l 1
 338 -3 260 0 219 0 c 0x70
 171 0 110 -12 110 -12 c 1
 121 31 l 1
 191 46 201 66 209 141 c 2
 214 186 l 2
 218 226 218 252 200 301 c 2
 137 483 l 2
 108 567 106 593 30 600 c 1
 28 604 l 1
 39 640 l 1
 39 640 98 636 142 636 c 0
 197 636 279 645 279 645 c 1
 281 638 l 1
 273 605 l 1
 207 599 195 591 195 567 c 0xb0
414 725 m 0
 390 725 379 744 379 763 c 0
 379 792 404 818 434 818 c 0
 458 818 470 800 470 780 c 0
 470 751 445 725 414 725 c 0
254 725 m 0
 230 725 219 744 219 763 c 0
 219 792 243 818 274 818 c 0
 298 818 310 800 310 780 c 0
 310 751 285 725 254 725 c 0
EndSplineSet
Validated: 37
EndChar

StartChar: Ygrave
Encoding: 7922 7922 120
Width: 520
Flags: MW
HStem: -12 21G<110 110> 0 41 624 20G<387.5 388> 821 20G<220 220>
LayerCount: 2
Back
Fore
SplineSet
195 567 m 0xb0
 195 531 272 302 272 304 c 2
 276 304 l 1
 415 522 l 2
 428 542 436 562 436 575 c 0
 436 591 418 600 379 603 c 1
 377 607 l 1
 388 644 l 2
 387 644 457 636 492 636 c 0
 529 636 581 640 581 640 c 1
 584 634 l 1
 573 599 l 1
 505 587 496 566 431 469 c 2
 314 294 l 2
 287 257 286 223 270 110 c 0
 263 58 268 41 303 41 c 0
 322 41 350 44 350 44 c 1
 352 40 l 1
 338 -3 l 1
 338 -3 260 0 219 0 c 0x70
 171 0 110 -12 110 -12 c 1
 121 31 l 1
 191 46 201 66 209 141 c 2
 214 186 l 2
 218 226 218 252 200 301 c 2
 137 483 l 2
 108 567 106 593 30 600 c 1
 28 604 l 1
 39 640 l 1
 39 640 98 636 142 636 c 0
 197 636 279 645 279 645 c 1
 281 638 l 1
 273 605 l 1
 207 599 195 591 195 567 c 0xb0
199 777 m 1
 195 787 l 1
 211 835 l 1
 220 841 l 1
 220 841 325 781 419 732 c 1
 413 708 l 1
 405 703 l 1
 300 743 199 777 199 777 c 1
EndSplineSet
Validated: 37
EndChar

StartChar: Z
Encoding: 90 90 121
Width: 544
Flags: MW
HStem: -3 21G<18 18 431 431> 593 40 628 20G<130 130>
LayerCount: 2
Back
Fore
SplineSet
447 13 m 1xc0
 431 -3 l 1
 87 3 l 1
 18 -3 l 1
 10 28 l 1
 439 596 l 1
 269 590 l 2
 181 588 145 553 122 451 c 1
 78 447 l 1
 78 447 106 548 119 639 c 1
 130 648 l 1xa0
 297 637 l 1
 541 630 l 1
 548 602 l 1
 334 348 155 103 106 36 c 1
 305 43 l 2
 371 44 417 95 453 210 c 1
 496 215 l 1
 496 215 463 108 447 13 c 1xc0
EndSplineSet
Validated: 1
EndChar

StartChar: Zacute
Encoding: 377 377 122
Width: 546
Flags: MW
HStem: -3 21G<18 18 431 431> 593 40 821 20G<484 484>
LayerCount: 2
Back
Fore
SplineSet
447 13 m 1
 431 -3 l 1
 87 3 l 1
 18 -3 l 1
 10 28 l 1
 439 596 l 1
 269 590 l 2
 181 588 145 553 122 451 c 1
 78 447 l 1
 78 447 106 548 119 639 c 1
 130 648 l 1
 297 637 l 1
 541 630 l 1
 548 602 l 1
 334 348 155 103 106 36 c 1
 305 43 l 2
 371 44 417 95 453 210 c 1
 496 215 l 1
 496 215 463 108 447 13 c 1
509 787 m 1
 505 777 l 1
 505 777 404 743 299 703 c 1
 291 708 l 1
 285 732 l 1
 379 781 484 841 484 841 c 1
 493 835 l 1
 509 787 l 1
EndSplineSet
Validated: 1
EndChar

StartChar: Zcaron
Encoding: 381 381 123
Width: 546
Flags: MW
HStem: -3 21G<18 18 431 431> 593 40 818 20G<243 243 477 477>
LayerCount: 2
Back
Fore
SplineSet
447 13 m 1
 431 -3 l 1
 87 3 l 1
 18 -3 l 1
 10 28 l 1
 439 596 l 1
 269 590 l 2
 181 588 145 553 122 451 c 1
 78 447 l 1
 78 447 106 548 119 639 c 1
 130 648 l 1
 297 637 l 1
 541 630 l 1
 548 602 l 1
 334 348 155 103 106 36 c 1
 305 43 l 2
 371 44 417 95 453 210 c 1
 496 215 l 1
 496 215 463 108 447 13 c 1
486 837 m 1
 498 815 l 1
 350 704 l 1
 337 704 l 1
 217 815 l 1
 233 837 l 1
 243 838 l 1
 352 773 l 1
 477 838 l 1
 486 837 l 1
EndSplineSet
Validated: 1
EndChar

StartChar: Zdotaccent
Encoding: 379 379 124
Width: 546
Flags: MW
HStem: -3 21G<18 18 431 431> 593 40 719 110<345.5 359>
LayerCount: 2
Back
Fore
SplineSet
447 13 m 1
 431 -3 l 1
 87 3 l 1
 18 -3 l 1
 10 28 l 1
 439 596 l 1
 269 590 l 2
 181 588 145 553 122 451 c 1
 78 447 l 1
 78 447 106 548 119 639 c 1
 130 648 l 1
 297 637 l 1
 541 630 l 1
 548 602 l 1
 334 348 155 103 106 36 c 1
 305 43 l 2
 371 44 417 95 453 210 c 1
 496 215 l 1
 496 215 463 108 447 13 c 1
341 719 m 0
 311 719 298 741 298 764 c 0
 298 799 327 829 364 829 c 0
 392 829 406 807 406 784 c 0
 406 749 377 719 341 719 c 0
EndSplineSet
Validated: 1
EndChar

StartChar: a
Encoding: 97 97 125
Width: 461
Flags: MW
HStem: -12 81<86.5 149.5> 406 54<205 243.5> 450 20G<375 375>
VStem: 32 70<144 206>
LayerCount: 2
Back
Fore
SplineSet
331 64 m 1xb0
 334 60 l 1
 344 60 353 67 413 119 c 1
 425 118 l 1
 438 94 l 1
 357 17 319 -12 298 -12 c 0
 274 -12 262 -2 262 17 c 0
 262 41 305 225 305 225 c 1
 299 227 l 1
 234 107 176 33 112 -12 c 1
 61 -12 32 38 32 124 c 0
 32 288 149 460 261 460 c 1xd0
 361 444 l 1
 370 469 l 1
 375 470 l 1
 406 455 l 1
 414 443 l 1
 414 443 357 250 331 64 c 1xb0
131 69 m 0
 168 69 258 206 331 373 c 1
 298 393 257 406 230 406 c 0
 165 406 102 292 102 173 c 0
 102 115 115 69 131 69 c 0
EndSplineSet
Validated: 1
EndChar

StartChar: aacute
Encoding: 225 225 126
Width: 461
Flags: MW
HStem: -12 81<86.5 149.5> 406 54<205 243.5> 695 20G<354 354>
VStem: 32 70<144 206>
LayerCount: 2
Back
Fore
SplineSet
331 64 m 1
 334 60 l 1
 344 60 353 67 413 119 c 1
 425 118 l 1
 438 94 l 1
 357 17 319 -12 298 -12 c 0
 274 -12 262 -2 262 17 c 0
 262 41 305 225 305 225 c 1
 299 227 l 1
 234 107 176 33 112 -12 c 1
 61 -12 32 38 32 124 c 0
 32 288 149 460 261 460 c 1
 361 444 l 1
 370 469 l 1
 375 470 l 1
 406 455 l 1
 414 443 l 1
 414 443 357 250 331 64 c 1
131 69 m 0
 168 69 258 206 331 373 c 1
 298 393 257 406 230 406 c 0
 165 406 102 292 102 173 c 0
 102 115 115 69 131 69 c 0
402 672 m 1
 401 661 l 1
 401 661 317 597 233 521 c 1
 224 523 l 1
 204 542 l 1
 276 620 354 715 354 715 c 1
 364 713 l 1
 402 672 l 1
EndSplineSet
Validated: 1
EndChar

StartChar: acute
Encoding: 180 180 127
Width: 382
Flags: MW
HStem: 521 21G 695 20G<318 318>
LayerCount: 2
Back
Fore
SplineSet
366 672 m 1
 365 661 l 1
 365 661 281 597 197 521 c 1
 188 523 l 1
 168 542 l 1
 240 620 318 715 318 715 c 1
 328 713 l 1
 366 672 l 1
EndSplineSet
Validated: 1
EndChar

StartChar: abreve
Encoding: 259 259 128
Width: 461
Flags: MW
HStem: -12 81<86.5 149.5> 406 54<205 243.5> 558 58<260.5 301 260.5 307.5> 662 20G<188 196 196 196 381 390 390 390>
VStem: 32 70<144 206>
LayerCount: 2
Back
Fore
SplineSet
331 64 m 1
 334 60 l 1
 344 60 353 67 413 119 c 1
 425 118 l 1
 438 94 l 1
 357 17 319 -12 298 -12 c 0
 274 -12 262 -2 262 17 c 0
 262 41 305 225 305 225 c 1
 299 227 l 1
 234 107 176 33 112 -12 c 1
 61 -12 32 38 32 124 c 0
 32 288 149 460 261 460 c 1
 361 444 l 1
 370 469 l 1
 375 470 l 1
 406 455 l 1
 414 443 l 1
 414 443 357 250 331 64 c 1
131 69 m 0
 168 69 258 206 331 373 c 1
 298 393 257 406 230 406 c 0
 165 406 102 292 102 173 c 0
 102 115 115 69 131 69 c 0
281 616 m 0
 321 616 360 638 381 682 c 1
 390 682 l 1
 404 672 l 1
 384 615 341 558 274 558 c 0
 206 558 177 615 171 672 c 1
 188 682 l 1
 196 682 l 1
 207 638 240 616 281 616 c 0
EndSplineSet
Validated: 1
EndChar

StartChar: breve
Encoding: 728 728 129
Width: 382
Flags: MW
HStem: 558 58<219.5 260 219.5 266.5> 662 20G<147 155 155 155 340 349 349 349>
LayerCount: 2
Back
Fore
SplineSet
240 616 m 0
 280 616 319 638 340 682 c 1
 349 682 l 1
 363 672 l 1
 343 615 300 558 233 558 c 0
 165 558 136 615 130 672 c 1
 147 682 l 1
 155 682 l 1
 166 638 199 616 240 616 c 0
EndSplineSet
Validated: 1
EndChar

StartChar: acircumflex
Encoding: 226 226 130
Width: 461
Flags: MW
HStem: -12 81<86.5 149.5> 406 54<205 243.5> 683 20G<282 296 296 296>
VStem: 32 70<144 206>
LayerCount: 2
Back
Fore
SplineSet
331 64 m 1
 334 60 l 1
 344 60 353 67 413 119 c 1
 425 118 l 1
 438 94 l 1
 357 17 319 -12 298 -12 c 0
 274 -12 262 -2 262 17 c 0
 262 41 305 225 305 225 c 1
 299 227 l 1
 234 107 176 33 112 -12 c 1
 61 -12 32 38 32 124 c 0
 32 288 149 460 261 460 c 1
 361 444 l 1
 370 469 l 1
 375 470 l 1
 406 455 l 1
 414 443 l 1
 414 443 357 250 331 64 c 1
131 69 m 0
 168 69 258 206 331 373 c 1
 298 393 257 406 230 406 c 0
 165 406 102 292 102 173 c 0
 102 115 115 69 131 69 c 0
142 528 m 1
 130 550 l 1
 282 703 l 1
 296 703 l 1
 411 550 l 1
 394 528 l 1
 385 527 l 1
 280 624 l 1
 151 527 l 1
 142 528 l 1
EndSplineSet
Validated: 1
EndChar

StartChar: circumflex
Encoding: 710 710 131
Width: 382
Flags: MW
HStem: 527 21G<112 112 346 346> 683 20G<243 257 257 257>
LayerCount: 2
Back
Fore
SplineSet
103 528 m 1
 91 550 l 1
 243 703 l 1
 257 703 l 1
 372 550 l 1
 355 528 l 1
 346 527 l 1
 241 624 l 1
 112 527 l 1
 103 528 l 1
EndSplineSet
Validated: 1
EndChar

StartChar: adieresis
Encoding: 228 228 132
Width: 461
Flags: MW
HStem: -12 81<86.5 149.5> 406 54<205 243.5> 566 93<201.5 212.5 361.5 372.5>
VStem: 32 70<144 206>
LayerCount: 2
Back
Fore
SplineSet
331 64 m 1
 334 60 l 1
 344 60 353 67 413 119 c 1
 425 118 l 1
 438 94 l 1
 357 17 319 -12 298 -12 c 0
 274 -12 262 -2 262 17 c 0
 262 41 305 225 305 225 c 1
 299 227 l 1
 234 107 176 33 112 -12 c 1
 61 -12 32 38 32 124 c 0
 32 288 149 460 261 460 c 1
 361 444 l 1
 370 469 l 1
 375 470 l 1
 406 455 l 1
 414 443 l 1
 414 443 357 250 331 64 c 1
131 69 m 0
 168 69 258 206 331 373 c 1
 298 393 257 406 230 406 c 0
 165 406 102 292 102 173 c 0
 102 115 115 69 131 69 c 0
357 566 m 0
 333 566 321 585 321 604 c 0
 321 633 346 659 377 659 c 0
 401 659 412 641 412 621 c 0
 412 592 388 566 357 566 c 0
197 566 m 0
 173 566 161 585 161 604 c 0
 161 633 186 659 217 659 c 0
 241 659 252 641 252 621 c 0
 252 592 228 566 197 566 c 0
EndSplineSet
Validated: 1
EndChar

StartChar: dieresis
Encoding: 168 168 133
Width: 382
Flags: MW
HStem: 566 93<153.5 164.5 313.5 324.5>
LayerCount: 2
Back
Fore
SplineSet
309 566 m 0
 285 566 273 585 273 604 c 0
 273 633 298 659 329 659 c 0
 353 659 364 641 364 621 c 0
 364 592 340 566 309 566 c 0
149 566 m 0
 125 566 113 585 113 604 c 0
 113 633 138 659 169 659 c 0
 193 659 204 641 204 621 c 0
 204 592 180 566 149 566 c 0
EndSplineSet
Validated: 1
EndChar

StartChar: agrave
Encoding: 224 224 134
Width: 461
Flags: MW
HStem: -12 81<86.5 149.5> 406 54<205 243.5> 694 20G<203 203>
VStem: 32 70<144 206>
LayerCount: 2
Back
Fore
SplineSet
331 64 m 1
 334 60 l 1
 344 60 353 67 413 119 c 1
 425 118 l 1
 438 94 l 1
 357 17 319 -12 298 -12 c 0
 274 -12 262 -2 262 17 c 0
 262 41 305 225 305 225 c 1
 299 227 l 1
 234 107 176 33 112 -12 c 1
 61 -12 32 38 32 124 c 0
 32 288 149 460 261 460 c 1
 361 444 l 1
 370 469 l 1
 375 470 l 1
 406 455 l 1
 414 443 l 1
 414 443 357 250 331 64 c 1
131 69 m 0
 168 69 258 206 331 373 c 1
 298 393 257 406 230 406 c 0
 165 406 102 292 102 173 c 0
 102 115 115 69 131 69 c 0
156 660 m 1
 155 671 l 1
 193 712 l 1
 203 714 l 1
 203 714 281 620 353 542 c 1
 333 523 l 1
 324 521 l 1
 240 597 156 660 156 660 c 1
EndSplineSet
Validated: 1
EndChar

StartChar: grave
Encoding: 96 96 135
Width: 382
Flags: MW
HStem: 521 21G 694 20G<162 162>
LayerCount: 2
Back
Fore
SplineSet
115 660 m 1
 114 671 l 1
 152 712 l 1
 162 714 l 1
 162 714 240 620 312 542 c 1
 292 523 l 1
 283 521 l 1
 199 597 115 660 115 660 c 1
EndSplineSet
Validated: 1
EndChar

StartChar: amacron
Encoding: 257 257 136
Width: 461
Flags: MW
HStem: -12 81<86.5 149.5> 406 54<205 243.5> 595 52<267.5 276> 633 20G<421 421>
VStem: 32 70<144 206>
LayerCount: 2
Back
Fore
SplineSet
331 64 m 1xd8
 334 60 l 1
 344 60 353 67 413 119 c 1
 425 118 l 1
 438 94 l 1
 357 17 319 -12 298 -12 c 0
 274 -12 262 -2 262 17 c 0
 262 41 305 225 305 225 c 1
 299 227 l 1
 234 107 176 33 112 -12 c 1
 61 -12 32 38 32 124 c 0
 32 288 149 460 261 460 c 1
 361 444 l 1
 370 469 l 1
 375 470 l 1
 406 455 l 1
 414 443 l 1
 414 443 357 250 331 64 c 1xd8
131 69 m 0
 168 69 258 206 331 373 c 1
 298 393 257 406 230 406 c 0
 165 406 102 292 102 173 c 0
 102 115 115 69 131 69 c 0
421 653 m 1
 425 643 l 1
 412 596 l 1
 276 595 l 2
 219 595 138 594 138 594 c 1
 133 603 l 1
 148 648 l 1
 148 648 239 647 296 647 c 0xe8
 344 647 421 653 421 653 c 1
EndSplineSet
Validated: 1
EndChar

StartChar: macron
Encoding: 175 175 137
Width: 382
Flags: MW
HStem: 594 21G<100 100> 595 52<229.5 238> 633 20G<383 383>
LayerCount: 2
Back
Fore
SplineSet
383 653 m 1xa0
 387 643 l 1
 374 596 l 1
 238 595 l 2x40
 181 595 100 594 100 594 c 1xa0
 95 603 l 1
 110 648 l 1
 110 648 201 647 258 647 c 0x40
 306 647 383 653 383 653 c 1xa0
EndSplineSet
Validated: 1
EndChar

StartChar: aogonek
Encoding: 261 261 138
Width: 461
Flags: MW
HStem: -241 59<252.5 316.5> -12 21G<86.5 112> 406 54<205 243.5> 450 20G<375 375>
VStem: 32 70<144 206>
LayerCount: 2
Back
Fore
SplineSet
375 -159 m 1xd8
 385 -178 l 1
 385 -178 332 -224 281 -241 c 1
 224 -241 185 -211 185 -158 c 0
 185 -109 227 -63 283 -10 c 1
 269 -7 262 2 262 17 c 0
 262 41 305 225 305 225 c 1
 299 227 l 1
 234 107 176 33 112 -12 c 1
 61 -12 32 38 32 124 c 0
 32 288 149 460 261 460 c 1xe8
 361 444 l 1
 370 469 l 1
 375 470 l 1
 406 455 l 1
 414 443 l 1
 414 443 357 250 331 64 c 1
 334 60 l 1
 344 60 353 67 413 119 c 1
 425 118 l 1
 441 90 l 1
 301 -28 249 -76 249 -134 c 0
 249 -162 268 -182 298 -182 c 0
 335 -182 375 -159 375 -159 c 1xd8
131 69 m 0
 168 69 258 206 331 373 c 1
 298 393 257 406 230 406 c 0
 165 406 102 292 102 173 c 0
 102 115 115 69 131 69 c 0
EndSplineSet
Validated: 1
EndChar

StartChar: aring
Encoding: 229 229 139
Width: 461
Flags: MW
HStem: -12 81<86.5 149.5> 406 54<205 243.5> 406 176<197.5 264.5> 544 164<246 273.5>
VStem: 32 70<144 206>
LayerCount: 2
Back
Fore
SplineSet
331 64 m 1xd8
 334 60 l 1
 344 60 353 67 413 119 c 1
 425 118 l 1
 438 94 l 1
 357 17 319 -12 298 -12 c 0
 274 -12 262 -2 262 17 c 0
 262 41 305 225 305 225 c 1
 299 227 l 1
 234 107 176 33 112 -12 c 1
 61 -12 32 38 32 124 c 0
 32 288 149 460 261 460 c 1
 361 444 l 1
 370 469 l 1
 375 470 l 1
 406 455 l 1
 414 443 l 1
 414 443 357 250 331 64 c 1xd8
131 69 m 0
 168 69 258 206 331 373 c 1
 298 393 257 406 230 406 c 0
 165 406 102 292 102 173 c 0
 102 115 115 69 131 69 c 0
256 582 m 0xa8
 273 582 304 587 304 627 c 0
 304 652 289 669 260 669 c 0
 230 669 213 651 213 624 c 0
 213 594 238 582 256 582 c 0xa8
245 544 m 0xd8
 202 544 180 572 180 612 c 0
 180 667 219 708 273 708 c 0
 321 708 339 676 339 642 c 0
 339 592 302 544 245 544 c 0xd8
EndSplineSet
Validated: 1
EndChar

StartChar: ring
Encoding: 730 730 140
Width: 382
Flags: MW
HStem: 544 164<227 254.5>
LayerCount: 2
Back
Fore
SplineSet
237 582 m 0
 254 582 285 587 285 627 c 0
 285 652 270 669 241 669 c 0
 211 669 194 651 194 624 c 0
 194 594 219 582 237 582 c 0
226 544 m 0
 183 544 161 572 161 612 c 0
 161 667 200 708 254 708 c 0
 302 708 320 676 320 642 c 0
 320 592 283 544 226 544 c 0
EndSplineSet
Validated: 1
EndChar

StartChar: atilde
Encoding: 227 227 141
Width: 461
Flags: MW
HStem: -12 81<86.5 149.5> 406 54<205 243.5> 573 64<347.5 353> 606 64<224 230.5> 672 20G<428 434 434 434>
VStem: 32 70<144 206>
LayerCount: 2
Back
Fore
SplineSet
331 64 m 1xdc
 334 60 l 1
 344 60 353 67 413 119 c 1
 425 118 l 1
 438 94 l 1
 357 17 319 -12 298 -12 c 0
 274 -12 262 -2 262 17 c 0
 262 41 305 225 305 225 c 1
 299 227 l 1
 234 107 176 33 112 -12 c 1
 61 -12 32 38 32 124 c 0
 32 288 149 460 261 460 c 1
 361 444 l 1
 370 469 l 1
 375 470 l 1
 406 455 l 1
 414 443 l 1
 414 443 357 250 331 64 c 1xdc
131 69 m 0
 168 69 258 206 331 373 c 1
 298 393 257 406 230 406 c 0
 165 406 102 292 102 173 c 0
 102 115 115 69 131 69 c 0
150 551 m 1
 143 551 l 1
 124 572 l 1
 125 577 l 1
 209 666 l 1
 224 670 l 1xdc
 256 670 334 637 361 637 c 0
 383 637 428 692 428 692 c 1
 434 692 l 1
 454 671 l 1
 453 666 l 1
 369 577 l 1
 353 573 l 1xec
 321 573 244 606 217 606 c 0
 194 606 150 551 150 551 c 1
EndSplineSet
Validated: 1
EndChar

StartChar: tilde
Encoding: 732 732 142
Width: 382
Flags: MW
HStem: 551 21G<76 102 76 95> 573 64<299.5 305> 606 64<176 182.5> 672 20G<380 386 386 386>
LayerCount: 2
Back
Fore
SplineSet
102 551 m 1xb0
 95 551 l 1
 76 572 l 1
 77 577 l 1
 161 666 l 1
 176 670 l 1xb0
 208 670 286 637 313 637 c 0
 335 637 380 692 380 692 c 1
 386 692 l 1
 406 671 l 1
 405 666 l 1
 321 577 l 1
 305 573 l 1xd0
 273 573 196 606 169 606 c 0
 146 606 102 551 102 551 c 1xb0
EndSplineSet
Validated: 1
EndChar

StartChar: b
Encoding: 98 98 143
Width: 453
Flags: MW
HStem: -8 54<220 253> 381 83<289.5 348> 713 20G<233 233>
LayerCount: 2
Back
Fore
SplineSet
57 35 m 1
 57 35 149 609 149 650 c 0
 149 677 137 689 107 689 c 2
 66 689 l 1
 72 727 l 1
 133 727 233 733 233 733 c 1
 242 721 l 1
 242 721 178 452 141 202 c 1
 144 200 l 1
 209 340 258 415 318 464 c 1
 378 464 420 400 420 307 c 0
 420 144 311 -8 195 -8 c 0
 125 -8 67 16 67 16 c 1
 57 35 l 1
305 381 m 0
 274 381 204 262 121 69 c 1
 154 57 207 46 233 46 c 0
 293 46 351 150 351 259 c 0
 351 323 329 381 305 381 c 0
EndSplineSet
Validated: 1
EndChar

StartChar: c
Encoding: 99 99 144
Width: 344
Flags: MW
HStem: -12 59<152 178.5> 405 59<203 242.5>
VStem: 34 70<141.5 231.5>
LayerCount: 2
Back
Fore
SplineSet
229 405 m 0
 166 405 104 295 104 183 c 0
 104 100 131 47 173 47 c 0
 213 47 258 83 282 134 c 1
 296 133 l 1
 311 109 l 1
 273 38 207 -12 150 -12 c 0
 78 -12 34 51 34 153 c 0
 34 310 146 464 260 464 c 0
 294 464 326 456 345 443 c 1
 350 432 l 1
 316 365 l 1
 302 362 l 1
 281 391 256 405 229 405 c 0
EndSplineSet
Validated: 1
EndChar

StartChar: cacute
Encoding: 263 263 145
Width: 344
Flags: MW
HStem: -12 59<152 178.5> 405 59<203 242.5> 695 20G<344 344>
VStem: 34 70<141.5 231.5>
LayerCount: 2
Back
Fore
SplineSet
229 405 m 0
 166 405 104 295 104 183 c 0
 104 100 131 47 173 47 c 0
 213 47 258 83 282 134 c 1
 296 133 l 1
 311 109 l 1
 273 38 207 -12 150 -12 c 0
 78 -12 34 51 34 153 c 0
 34 310 146 464 260 464 c 0
 294 464 326 456 345 443 c 1
 350 432 l 1
 316 365 l 1
 302 362 l 1
 281 391 256 405 229 405 c 0
392 672 m 1
 391 661 l 1
 391 661 307 597 223 521 c 1
 214 523 l 1
 194 542 l 1
 266 620 344 715 344 715 c 1
 354 713 l 1
 392 672 l 1
EndSplineSet
Validated: 1
EndChar

StartChar: ccaron
Encoding: 269 269 146
Width: 344
Flags: MW
HStem: -12 59<152 178.5> 405 59<203 242.5> 690 20G<155 155 400 400>
VStem: 34 70<141.5 231.5>
LayerCount: 2
Back
Fore
SplineSet
229 405 m 0
 166 405 104 295 104 183 c 0
 104 100 131 47 173 47 c 0
 213 47 258 83 282 134 c 1
 296 133 l 1
 311 109 l 1
 273 38 207 -12 150 -12 c 0
 78 -12 34 51 34 153 c 0
 34 310 146 464 260 464 c 0
 294 464 326 456 345 443 c 1
 350 432 l 1
 316 365 l 1
 302 362 l 1
 281 391 256 405 229 405 c 0
128 686 m 1
 147 709 l 1
 155 710 l 1
 198 666 240 630 265 609 c 1
 294 630 347 667 400 710 c 1
 408 709 l 1
 421 686 l 1
 346 615 261 526 261 526 c 1
 248 526 l 1
 248 526 185 615 128 686 c 1
EndSplineSet
Validated: 1
EndChar

StartChar: caron
Encoding: 711 711 147
Width: 382
Flags: MW
HStem: 526 21G<222 235 222 222> 690 20G<129 129 374 374>
LayerCount: 2
Back
Fore
SplineSet
102 686 m 1
 121 709 l 1
 129 710 l 1
 172 666 214 630 239 609 c 1
 268 630 321 667 374 710 c 1
 382 709 l 1
 395 686 l 1
 320 615 235 526 235 526 c 1
 222 526 l 1
 222 526 159 615 102 686 c 1
EndSplineSet
Validated: 1
EndChar

StartChar: ccedilla
Encoding: 231 231 148
Width: 344
Flags: MW
HStem: -233 21G<90 132> -218 20G<113 141.5> -161 20G<74 82 82 82> 405 59<203 242.5>
VStem: 34 70<141.5 231.5>
LayerCount: 2
Back
Fore
SplineSet
106 -85 m 1x78
 136 -11 l 1
 72 -3 34 57 34 153 c 0
 34 310 146 464 260 464 c 0
 294 464 326 456 345 443 c 1
 350 432 l 1
 316 365 l 1
 302 362 l 1
 281 391 256 405 229 405 c 0
 166 405 104 295 104 183 c 0
 104 100 131 47 173 47 c 0
 213 47 258 83 282 134 c 1
 296 133 l 1
 311 109 l 1
 279 50 228 5 179 -8 c 1
 160 -50 l 1
 188 -72 232 -100 232 -135 c 0
 232 -188 160 -233 104 -233 c 0xb8
 76 -233 42 -221 42 -199 c 0
 42 -186 61 -158 74 -141 c 1
 82 -141 l 1
 79 -178 98 -198 128 -198 c 0
 155 -198 179 -181 179 -158 c 0
 179 -135 140 -107 106 -85 c 1x78
EndSplineSet
Validated: 33
EndChar

StartChar: cdotaccent
Encoding: 267 267 149
Width: 344
Flags: MW
HStem: -12 59<152 178.5> 405 59<203 242.5> 602 110<253 266>
VStem: 34 70<141.5 231.5>
LayerCount: 2
Back
Fore
SplineSet
229 405 m 0
 166 405 104 295 104 183 c 0
 104 100 131 47 173 47 c 0
 213 47 258 83 282 134 c 1
 296 133 l 1
 311 109 l 1
 273 38 207 -12 150 -12 c 0
 78 -12 34 51 34 153 c 0
 34 310 146 464 260 464 c 0
 294 464 326 456 345 443 c 1
 350 432 l 1
 316 365 l 1
 302 362 l 1
 281 391 256 405 229 405 c 0
248 602 m 0
 219 602 206 624 206 647 c 0
 206 682 235 712 271 712 c 0
 300 712 314 690 314 667 c 0
 314 632 284 602 248 602 c 0
EndSplineSet
Validated: 1
EndChar

StartChar: dotaccent
Encoding: 729 729 150
Width: 382
Flags: MW
HStem: 602 110<238 251>
LayerCount: 2
Back
Fore
SplineSet
233 602 m 0
 204 602 191 624 191 647 c 0
 191 682 220 712 256 712 c 0
 285 712 299 690 299 667 c 0
 299 632 269 602 233 602 c 0
EndSplineSet
Validated: 1
EndChar

StartChar: d
Encoding: 100 100 151
Width: 463
Flags: MW
HStem: -12 81<86.5 149.5> 406 54<205 243> 713 20G<444 444>
VStem: 32 70<144 206>
LayerCount: 2
Back
Fore
SplineSet
331 64 m 1
 334 60 l 1
 343 60 348 64 413 119 c 1
 425 118 l 1
 438 94 l 1
 355 16 319 -12 298 -12 c 0
 274 -12 262 -2 262 17 c 0
 262 37 305 225 305 225 c 1
 298 227 l 1
 233 106 175 32 112 -12 c 1
 61 -12 32 38 32 124 c 0
 32 288 149 460 261 460 c 1
 333 448 l 1
 359 645 l 2
 363 676 351 689 318 689 c 2
 277 689 l 1
 283 727 l 1
 344 727 444 733 444 733 c 1
 453 721 l 1
 453 721 361 292 331 64 c 1
131 69 m 0
 168 69 255 204 328 374 c 1
 296 393 256 406 230 406 c 0
 165 406 102 292 102 173 c 0
 102 115 115 69 131 69 c 0
EndSplineSet
Validated: 33
EndChar

StartChar: dotlessi
Encoding: 305 305 152
Width: 264
Flags: MW
HStem: -12 21G<86 108.5> 432 20G<204 204>
LayerCount: 2
Back
Fore
SplineSet
130 64 m 1
 133 60 l 1
 143 60 155 69 212 119 c 1
 224 118 l 1
 237 94 l 1
 168 25 120 -12 97 -12 c 0
 75 -12 67 0 67 23 c 2
 67 23 118 331 118 366 c 0
 118 396 106 408 76 408 c 2
 35 408 l 1
 42 446 l 1
 103 446 204 452 204 452 c 1
 213 440 l 1
 213 440 156 250 130 64 c 1
EndSplineSet
Validated: 1
EndChar

StartChar: e
Encoding: 101 101 153
Width: 359
Flags: MW
HStem: -12 60<148.5 178.5> 406 58<205 242>
LayerCount: 2
Back
Fore
SplineSet
340 386 m 0
 340 302 273 247 102 190 c 1
 97 105 125 48 172 48 c 0
 212 48 255 82 282 134 c 1
 296 133 l 1
 311 109 l 1
 273 38 207 -12 150 -12 c 0
 78 -12 34 51 34 153 c 0
 34 307 149 464 261 464 c 0
 311 464 340 436 340 386 c 0
229 406 m 0
 177 406 121 327 106 232 c 1
 222 268 269 305 269 360 c 0
 269 390 255 406 229 406 c 0
EndSplineSet
Validated: 33
EndChar

StartChar: ecaron
Encoding: 283 283 154
Width: 359
Flags: MW
HStem: -12 60<148.5 178.5> 406 58<205 242> 690 20G<143 143 388 388>
LayerCount: 2
Back
Fore
SplineSet
340 386 m 0
 340 302 273 247 102 190 c 1
 97 105 125 48 172 48 c 0
 212 48 255 82 282 134 c 1
 296 133 l 1
 311 109 l 1
 273 38 207 -12 150 -12 c 0
 78 -12 34 51 34 153 c 0
 34 307 149 464 261 464 c 0
 311 464 340 436 340 386 c 0
229 406 m 0
 177 406 121 327 106 232 c 1
 222 268 269 305 269 360 c 0
 269 390 255 406 229 406 c 0
116 686 m 1
 135 709 l 1
 143 710 l 1
 186 666 228 630 253 609 c 1
 282 630 335 667 388 710 c 1
 396 709 l 1
 409 686 l 1
 334 615 249 526 249 526 c 1
 236 526 l 1
 236 526 173 615 116 686 c 1
EndSplineSet
Validated: 33
EndChar

StartChar: ecircumflex
Encoding: 234 234 155
Width: 359
Flags: MW
HStem: -12 60<148.5 178.5> 406 58<205 242> 683 20G<256 270 270 270>
LayerCount: 2
Back
Fore
SplineSet
340 386 m 0
 340 302 273 247 102 190 c 1
 97 105 125 48 172 48 c 0
 212 48 255 82 282 134 c 1
 296 133 l 1
 311 109 l 1
 273 38 207 -12 150 -12 c 0
 78 -12 34 51 34 153 c 0
 34 307 149 464 261 464 c 0
 311 464 340 436 340 386 c 0
229 406 m 0
 177 406 121 327 106 232 c 1
 222 268 269 305 269 360 c 0
 269 390 255 406 229 406 c 0
116 528 m 1
 104 550 l 1
 256 703 l 1
 270 703 l 1
 385 550 l 1
 368 528 l 1
 359 527 l 1
 254 624 l 1
 125 527 l 1
 116 528 l 1
EndSplineSet
Validated: 33
EndChar

StartChar: edieresis
Encoding: 235 235 156
Width: 359
Flags: MW
HStem: -12 60<148.5 178.5> 406 58<205 242> 566 93<165.5 176.5 325.5 336.5>
LayerCount: 2
Back
Fore
SplineSet
340 386 m 0
 340 302 273 247 102 190 c 1
 97 105 125 48 172 48 c 0
 212 48 255 82 282 134 c 1
 296 133 l 1
 311 109 l 1
 273 38 207 -12 150 -12 c 0
 78 -12 34 51 34 153 c 0
 34 307 149 464 261 464 c 0
 311 464 340 436 340 386 c 0
229 406 m 0
 177 406 121 327 106 232 c 1
 222 268 269 305 269 360 c 0
 269 390 255 406 229 406 c 0
321 566 m 0
 297 566 285 585 285 604 c 0
 285 633 310 659 341 659 c 0
 365 659 376 641 376 621 c 0
 376 592 352 566 321 566 c 0
161 566 m 0
 137 566 125 585 125 604 c 0
 125 633 150 659 181 659 c 0
 205 659 216 641 216 621 c 0
 216 592 192 566 161 566 c 0
EndSplineSet
Validated: 33
EndChar

StartChar: edotaccent
Encoding: 279 279 157
Width: 359
Flags: MW
HStem: -12 60<148.5 178.5> 406 58<205 242> 602 110<251 264>
LayerCount: 2
Back
Fore
SplineSet
340 386 m 0
 340 302 273 247 102 190 c 1
 97 105 125 48 172 48 c 0
 212 48 255 82 282 134 c 1
 296 133 l 1
 311 109 l 1
 273 38 207 -12 150 -12 c 0
 78 -12 34 51 34 153 c 0
 34 307 149 464 261 464 c 0
 311 464 340 436 340 386 c 0
229 406 m 0
 177 406 121 327 106 232 c 1
 222 268 269 305 269 360 c 0
 269 390 255 406 229 406 c 0
246 602 m 0
 217 602 204 624 204 647 c 0
 204 682 233 712 269 712 c 0
 298 712 312 690 312 667 c 0
 312 632 282 602 246 602 c 0
EndSplineSet
Validated: 33
EndChar

StartChar: egrave
Encoding: 232 232 158
Width: 359
Flags: MW
HStem: -12 60<148.5 178.5> 406 58<205 242> 694 20G<177 177>
LayerCount: 2
Back
Fore
SplineSet
340 386 m 0
 340 302 273 247 102 190 c 1
 97 105 125 48 172 48 c 0
 212 48 255 82 282 134 c 1
 296 133 l 1
 311 109 l 1
 273 38 207 -12 150 -12 c 0
 78 -12 34 51 34 153 c 0
 34 307 149 464 261 464 c 0
 311 464 340 436 340 386 c 0
229 406 m 0
 177 406 121 327 106 232 c 1
 222 268 269 305 269 360 c 0
 269 390 255 406 229 406 c 0
130 660 m 1
 129 671 l 1
 167 712 l 1
 177 714 l 1
 177 714 255 620 327 542 c 1
 307 523 l 1
 298 521 l 1
 214 597 130 660 130 660 c 1
EndSplineSet
Validated: 33
EndChar

StartChar: emacron
Encoding: 275 275 159
Width: 359
Flags: MW
HStem: -12 60<148.5 178.5> 406 58<205 242> 595 52<241.5 250> 633 20G<395 395>
LayerCount: 2
Back
Fore
SplineSet
340 386 m 0xd0
 340 302 273 247 102 190 c 1
 97 105 125 48 172 48 c 0
 212 48 255 82 282 134 c 1
 296 133 l 1
 311 109 l 1
 273 38 207 -12 150 -12 c 0
 78 -12 34 51 34 153 c 0
 34 307 149 464 261 464 c 0
 311 464 340 436 340 386 c 0xd0
229 406 m 0
 177 406 121 327 106 232 c 1
 222 268 269 305 269 360 c 0
 269 390 255 406 229 406 c 0
395 653 m 1
 399 643 l 1
 386 596 l 1
 250 595 l 2
 193 595 112 594 112 594 c 1
 107 603 l 1
 122 648 l 1
 122 648 213 647 270 647 c 0xe0
 318 647 395 653 395 653 c 1
EndSplineSet
Validated: 33
EndChar

StartChar: eogonek
Encoding: 281 281 160
Width: 359
Flags: MW
HStem: -241 59<133.5 197.5> -12 60<148.5 152.5> 406 58<205 242>
LayerCount: 2
Back
Fore
SplineSet
256 -159 m 1
 266 -178 l 1
 266 -178 213 -224 162 -241 c 1
 105 -241 66 -211 66 -158 c 0
 66 -109 108 -63 164 -10 c 1
 159 -11 155 -12 150 -12 c 0
 78 -12 34 51 34 153 c 0
 34 307 149 464 261 464 c 0
 311 464 340 436 340 386 c 0
 340 302 273 247 102 190 c 1
 97 105 125 48 172 48 c 0
 212 48 255 82 282 134 c 1
 296 133 l 1
 311 109 l 1
 229 -20 130 -56 130 -134 c 0
 130 -162 149 -182 179 -182 c 0
 216 -182 256 -159 256 -159 c 1
229 406 m 0
 177 406 121 327 106 232 c 1
 222 268 269 305 269 360 c 0
 269 390 255 406 229 406 c 0
EndSplineSet
Validated: 33
EndChar

StartChar: eth
Encoding: 240 240 161
Width: 488
Flags: MW
HStem: -12 49<201 271> 399 54<219 291.5> 721 20G<139 139>
VStem: 36 84<153 251.5> 369 85<202.5 288.5>
LayerCount: 2
Back
Fore
SplineSet
451 692 m 1
 458 687 l 1
 459 658 l 1
 336 599 l 1
 413 514 454 403 454 289 c 0
 454 116 337 -12 205 -12 c 0
 102 -12 36 65 36 176 c 0
 36 327 155 453 282 453 c 0
 311 453 348 427 349 427 c 2
 351 429 l 1
 336 482 312 530 279 572 c 1
 143 508 l 1
 135 511 l 1
 134 541 l 1
 253 599 l 1
 215 639 167 674 109 704 c 1
 129 737 l 1
 139 741 l 1
 206 709 263 670 310 625 c 1
 451 692 l 1
369 276 m 0
 369 301 368 336 365 358 c 1
 352 373 321 399 262 399 c 0
 176 399 120 323 120 202 c 0
 120 104 165 37 237 37 c 0
 314 37 369 120 369 276 c 0
EndSplineSet
Validated: 1
EndChar

StartChar: f
Encoding: 102 102 162
Width: 257
Flags: MW
HStem: -242 47<-20.5 15.5> -132 20G<-83 -69 -69 -69> 407 42 683 59<283.5 306.5>
LayerCount: 2
Back
Fore
SplineSet
37 405 m 1
 34 410 l 1
 38 439 l 1
 117 451 l 1
 126 531 l 2
 141 653 230 742 337 742 c 0
 371 742 413 736 438 727 c 1
 442 716 l 1
 411 653 l 1
 392 650 l 1
 355 672 320 683 293 683 c 0
 240 683 209 645 200 569 c 2
 185 449 l 1
 330 450 l 1
 334 447 l 1
 326 407 l 1
 190 408 l 1
 180 402 l 1
 128 -75 l 2
 116 -181 58 -242 -27 -242 c 0
 -69 -242 -108 -222 -117 -196 c 1
 -111 -173 -94 -131 -83 -112 c 1
 -69 -112 l 1
 -70 -162 -42 -195 1 -195 c 0
 36 -195 67 -161 73 -116 c 0
 81 -51 81 3 85 57 c 2
 113 397 l 1
 106 402 l 1
 37 405 l 1
EndSplineSet
Validated: 33
EndChar

StartChar: g
Encoding: 103 103 163
Width: 444
Flags: MW
HStem: -241 58<86.5 135.5> 406 54<224.5 258.5> 450 20G<395 395>
LayerCount: 2
Back
Fore
SplineSet
166 87 m 0xc0
 196 87 263 194 347 375 c 1
 307 395 271 406 246 406 c 0
 186 406 128 302 128 196 c 0
 128 138 146 87 166 87 c 0xc0
153 8 m 0
 90 -38 -1 -87 -1 -107 c 0
 -1 -141 60 -183 113 -183 c 0
 198 -183 264 -118 277 -11 c 2
 302 196 l 1
 294 198 l 1
 232 83 201 43 153 8 c 0
339 0 m 0
 325 -116 191 -241 80 -241 c 0
 -3 -241 -84 -177 -80 -115 c 1
 -78 -110 l 1
 -43 -82 26 -37 109 12 c 1
 110 21 l 1
 78 40 59 88 59 149 c 0
 59 299 172 460 277 460 c 1xc0
 379 444 l 1
 390 469 l 1
 395 470 l 1xa0
 426 455 l 1
 434 446 l 1
 386 357 361 291 355 238 c 0
 347 172 344 41 339 0 c 0
EndSplineSet
Validated: 33
EndChar

StartChar: gbreve
Encoding: 287 287 164
Width: 444
Flags: MW
HStem: -241 58<86.5 135.5> 406 54<224.5 258.5> 558 58<278.5 319 278.5 325.5> 662 20G<206 214 214 214 399 408 408 408>
LayerCount: 2
Back
Fore
SplineSet
166 87 m 0
 196 87 263 194 347 375 c 1
 307 395 271 406 246 406 c 0
 186 406 128 302 128 196 c 0
 128 138 146 87 166 87 c 0
153 8 m 0
 90 -38 -1 -87 -1 -107 c 0
 -1 -141 60 -183 113 -183 c 0
 198 -183 264 -118 277 -11 c 2
 302 196 l 1
 294 198 l 1
 232 83 201 43 153 8 c 0
339 0 m 0
 325 -116 191 -241 80 -241 c 0
 -3 -241 -84 -177 -80 -115 c 1
 -78 -110 l 1
 -43 -82 26 -37 109 12 c 1
 110 21 l 1
 78 40 59 88 59 149 c 0
 59 299 172 460 277 460 c 1
 379 444 l 1
 390 469 l 1
 395 470 l 1
 426 455 l 1
 434 446 l 1
 386 357 361 291 355 238 c 0
 347 172 344 41 339 0 c 0
299 616 m 0
 339 616 378 638 399 682 c 1
 408 682 l 1
 422 672 l 1
 402 615 359 558 292 558 c 0
 224 558 195 615 189 672 c 1
 206 682 l 1
 214 682 l 1
 225 638 258 616 299 616 c 0
EndSplineSet
Validated: 33
EndChar

StartChar: gcommaaccent
Encoding: 291 291 165
Width: 444
Flags: MW
HStem: -241 58<86.5 135.5> 406 54<224.5 258.5> 460 54<224.5 309> 720 20G<372 372>
LayerCount: 2
Back
Fore
SplineSet
166 87 m 0xd0
 196 87 263 194 347 375 c 1
 307 395 271 406 246 406 c 0
 186 406 128 302 128 196 c 0
 128 138 146 87 166 87 c 0xd0
153 8 m 0
 90 -38 -1 -87 -1 -107 c 0
 -1 -141 60 -183 113 -183 c 0
 198 -183 264 -118 277 -11 c 2
 302 196 l 1
 294 198 l 1
 232 83 201 43 153 8 c 0
339 0 m 0
 325 -116 191 -241 80 -241 c 0
 -3 -241 -84 -177 -80 -115 c 1
 -78 -110 l 1
 -43 -82 26 -37 109 12 c 1
 110 21 l 1
 78 40 59 88 59 149 c 0
 59 299 172 460 277 460 c 1
 379 444 l 1
 390 469 l 1
 395 470 l 1
 426 455 l 1
 434 446 l 1
 386 357 361 291 355 238 c 0
 347 172 344 41 339 0 c 0
358 554 m 1
 356 540 l 1
 343 530 320 514 298 514 c 0xb0
 268 514 244 541 244 585 c 0
 244 657 317 711 372 740 c 1
 390 725 l 1
 390 715 l 1
 350 690 318 650 318 616 c 0
 318 589 336 567 358 554 c 1
EndSplineSet
Validated: 33
EndChar

StartChar: gdotaccent
Encoding: 289 289 166
Width: 444
Flags: MW
HStem: -241 58<86.5 135.5> 406 54<224.5 258.5> 602 110<285 298>
LayerCount: 2
Back
Fore
SplineSet
166 87 m 0
 196 87 263 194 347 375 c 1
 307 395 271 406 246 406 c 0
 186 406 128 302 128 196 c 0
 128 138 146 87 166 87 c 0
153 8 m 0
 90 -38 -1 -87 -1 -107 c 0
 -1 -141 60 -183 113 -183 c 0
 198 -183 264 -118 277 -11 c 2
 302 196 l 1
 294 198 l 1
 232 83 201 43 153 8 c 0
339 0 m 0
 325 -116 191 -241 80 -241 c 0
 -3 -241 -84 -177 -80 -115 c 1
 -78 -110 l 1
 -43 -82 26 -37 109 12 c 1
 110 21 l 1
 78 40 59 88 59 149 c 0
 59 299 172 460 277 460 c 1
 379 444 l 1
 390 469 l 1
 395 470 l 1
 426 455 l 1
 434 446 l 1
 386 357 361 291 355 238 c 0
 347 172 344 41 339 0 c 0
280 602 m 0
 251 602 238 624 238 647 c 0
 238 682 267 712 303 712 c 0
 332 712 346 690 346 667 c 0
 346 632 316 602 280 602 c 0
EndSplineSet
Validated: 33
EndChar

StartChar: germandbls
Encoding: 223 223 167
Width: 549
Flags: MW
HStem: -242 47<-20.5 16> -132 20G<-83 -69 -69 -69> -12 44<345.5 394.5 345.5 398.5> 683 59<289 342>
VStem: 277 75<351.5 418.5> 430 73<567 624> 457 76<114 170>
LayerCount: 2
Back
Fore
SplineSet
37 405 m 1xfc
 34 410 l 1
 38 439 l 1
 117 451 l 1
 126 531 l 2
 142 654 233 742 345 742 c 0
 433 742 503 692 503 629 c 0xfc
 503 505 352 476 352 392 c 0
 352 311 533 282 533 160 c 0
 533 68 447 -12 350 -12 c 0
 285 -12 231 13 234 41 c 0
 237 60 263 108 282 127 c 1
 296 127 l 1
 288 67 317 32 374 32 c 0
 415 32 457 78 457 123 c 0xfa
 457 217 277 244 277 365 c 0
 277 472 430 512 430 598 c 0
 430 650 381 683 303 683 c 0
 244 683 210 645 200 569 c 2
 128 -75 l 2
 116 -180 59 -242 -27 -242 c 0
 -69 -242 -109 -222 -117 -196 c 1
 -111 -173 -94 -131 -83 -112 c 1
 -69 -112 l 1
 -70 -162 -42 -195 1 -195 c 0
 32 -195 60 -168 70 -130 c 1
 73 -93 77 -34 85 57 c 2
 113 397 l 1
 106 402 l 1
 37 405 l 1xfc
73 -116 m 1
 72 -118 72 -120 72 -122 c 1
 72 -120 72 -118 73 -116 c 1
66 -170 m 1
 66 -176 l 1
 66 -170 l 1
EndSplineSet
Validated: 37
EndChar

StartChar: h
Encoding: 104 104 168
Width: 490
Flags: MW
HStem: -12 21G<297 318> -9 21G<59 67> 371 93<297 369.5> 713 20G<232 232>
VStem: 352 75<332.5 342>
LayerCount: 2
Back
Fore
SplineSet
340 64 m 1x78
 343 60 l 1
 353 60 362 67 422 119 c 1
 434 118 l 1
 447 94 l 1
 373 21 329 -12 307 -12 c 0xb8
 287 -12 276 -2 276 17 c 0
 276 78 352 261 352 330 c 0
 352 354 338 371 318 371 c 0
 276 371 201 260 132 98 c 1
 121 14 l 2
 120 8 75 -9 59 -9 c 1
 52 0 l 1
 52 0 148 610 148 650 c 0
 148 677 136 689 106 689 c 2
 65 689 l 1
 71 727 l 1
 132 727 232 733 232 733 c 1
 241 721 l 1
 241 721 177 452 140 202 c 1
 145 199 l 1
 214 334 286 428 348 464 c 1
 391 464 427 420 427 367 c 0
 427 298 358 148 340 64 c 1x78
EndSplineSet
Validated: 1
EndChar

StartChar: hbar
Encoding: 295 295 169
Width: 490
Flags: MW
HStem: -12 21G<297 318> -9 21G<59 67> 371 93<297 369.5> 522 46<131 138> 522 205<71 131 71 197> 713 20G<232 232>
VStem: 352 75<332.5 342>
LayerCount: 2
Back
Fore
SplineSet
340 64 m 1x6a
 343 60 l 1
 353 60 362 67 422 119 c 1
 434 118 l 1
 447 94 l 1
 373 21 329 -12 307 -12 c 0xb6
 287 -12 276 -2 276 17 c 0
 276 78 352 261 352 330 c 0
 352 354 338 371 318 371 c 0
 276 371 201 260 132 98 c 1
 121 14 l 2
 120 8 75 -9 59 -9 c 1
 52 0 l 1
 52 0 104 332 131 522 c 1
 41 521 l 1
 32 530 l 1
 39 569 l 1
 138 568 l 1x76
 144 612 148 642 148 650 c 0
 148 677 136 689 106 689 c 2
 65 689 l 1
 71 727 l 1x6a
 132 727 232 733 232 733 c 1x76
 241 721 l 1
 241 721 226 660 207 569 c 1
 284 573 l 1
 297 560 l 1
 293 523 l 1
 197 522 l 1
 178 429 156 314 140 202 c 1
 145 199 l 1
 214 334 286 428 348 464 c 1
 391 464 427 420 427 367 c 0
 427 298 358 148 340 64 c 1x6a
EndSplineSet
Validated: 1
EndChar

StartChar: i
Encoding: 105 105 170
Width: 264
Flags: MW
HStem: -12 21G<86 108.5> 592 110<181.5 196>
LayerCount: 2
Back
Fore
SplineSet
178 592 m 0
 150 592 136 614 136 636 c 0
 136 670 163 702 200 702 c 0
 227 702 241 681 241 658 c 0
 241 623 214 592 178 592 c 0
130 64 m 1
 133 60 l 1
 143 60 155 69 212 119 c 1
 224 118 l 1
 237 94 l 1
 168 25 120 -12 97 -12 c 0
 75 -12 67 0 67 23 c 2
 67 23 118 331 118 366 c 0
 118 396 106 408 76 408 c 2
 35 408 l 1
 42 446 l 1
 103 446 204 452 204 452 c 1
 213 440 l 1
 213 440 156 250 130 64 c 1
EndSplineSet
Validated: 1
EndChar

StartChar: j
Encoding: 106 106 171
Width: 245
Flags: MW
HStem: -241 21G<-48 -48> 592 110<179.5 192>
LayerCount: 2
Back
Fore
SplineSet
124 21 m 0
 105 -118 47 -192 -48 -241 c 1
 -63 -222 l 1
 -60 -214 l 1
 17 -159 50 -103 68 38 c 2
 68 38 118 330 118 365 c 0
 118 395 105 408 74 408 c 2
 33 408 l 1
 41 446 l 1
 102 446 200 452 200 452 c 1
 210 440 l 1
 210 440 145 179 124 21 c 0
175 592 m 0
 150 592 133 610 133 636 c 0
 133 672 162 702 197 702 c 0
 222 702 239 684 239 658 c 0
 239 622 209 592 175 592 c 0
EndSplineSet
Validated: 1
EndChar

StartChar: iogonek
Encoding: 303 303 172
Width: 282
Flags: MW
HStem: -241 59<51.5 115.5> 592 110<181.5 196>
LayerCount: 2
Back
Fore
SplineSet
174 -159 m 1
 184 -178 l 1
 184 -178 131 -224 80 -241 c 1
 23 -241 -16 -211 -16 -158 c 0
 -16 -109 26 -63 82 -10 c 1
 71 -5 67 6 67 23 c 2
 67 23 118 331 118 366 c 0
 118 396 106 408 76 408 c 2
 35 408 l 1
 42 446 l 1
 103 446 204 452 204 452 c 1
 213 440 l 1
 213 440 156 250 130 64 c 1
 133 60 l 1
 143 60 155 69 212 119 c 1
 224 118 l 1
 237 94 l 1
 110 -26 48 -69 48 -134 c 0
 48 -162 67 -182 97 -182 c 0
 134 -182 174 -159 174 -159 c 1
178 592 m 0
 150 592 136 614 136 636 c 0
 136 670 163 702 200 702 c 0
 227 702 241 681 241 658 c 0
 241 623 214 592 178 592 c 0
EndSplineSet
Validated: 1
EndChar

StartChar: k
Encoding: 107 107 173
Width: 432
Flags: MW
HStem: -24 21G<333 333> -9 21G<59 67> 371 93<298 369> 713 20G<232 232>
LayerCount: 2
Back
Fore
SplineSet
320 -17 m 1xb0
 212 179 l 1
 216 194 l 1
 309 241 352 285 352 334 c 0
 352 356 338 371 319 371 c 0
 277 371 200 258 132 97 c 1
 121 14 l 2
 120 8 75 -9 59 -9 c 1x70
 52 0 l 1
 52 0 148 610 148 650 c 0
 148 677 136 689 106 689 c 2
 65 689 l 1
 71 727 l 1
 132 727 232 733 232 733 c 1
 241 721 l 1
 241 721 177 452 140 202 c 1
 145 199 l 1
 214 334 286 428 348 464 c 1
 390 464 424 423 424 372 c 0
 424 310 370 245 270 186 c 1
 333 87 392 20 392 20 c 1
 394 8 l 1
 333 -24 l 1
 320 -17 l 1xb0
EndSplineSet
Validated: 1
EndChar

StartChar: kcommaaccent
Encoding: 311 311 174
Width: 432
Flags: MW
HStem: -293 21G<138 138> -9 21G<59 67> 444 20G<348 369> 713 20G<232 232>
LayerCount: 2
Back
Fore
SplineSet
320 -17 m 1
 212 179 l 1
 216 194 l 1
 309 241 352 285 352 334 c 0
 352 356 338 371 319 371 c 0
 277 371 200 258 132 97 c 1
 121 14 l 2
 120 8 75 -9 59 -9 c 1
 52 0 l 1
 52 0 148 610 148 650 c 0
 148 677 136 689 106 689 c 2
 65 689 l 1
 71 727 l 1
 132 727 232 733 232 733 c 1
 241 721 l 1
 241 721 177 452 140 202 c 1
 145 199 l 1
 214 334 286 428 348 464 c 1
 390 464 424 423 424 372 c 0
 424 310 370 245 270 186 c 1
 333 87 392 20 392 20 c 1
 394 8 l 1
 333 -24 l 1
 320 -17 l 1
152 -107 m 1
 154 -93 l 1
 167 -83 190 -67 212 -67 c 0
 242 -67 266 -94 266 -138 c 0
 266 -210 193 -264 138 -293 c 1
 120 -278 l 1
 120 -268 l 1
 160 -243 192 -203 192 -169 c 0
 192 -142 174 -120 152 -107 c 1
EndSplineSet
Validated: 1
EndChar

StartChar: l
Encoding: 108 108 175
Width: 250
Flags: MW
HStem: -12 21G<75 96.5> 713 20G<232 232>
LayerCount: 2
Back
Fore
SplineSet
118 64 m 1
 121 60 l 1
 131 60 143 69 200 119 c 1
 212 118 l 1
 225 94 l 1
 156 25 108 -12 85 -12 c 0
 65 -12 54 -2 54 17 c 0
 54 34 148 609 148 649 c 0
 148 677 136 689 106 689 c 2
 65 689 l 1
 71 727 l 1
 132 727 232 733 232 733 c 1
 241 721 l 1
 241 721 152 322 118 64 c 1
EndSplineSet
Validated: 1
EndChar

StartChar: lacute
Encoding: 314 314 176
Width: 250
Flags: MW
HStem: -12 21G<75 96.5> 925 20G<244 244>
LayerCount: 2
Back
Fore
SplineSet
118 64 m 1
 121 60 l 1
 131 60 143 69 200 119 c 1
 212 118 l 1
 225 94 l 1
 156 25 108 -12 85 -12 c 0
 65 -12 54 -2 54 17 c 0
 54 34 148 609 148 649 c 0
 148 677 136 689 106 689 c 2
 65 689 l 1
 71 727 l 1
 132 727 232 733 232 733 c 1
 241 721 l 1
 241 721 152 322 118 64 c 1
292 902 m 1
 291 891 l 1
 291 891 207 827 123 751 c 1
 114 753 l 1
 94 772 l 1
 166 850 244 945 244 945 c 1
 254 943 l 1
 292 902 l 1
EndSplineSet
Validated: 1
EndChar

StartChar: lcaron
Encoding: 318 318 177
Width: 326
Flags: MW
HStem: -12 21G<75 96.5> 713 20G<232 232>
LayerCount: 2
Back
Fore
SplineSet
118 64 m 1
 121 60 l 1
 131 60 143 69 200 119 c 1
 212 118 l 1
 225 94 l 1
 156 25 108 -12 85 -12 c 0
 65 -12 54 -2 54 17 c 0
 54 34 148 609 148 649 c 0
 148 677 136 689 106 689 c 2
 65 689 l 1
 71 727 l 1
 132 727 232 733 232 733 c 1
 241 721 l 1
 241 721 152 322 118 64 c 1
371 709 m 1
 376 701 l 1
 376 701 349 591 317 489 c 1
 289 475 l 1
 279 477 l 1
 296 587 300 695 300 695 c 1
 371 709 l 1
EndSplineSet
Validated: 1
EndChar

StartChar: lcommaaccent
Encoding: 316 316 178
Width: 250
Flags: MW
HStem: -293 21G<11 11> -67 55<75 96.5 75 100> 713 20G<232 232>
VStem: 54 85
LayerCount: 2
Back
Fore
SplineSet
118 64 m 1
 121 60 l 1
 131 60 143 69 200 119 c 1
 212 118 l 1
 225 94 l 1
 156 25 108 -12 85 -12 c 0
 65 -12 54 -2 54 17 c 0
 54 34 148 609 148 649 c 0
 148 677 136 689 106 689 c 2
 65 689 l 1
 71 727 l 1
 132 727 232 733 232 733 c 1
 241 721 l 1
 241 721 152 322 118 64 c 1
25 -107 m 1
 27 -93 l 1
 40 -83 63 -67 85 -67 c 0
 115 -67 139 -94 139 -138 c 0
 139 -210 66 -264 11 -293 c 1
 -7 -278 l 1
 -7 -268 l 1
 33 -243 65 -203 65 -169 c 0
 65 -142 47 -120 25 -107 c 1
EndSplineSet
Validated: 1
EndChar

StartChar: ldot
Encoding: 320 320 179
Width: 316
Flags: MW
HStem: -12 21G<75 96.5> 219 119<253 273.5> 713 20G<232 232>
LayerCount: 2
Back
Fore
SplineSet
118 64 m 1
 121 60 l 1
 131 60 143 69 200 119 c 1
 212 118 l 1
 225 94 l 1
 156 25 108 -12 85 -12 c 0
 65 -12 54 -2 54 17 c 0
 54 34 148 609 148 649 c 0
 148 677 136 689 106 689 c 2
 65 689 l 1
 71 727 l 1
 132 727 232 733 232 733 c 1
 241 721 l 1
 241 721 152 322 118 64 c 1
253 219 m 0
 219 219 205 243 205 269 c 0
 205 306 233 338 273 338 c 0
 306 338 323 316 323 288 c 0
 323 251 294 219 253 219 c 0
EndSplineSet
Validated: 1
EndChar

StartChar: lslash
Encoding: 322 322 180
Width: 250
Flags: MW
HStem: -12 21G<75 96.5> 713 20G<232 232>
LayerCount: 2
Back
Fore
SplineSet
118 64 m 1
 121 60 l 1
 131 60 143 69 200 119 c 1
 212 118 l 1
 225 94 l 1
 156 25 108 -12 85 -12 c 0
 65 -12 54 -2 54 17 c 0
 54 26 79 187 104 344 c 1
 38 308 l 1
 29 310 l 1
 23 342 l 1
 111 391 l 1
 131 518 148 632 148 649 c 0
 148 677 136 689 106 689 c 2
 65 689 l 1
 71 727 l 1
 132 727 232 733 232 733 c 1
 241 721 l 1
 241 721 211 587 179 425 c 1
 248 463 l 1
 256 459 l 1
 262 428 l 1
 170 377 l 1
 150 271 130 158 118 64 c 1
EndSplineSet
Validated: 1
EndChar

StartChar: m
Encoding: 109 109 181
Width: 736
Flags: MW
HStem: -12 21G<541 561.5> -9 21G<71 79 298 306> 371 93<304 375>
VStem: 602 72<335.5 342>
LayerCount: 2
Back
Fore
SplineSet
585 64 m 1x70
 588 60 l 1
 598 60 606 66 668 119 c 1
 680 118 l 1
 693 94 l 1
 617 21 572 -12 551 -12 c 0xb0
 531 -12 520 -2 520 17 c 0
 520 77 602 262 602 330 c 0
 602 354 588 371 568 371 c 0
 525 371 445 252 372 79 c 1
 360 14 l 2
 359 8 314 -9 298 -9 c 1
 291 0 l 1
 291 0 358 293 358 330 c 0
 358 354 344 371 324 371 c 0
 284 371 211 261 144 99 c 1
 133 14 l 2
 132 8 87 -9 71 -9 c 1
 64 0 l 1
 64 0 119 336 119 368 c 0
 119 396 107 408 76 408 c 2
 35 408 l 1
 42 446 l 1
 103 446 204 452 204 452 c 1
 213 440 l 1
 213 440 171 319 152 202 c 1
 155 199 l 1
 223 335 293 428 354 464 c 1
 396 464 431 422 431 371 c 0
 431 337 390 202 390 202 c 1
 393 199 l 1
 459 329 535 426 600 464 c 1
 642 464 674 424 674 371 c 0
 674 300 605 149 585 64 c 1x70
EndSplineSet
Validated: 1
EndChar

StartChar: n
Encoding: 110 110 182
Width: 502
Flags: MW
HStem: -12 21G<309 330.5> -9 21G<71 79> 371 93<309 381.5>
VStem: 364 72<333.5 342>
LayerCount: 2
Back
Fore
SplineSet
352 64 m 1x70
 355 60 l 1
 365 60 374 67 434 119 c 1
 446 118 l 1
 459 94 l 1
 389 24 342 -12 319 -12 c 0xb0
 299 -12 288 -2 288 17 c 0
 288 78 364 261 364 330 c 0
 364 354 350 371 330 371 c 0
 288 371 213 260 144 96 c 1
 133 14 l 2
 132 8 87 -9 71 -9 c 1
 64 0 l 1
 64 0 119 336 119 368 c 0
 119 396 107 408 76 408 c 2
 35 408 l 1
 42 446 l 1
 103 446 204 452 204 452 c 1
 213 440 l 1
 213 440 171 319 152 202 c 1
 157 199 l 1
 226 334 298 428 360 464 c 1
 403 464 436 422 436 368 c 0
 436 299 370 148 352 64 c 1x70
EndSplineSet
Validated: 1
EndChar

StartChar: nacute
Encoding: 324 324 183
Width: 502
Flags: MW
HStem: -12 21G<309 330.5> -9 21G<71 79> 371 93<309 381.5> 695 20G<388 388>
VStem: 364 72<333.5 342>
LayerCount: 2
Back
Fore
SplineSet
352 64 m 1x78
 355 60 l 1
 365 60 374 67 434 119 c 1
 446 118 l 1
 459 94 l 1
 389 24 342 -12 319 -12 c 0xb8
 299 -12 288 -2 288 17 c 0
 288 78 364 261 364 330 c 0
 364 354 350 371 330 371 c 0
 288 371 213 260 144 96 c 1
 133 14 l 2
 132 8 87 -9 71 -9 c 1
 64 0 l 1
 64 0 119 336 119 368 c 0
 119 396 107 408 76 408 c 2
 35 408 l 1
 42 446 l 1
 103 446 204 452 204 452 c 1
 213 440 l 1
 213 440 171 319 152 202 c 1
 157 199 l 1
 226 334 298 428 360 464 c 1
 403 464 436 422 436 368 c 0
 436 299 370 148 352 64 c 1x78
436 672 m 1
 435 661 l 1
 435 661 351 597 267 521 c 1
 258 523 l 1
 238 542 l 1
 310 620 388 715 388 715 c 1
 398 713 l 1
 436 672 l 1
EndSplineSet
Validated: 1
EndChar

StartChar: ncaron
Encoding: 328 328 184
Width: 502
Flags: MW
HStem: -12 21G<309 330.5> -9 21G<71 79> 371 93<309 381.5> 690 20G<199 199 444 444>
VStem: 364 72<333.5 342>
LayerCount: 2
Back
Fore
SplineSet
352 64 m 1x78
 355 60 l 1
 365 60 374 67 434 119 c 1
 446 118 l 1
 459 94 l 1
 389 24 342 -12 319 -12 c 0xb8
 299 -12 288 -2 288 17 c 0
 288 78 364 261 364 330 c 0
 364 354 350 371 330 371 c 0
 288 371 213 260 144 96 c 1
 133 14 l 2
 132 8 87 -9 71 -9 c 1
 64 0 l 1
 64 0 119 336 119 368 c 0
 119 396 107 408 76 408 c 2
 35 408 l 1
 42 446 l 1
 103 446 204 452 204 452 c 1
 213 440 l 1
 213 440 171 319 152 202 c 1
 157 199 l 1
 226 334 298 428 360 464 c 1
 403 464 436 422 436 368 c 0
 436 299 370 148 352 64 c 1x78
172 686 m 1
 191 709 l 1
 199 710 l 1
 242 666 284 630 309 609 c 1
 338 630 391 667 444 710 c 1
 452 709 l 1
 465 686 l 1
 390 615 305 526 305 526 c 1
 292 526 l 1
 292 526 229 615 172 686 c 1
EndSplineSet
Validated: 1
EndChar

StartChar: ncommaaccent
Encoding: 326 326 185
Width: 502
Flags: MW
HStem: -293 21G<155 155> -67 55 -9 21G<71 79> 371 93<309 381.5>
VStem: 364 72<333.5 342>
LayerCount: 2
Back
Fore
SplineSet
352 64 m 1
 355 60 l 1
 365 60 374 67 434 119 c 1
 446 118 l 1
 459 94 l 1
 389 24 342 -12 319 -12 c 0
 299 -12 288 -2 288 17 c 0
 288 78 364 261 364 330 c 0
 364 354 350 371 330 371 c 0
 288 371 213 260 144 96 c 1
 133 14 l 2
 132 8 87 -9 71 -9 c 1
 64 0 l 1
 64 0 119 336 119 368 c 0
 119 396 107 408 76 408 c 2
 35 408 l 1
 42 446 l 1
 103 446 204 452 204 452 c 1
 213 440 l 1
 213 440 171 319 152 202 c 1
 157 199 l 1
 226 334 298 428 360 464 c 1
 403 464 436 422 436 368 c 0
 436 299 370 148 352 64 c 1
169 -107 m 1
 171 -93 l 1
 184 -83 207 -67 229 -67 c 0
 259 -67 283 -94 283 -138 c 0
 283 -210 210 -264 155 -293 c 1
 137 -278 l 1
 137 -268 l 1
 177 -243 209 -203 209 -169 c 0
 209 -142 191 -120 169 -107 c 1
EndSplineSet
Validated: 1
EndChar

StartChar: ntilde
Encoding: 241 241 186
Width: 502
Flags: MW
HStem: -12 21G<309 330.5> -9 21G<71 79> 371 93<309 381.5> 573 64<367.5 373> 606 64<244 250.5> 672 20G<448 454 454 454>
VStem: 364 72<333.5 342>
LayerCount: 2
Back
Fore
SplineSet
352 64 m 1x6e
 355 60 l 1
 365 60 374 67 434 119 c 1
 446 118 l 1
 459 94 l 1
 389 24 342 -12 319 -12 c 0xae
 299 -12 288 -2 288 17 c 0
 288 78 364 261 364 330 c 0
 364 354 350 371 330 371 c 0
 288 371 213 260 144 96 c 1
 133 14 l 2
 132 8 87 -9 71 -9 c 1
 64 0 l 1
 64 0 119 336 119 368 c 0
 119 396 107 408 76 408 c 2
 35 408 l 1
 42 446 l 1
 103 446 204 452 204 452 c 1
 213 440 l 1
 213 440 171 319 152 202 c 1
 157 199 l 1
 226 334 298 428 360 464 c 1
 403 464 436 422 436 368 c 0
 436 299 370 148 352 64 c 1x6e
170 551 m 1
 163 551 l 1
 144 572 l 1
 145 577 l 1
 229 666 l 1
 244 670 l 1x6e
 276 670 354 637 381 637 c 0
 403 637 448 692 448 692 c 1
 454 692 l 1
 474 671 l 1
 473 666 l 1
 389 577 l 1
 373 573 l 1x76
 341 573 264 606 237 606 c 0
 214 606 170 551 170 551 c 1
EndSplineSet
Validated: 1
EndChar

StartChar: o
Encoding: 111 111 187
Width: 406
Flags: MW
HStem: -12 55<162.5 208.5> 404 60<200.5 244>
VStem: 34 72<155 234> 300 75<227 304.5>
LayerCount: 2
Back
Fore
SplineSet
186 43 m 0
 252 43 300 135 300 260 c 0
 300 349 269 404 219 404 c 0
 154 404 106 318 106 202 c 0
 106 108 139 43 186 43 c 0
146 -12 m 0
 80 -12 34 52 34 152 c 0
 34 316 140 464 261 464 c 0
 331 464 375 409 375 315 c 0
 375 139 271 -12 146 -12 c 0
EndSplineSet
Validated: 1
EndChar

StartChar: oacute
Encoding: 243 243 188
Width: 406
Flags: MW
HStem: -12 55<162.5 208.5> 404 60<200.5 244> 695 20G<341 341>
VStem: 34 72<155 234> 300 75<227 304.5>
LayerCount: 2
Back
Fore
SplineSet
186 43 m 0
 252 43 300 135 300 260 c 0
 300 349 269 404 219 404 c 0
 154 404 106 318 106 202 c 0
 106 108 139 43 186 43 c 0
146 -12 m 0
 80 -12 34 52 34 152 c 0
 34 316 140 464 261 464 c 0
 331 464 375 409 375 315 c 0
 375 139 271 -12 146 -12 c 0
389 672 m 1
 388 661 l 1
 388 661 304 597 220 521 c 1
 211 523 l 1
 191 542 l 1
 263 620 341 715 341 715 c 1
 351 713 l 1
 389 672 l 1
EndSplineSet
Validated: 1
EndChar

StartChar: ocircumflex
Encoding: 244 244 189
Width: 406
Flags: MW
HStem: -12 55<162.5 208.5> 404 60<200.5 244> 683 20G<266 280 280 280>
VStem: 34 72<155 234> 300 75<227 304.5>
LayerCount: 2
Back
Fore
SplineSet
146 -12 m 0
 80 -12 34 52 34 152 c 0
 34 316 140 464 261 464 c 0
 331 464 375 409 375 315 c 0
 375 139 271 -12 146 -12 c 0
186 43 m 0
 252 43 300 135 300 260 c 0
 300 349 269 404 219 404 c 0
 154 404 106 318 106 202 c 0
 106 108 139 43 186 43 c 0
126 528 m 1
 114 550 l 1
 266 703 l 1
 280 703 l 1
 395 550 l 1
 378 528 l 1
 369 527 l 1
 264 624 l 1
 135 527 l 1
 126 528 l 1
EndSplineSet
Validated: 1
EndChar

StartChar: odieresis
Encoding: 246 246 190
Width: 406
Flags: MW
HStem: -12 55<162.5 208.5> 404 60<200.5 244> 566 93<176.5 187.5 336.5 347.5>
VStem: 34 72<155 234> 300 75<227 304.5>
LayerCount: 2
Back
Fore
SplineSet
186 43 m 0
 252 43 300 135 300 260 c 0
 300 349 269 404 219 404 c 0
 154 404 106 318 106 202 c 0
 106 108 139 43 186 43 c 0
146 -12 m 0
 80 -12 34 52 34 152 c 0
 34 316 140 464 261 464 c 0
 331 464 375 409 375 315 c 0
 375 139 271 -12 146 -12 c 0
332 566 m 0
 308 566 296 585 296 604 c 0
 296 633 321 659 352 659 c 0
 376 659 387 641 387 621 c 0
 387 592 363 566 332 566 c 0
172 566 m 0
 148 566 136 585 136 604 c 0
 136 633 161 659 192 659 c 0
 216 659 227 641 227 621 c 0
 227 592 203 566 172 566 c 0
EndSplineSet
Validated: 1
EndChar

StartChar: ograve
Encoding: 242 242 191
Width: 406
Flags: MW
HStem: -12 55<162.5 208.5> 404 60<200.5 244> 694 20G<185 185>
VStem: 34 72<155 234> 300 75<227 304.5>
LayerCount: 2
Back
Fore
SplineSet
186 43 m 0
 252 43 300 135 300 260 c 0
 300 349 269 404 219 404 c 0
 154 404 106 318 106 202 c 0
 106 108 139 43 186 43 c 0
146 -12 m 0
 80 -12 34 52 34 152 c 0
 34 316 140 464 261 464 c 0
 331 464 375 409 375 315 c 0
 375 139 271 -12 146 -12 c 0
138 660 m 1
 137 671 l 1
 175 712 l 1
 185 714 l 1
 185 714 263 620 335 542 c 1
 315 523 l 1
 306 521 l 1
 222 597 138 660 138 660 c 1
EndSplineSet
Validated: 1
EndChar

StartChar: ohungarumlaut
Encoding: 337 337 192
Width: 406
Flags: MW
HStem: -12 55<162.5 208.5> 404 60<200.5 244> 685 20G<276 276 404 404>
VStem: 34 72<155 234> 300 75<227 304.5>
LayerCount: 2
Back
Fore
SplineSet
186 43 m 0
 252 43 300 135 300 260 c 0
 300 349 269 404 219 404 c 0
 154 404 106 318 106 202 c 0
 106 108 139 43 186 43 c 0
146 -12 m 0
 80 -12 34 52 34 152 c 0
 34 316 140 464 261 464 c 0
 331 464 375 409 375 315 c 0
 375 139 271 -12 146 -12 c 0
318 664 m 1
 316 655 l 1
 316 655 240 600 161 534 c 1
 152 536 l 1
 136 554 l 1
 202 622 276 705 276 705 c 1
 285 702 l 1
 318 664 l 1
446 664 m 1
 444 655 l 1
 444 655 368 600 289 534 c 1
 280 536 l 1
 264 554 l 1
 330 622 404 705 404 705 c 1
 413 702 l 1
 446 664 l 1
EndSplineSet
Validated: 1
EndChar

StartChar: hungarumlaut
Encoding: 733 733 193
Width: 382
Flags: MW
HStem: 534 21G<138 138 266 266> 685 20G<253 253 381 381>
LayerCount: 2
Back
Fore
SplineSet
295 664 m 1
 293 655 l 1
 293 655 217 600 138 534 c 1
 129 536 l 1
 113 554 l 1
 179 622 253 705 253 705 c 1
 262 702 l 1
 295 664 l 1
423 664 m 1
 421 655 l 1
 421 655 345 600 266 534 c 1
 257 536 l 1
 241 554 l 1
 307 622 381 705 381 705 c 1
 390 702 l 1
 423 664 l 1
EndSplineSet
Validated: 1
EndChar

StartChar: omacron
Encoding: 333 333 194
Width: 406
Flags: MW
HStem: -12 55<162.5 208.5> 404 60<200.5 244> 595 52<252.5 261> 633 20G<406 406>
VStem: 34 72<155 234> 300 75<227 304.5>
LayerCount: 2
Back
Fore
SplineSet
186 43 m 0xdc
 252 43 300 135 300 260 c 0
 300 349 269 404 219 404 c 0
 154 404 106 318 106 202 c 0
 106 108 139 43 186 43 c 0xdc
146 -12 m 0
 80 -12 34 52 34 152 c 0
 34 316 140 464 261 464 c 0
 331 464 375 409 375 315 c 0
 375 139 271 -12 146 -12 c 0
406 653 m 1
 410 643 l 1
 397 596 l 1
 261 595 l 2
 204 595 123 594 123 594 c 1
 118 603 l 1
 133 648 l 1
 133 648 224 647 281 647 c 0xec
 329 647 406 653 406 653 c 1
EndSplineSet
Validated: 1
EndChar

StartChar: oslash
Encoding: 248 248 195
Width: 406
Flags: MW
HStem: -98 21G<51 51> -12 55<177 208.5> 404 60<200.5 227.5> 519 20G<345 345>
VStem: 34 72<183.5 234> 300 75<227 277.5>
LayerCount: 2
Back
Fore
SplineSet
22 -82 m 1
 75 20 l 1
 49 48 34 94 34 152 c 0
 34 316 140 464 261 464 c 0
 276 464 289 462 302 457 c 1
 345 539 l 1
 374 532 l 1
 377 520 l 1
 332 437 l 1
 359 412 375 370 375 315 c 0
 375 139 271 -12 146 -12 c 0
 130 -12 115 -8 102 -1 c 1
 51 -98 l 1
 24 -92 l 1
 22 -82 l 1
186 43 m 0
 252 43 300 135 300 260 c 0
 300 295 295 325 286 349 c 1
 139 69 l 1
 152 52 168 43 186 43 c 0
106 202 m 0
 106 165 111 133 120 107 c 1
 264 384 l 1
 251 397 236 404 219 404 c 0
 154 404 106 318 106 202 c 0
EndSplineSet
Validated: 1
EndChar

StartChar: otilde
Encoding: 245 245 196
Width: 406
Flags: MW
HStem: -12 55<162.5 208.5> 404 60<200.5 244> 573 64<322.5 328> 606 64<199 205.5> 672 20G<403 409 409 409>
VStem: 34 72<155 234> 300 75<227 304.5>
LayerCount: 2
Back
Fore
SplineSet
186 43 m 0xde
 252 43 300 135 300 260 c 0
 300 349 269 404 219 404 c 0
 154 404 106 318 106 202 c 0
 106 108 139 43 186 43 c 0xde
146 -12 m 0
 80 -12 34 52 34 152 c 0
 34 316 140 464 261 464 c 0
 331 464 375 409 375 315 c 0
 375 139 271 -12 146 -12 c 0
125 551 m 1
 118 551 l 1
 99 572 l 1
 100 577 l 1
 184 666 l 1
 199 670 l 1xde
 231 670 309 637 336 637 c 0
 358 637 403 692 403 692 c 1
 409 692 l 1
 429 671 l 1
 428 666 l 1
 344 577 l 1
 328 573 l 1xee
 296 573 219 606 192 606 c 0
 169 606 125 551 125 551 c 1
EndSplineSet
Validated: 1
EndChar

StartChar: p
Encoding: 112 112 197
Width: 465
Flags: MW
HStem: -248 20G<127 182> -235 21G<-16 -16> -209 20G<146 187 187 187> -8 54<238.5 271> 381 83<301.5 360>
LayerCount: 2
Back
Fore
SplineSet
-16 -235 m 1x78
 -10 -199 l 1
 21 -196 32 -183 45 -133 c 0
 58 -83 121 334 121 368 c 0
 121 396 109 408 78 408 c 2
 37 408 l 1
 44 446 l 1
 105 446 206 452 206 452 c 1
 215 440 l 1
 187 361 168 289 153 205 c 1
 157 202 l 1
 229 350 275 419 330 464 c 1
 390 464 432 400 432 307 c 0
 432 156 322 -8 220 -8 c 1
 125 5 l 1
 104 -140 l 2
 99 -178 108 -189 146 -189 c 2
 187 -189 l 1
 188 -195 l 1
 182 -228 l 1xb8
 72 -228 -16 -235 -16 -235 c 1x78
317 381 m 0x78
 286 381 214 260 136 75 c 1
 174 58 224 46 253 46 c 0
 307 46 363 155 363 259 c 0
 363 323 341 381 317 381 c 0x78
EndSplineSet
Validated: 33
EndChar

StartChar: q
Encoding: 113 113 198
Width: 442
Flags: MW
HStem: -239 21G<163 163> -227 40<333 371> -12 81<99.5 156.5> 406 54<206 243> 478 20G<387 387>
LayerCount: 2
Back
Fore
SplineSet
243 -123 m 2xb8
 273 51 l 1
 305 225 l 1
 298 227 l 1
 234 107 181 33 127 -12 c 1
 72 -12 34 49 34 139 c 0
 34 295 151 460 261 460 c 1
 359 444 l 1
 380 496 l 1
 387 498 l 1
 420 487 l 1
 427 475 l 1
 394 415 302 -41 302 -144 c 0
 302 -176 310 -187 333 -187 c 2
 374 -187 l 1
 376 -193 l 1
 371 -227 l 1x78
 266 -227 163 -239 163 -239 c 1
 169 -200 l 1
 222 -193 232 -183 243 -123 c 2xb8
141 69 m 0
 172 69 243 183 329 374 c 1
 293 394 256 406 230 406 c 0
 165 406 102 297 102 184 c 0
 102 123 120 69 141 69 c 0
EndSplineSet
Validated: 1
EndChar

StartChar: r
Encoding: 114 114 199
Width: 346
Flags: MW
HStem: -9 21G<71 79> 440 20G
LayerCount: 2
Back
Fore
SplineSet
64 0 m 1
 64 0 119 324 119 364 c 0
 119 396 108 408 76 408 c 2
 35 408 l 1
 42 446 l 1
 103 446 204 452 204 452 c 1
 213 440 l 1
 213 440 178 332 159 233 c 1
 163 232 l 1
 218 357 300 460 344 460 c 1
 364 443 373 419 373 391 c 0
 373 380 371 369 368 356 c 1
 360 353 l 1
 360 353 349 358 332 358 c 0
 275 358 203 268 148 127 c 1
 133 14 l 2
 132 8 87 -9 71 -9 c 1
 64 0 l 1
EndSplineSet
Validated: 1
EndChar

StartChar: racute
Encoding: 341 341 200
Width: 346
Flags: MW
HStem: -9 21G<71 79> 440 20G 695 20G<263 263>
LayerCount: 2
Back
Fore
SplineSet
64 0 m 1
 64 0 119 324 119 364 c 0
 119 396 108 408 76 408 c 2
 35 408 l 1
 42 446 l 1
 103 446 204 452 204 452 c 1
 213 440 l 1
 213 440 178 332 159 233 c 1
 163 232 l 1
 218 357 300 460 344 460 c 1
 364 443 373 419 373 391 c 0
 373 380 371 369 368 356 c 1
 360 353 l 1
 360 353 349 358 332 358 c 0
 275 358 203 268 148 127 c 1
 133 14 l 2
 132 8 87 -9 71 -9 c 1
 64 0 l 1
311 672 m 1
 310 661 l 1
 310 661 226 597 142 521 c 1
 133 523 l 1
 113 542 l 1
 185 620 263 715 263 715 c 1
 273 713 l 1
 311 672 l 1
EndSplineSet
Validated: 1
EndChar

StartChar: rcaron
Encoding: 345 345 201
Width: 346
Flags: MW
HStem: -9 21G<71 79> 440 20G 690 20G<74 74 319 319>
LayerCount: 2
Back
Fore
SplineSet
64 0 m 1
 64 0 119 324 119 364 c 0
 119 396 108 408 76 408 c 2
 35 408 l 1
 42 446 l 1
 103 446 204 452 204 452 c 1
 213 440 l 1
 213 440 178 332 159 233 c 1
 163 232 l 1
 218 357 300 460 344 460 c 1
 364 443 373 419 373 391 c 0
 373 380 371 369 368 356 c 1
 360 353 l 1
 360 353 349 358 332 358 c 0
 275 358 203 268 148 127 c 1
 133 14 l 2
 132 8 87 -9 71 -9 c 1
 64 0 l 1
47 686 m 1
 66 709 l 1
 74 710 l 1
 117 666 159 630 184 609 c 1
 213 630 266 667 319 710 c 1
 327 709 l 1
 340 686 l 1
 265 615 180 526 180 526 c 1
 167 526 l 1
 167 526 104 615 47 686 c 1
EndSplineSet
Validated: 1
EndChar

StartChar: rcommaaccent
Encoding: 343 343 202
Width: 346
Flags: MW
HStem: -293 21G<38 38> -9 21G<71 79> 440 20G
LayerCount: 2
Back
Fore
SplineSet
64 0 m 1
 64 0 119 324 119 364 c 0
 119 396 108 408 76 408 c 2
 35 408 l 1
 42 446 l 1
 103 446 204 452 204 452 c 1
 213 440 l 1
 213 440 178 332 159 233 c 1
 163 232 l 1
 218 357 300 460 344 460 c 1
 364 443 373 419 373 391 c 0
 373 380 371 369 368 356 c 1
 360 353 l 1
 360 353 349 358 332 358 c 0
 275 358 203 268 148 127 c 1
 133 14 l 2
 132 8 87 -9 71 -9 c 1
 64 0 l 1
52 -107 m 1
 54 -93 l 1
 67 -83 90 -67 112 -67 c 0
 142 -67 166 -94 166 -138 c 0
 166 -210 93 -264 38 -293 c 1
 20 -278 l 1
 20 -268 l 1
 60 -243 92 -203 92 -169 c 0
 92 -142 74 -120 52 -107 c 1
EndSplineSet
Validated: 1
EndChar

StartChar: s
Encoding: 115 115 203
Width: 339
Flags: MW
HStem: -12 46<122 167> 416 48<180.5 210>
LayerCount: 2
Back
Fore
SplineSet
43 138 m 1
 57 138 l 1
 57 70 91 34 153 34 c 0
 191 34 223 63 223 98 c 0
 223 132 194 160 160 189 c 0
 116 227 66 267 66 324 c 0
 66 399 139 464 222 464 c 0
 267 464 306 449 325 424 c 1
 317 400 300 365 291 346 c 1
 277 346 l 1
 262 390 230 416 190 416 c 0
 158 416 133 393 133 362 c 0
 133 340 145 321 163 302 c 0
 208 254 289 209 289 137 c 0
 289 60 210 -12 124 -12 c 0
 63 -12 18 9 7 44 c 1
 15 74 32 119 43 138 c 1
EndSplineSet
Validated: 1
EndChar

StartChar: sacute
Encoding: 347 347 204
Width: 339
Flags: MW
HStem: -12 46<122 167> 416 48<180.5 210> 695 20G<321 321>
LayerCount: 2
Back
Fore
SplineSet
43 138 m 1
 57 138 l 1
 57 70 91 34 153 34 c 0
 191 34 223 63 223 98 c 0
 223 132 194 160 160 189 c 0
 116 227 66 267 66 324 c 0
 66 399 139 464 222 464 c 0
 267 464 306 449 325 424 c 1
 317 400 300 365 291 346 c 1
 277 346 l 1
 262 390 230 416 190 416 c 0
 158 416 133 393 133 362 c 0
 133 340 145 321 163 302 c 0
 208 254 289 209 289 137 c 0
 289 60 210 -12 124 -12 c 0
 63 -12 18 9 7 44 c 1
 15 74 32 119 43 138 c 1
369 672 m 1
 368 661 l 1
 368 661 284 597 200 521 c 1
 191 523 l 1
 171 542 l 1
 243 620 321 715 321 715 c 1
 331 713 l 1
 369 672 l 1
EndSplineSet
Validated: 1
EndChar

StartChar: scaron
Encoding: 353 353 205
Width: 339
Flags: MW
HStem: -12 46<122 167> 416 48<180.5 210> 690 20G<132 132 377 377>
LayerCount: 2
Back
Fore
SplineSet
43 138 m 1
 57 138 l 1
 57 70 91 34 153 34 c 0
 191 34 223 63 223 98 c 0
 223 132 194 160 160 189 c 0
 116 227 66 267 66 324 c 0
 66 399 139 464 222 464 c 0
 267 464 306 449 325 424 c 1
 317 400 300 365 291 346 c 1
 277 346 l 1
 262 390 230 416 190 416 c 0
 158 416 133 393 133 362 c 0
 133 340 145 321 163 302 c 0
 208 254 289 209 289 137 c 0
 289 60 210 -12 124 -12 c 0
 63 -12 18 9 7 44 c 1
 15 74 32 119 43 138 c 1
105 686 m 1
 124 709 l 1
 132 710 l 1
 175 666 217 630 242 609 c 1
 271 630 324 667 377 710 c 1
 385 709 l 1
 398 686 l 1
 323 615 238 526 238 526 c 1
 225 526 l 1
 225 526 162 615 105 686 c 1
EndSplineSet
Validated: 1
EndChar

StartChar: scedilla
Encoding: 351 351 206
Width: 339
Flags: MW
HStem: -233 21G<65 107> -218 20G<88 116.5> -161 20G<49 57 57 57> -12 46<111 172> 416 48<180.5 210>
LayerCount: 2
Back
Fore
SplineSet
81 -85 m 1x78
 111 -12 l 1
 57 -9 17 11 7 44 c 1
 15 74 32 119 43 138 c 1
 57 138 l 1
 57 70 91 34 153 34 c 0
 191 34 223 63 223 98 c 0
 223 132 194 160 160 189 c 0
 116 227 66 267 66 324 c 0
 66 399 139 464 222 464 c 0
 267 464 306 449 325 424 c 1
 317 400 300 365 291 346 c 1
 277 346 l 1
 262 390 230 416 190 416 c 0
 158 416 133 393 133 362 c 0
 133 340 145 321 163 302 c 0
 208 254 289 209 289 137 c 0
 289 69 227 4 153 -9 c 1
 135 -50 l 1
 163 -72 207 -100 207 -135 c 0
 207 -188 135 -233 79 -233 c 0xb8
 51 -233 17 -221 17 -199 c 0
 17 -186 36 -158 49 -141 c 1
 57 -141 l 1
 54 -178 73 -198 103 -198 c 0
 130 -198 154 -181 154 -158 c 0
 154 -135 115 -107 81 -85 c 1x78
EndSplineSet
Validated: 33
EndChar

StartChar: scommaaccent
Encoding: 537 537 207
Width: 339
Flags: MW
HStem: -293 21G<79 79> -67 55<142 167 93.5 168> -12 46<122 167> 416 48<180.5 210>
LayerCount: 2
Back
Fore
SplineSet
43 138 m 1xb0
 57 138 l 1
 57 70 91 34 153 34 c 0
 191 34 223 63 223 98 c 0
 223 132 194 160 160 189 c 0
 116 227 66 267 66 324 c 0
 66 399 139 464 222 464 c 0
 267 464 306 449 325 424 c 1
 317 400 300 365 291 346 c 1
 277 346 l 1
 262 390 230 416 190 416 c 0
 158 416 133 393 133 362 c 0
 133 340 145 321 163 302 c 0
 208 254 289 209 289 137 c 0
 289 60 210 -12 124 -12 c 0
 63 -12 18 9 7 44 c 1
 15 74 32 119 43 138 c 1xb0
93 -107 m 1
 95 -93 l 1
 108 -83 131 -67 153 -67 c 0xd0
 183 -67 207 -94 207 -138 c 0
 207 -210 134 -264 79 -293 c 1
 61 -278 l 1
 61 -268 l 1
 101 -243 133 -203 133 -169 c 0
 133 -142 115 -120 93 -107 c 1
EndSplineSet
Validated: 1
EndChar

StartChar: t
Encoding: 116 116 208
Width: 285
Flags: MW
HStem: -12 72<96 152> 407 42 587 20G<226 226>
LayerCount: 2
Back
Fore
SplineSet
242 129 m 1
 255 128 l 1
 267 104 l 1
 210 41 148 -12 116 -12 c 0
 76 -12 53 14 58 55 c 2
 113 398 l 1
 108 402 l 1
 39 405 l 1
 36 410 l 1
 40 439 l 1
 120 452 l 1
 128 509 136 572 136 572 c 1
 226 607 l 1
 232 595 l 1
 232 595 210 527 192 449 c 1
 314 450 l 1
 318 447 l 1
 310 407 l 1
 192 408 l 1
 181 402 l 1
 120 95 l 2
 117 72 124 60 143 60 c 0
 161 60 188 78 242 129 c 1
EndSplineSet
Validated: 33
EndChar

StartChar: tbar
Encoding: 359 359 209
Width: 285
Flags: MW
HStem: -12 72<96 152> 239 48 407 42 587 20G<226 226>
LayerCount: 2
Back
Fore
SplineSet
242 129 m 1
 255 128 l 1
 267 104 l 1
 210 41 148 -12 116 -12 c 0
 76 -12 53 14 58 55 c 2
 87 238 l 1
 13 238 l 1
 4 247 l 1
 11 286 l 1
 95 285 l 1
 113 398 l 1
 108 402 l 1
 39 405 l 1
 36 410 l 1
 40 439 l 1
 120 452 l 1
 128 509 136 572 136 572 c 1
 226 607 l 1
 232 595 l 1
 232 595 210 527 192 449 c 1
 314 450 l 1
 318 447 l 1
 310 407 l 1
 192 408 l 1
 181 402 l 1
 158 285 l 1
 256 290 l 1
 269 277 l 1
 265 240 l 1
 148 239 l 1
 120 95 l 2
 117 72 124 60 143 60 c 0
 161 60 188 78 242 129 c 1
EndSplineSet
Validated: 33
EndChar

StartChar: tcedilla
Encoding: 355 355 210
Width: 285
Flags: MW
HStem: -233 21G<70 112> -218 20G<93 121.5> -161 20G<54 62 62 62> -12 21G<96 116> 407 42 587 20G<226 226>
LayerCount: 2
Back
Fore
SplineSet
86 -85 m 1x7c
 116 -12 l 1
 76 -12 53 14 58 55 c 2
 113 398 l 1
 108 402 l 1
 39 405 l 1
 36 410 l 1
 40 439 l 1
 120 452 l 1
 128 509 136 572 136 572 c 1
 226 607 l 1
 232 595 l 1
 232 595 210 527 192 449 c 1
 314 450 l 1
 318 447 l 1
 310 407 l 1
 192 408 l 1
 181 402 l 1
 120 95 l 2
 117 72 124 60 143 60 c 0
 161 60 188 78 242 129 c 1
 255 128 l 1
 267 104 l 1
 233 67 198 33 168 11 c 1
 140 -50 l 1
 168 -72 212 -100 212 -135 c 0
 212 -188 140 -233 84 -233 c 0xbc
 56 -233 22 -221 22 -199 c 0
 22 -186 41 -158 54 -141 c 1
 62 -141 l 1
 59 -178 78 -198 108 -198 c 0
 135 -198 159 -181 159 -158 c 0
 159 -135 120 -107 86 -85 c 1x7c
EndSplineSet
Validated: 33
EndChar

StartChar: u
Encoding: 117 117 211
Width: 486
Flags: MW
HStem: -12 79<112 171> 436 20G<374 374>
LayerCount: 2
Back
Fore
SplineSet
330 225 m 1
 321 228 l 1
 261 113 201 34 139 -12 c 1
 85 -12 51 21 51 72 c 0
 51 129 125 328 125 372 c 0
 125 397 112 408 83 408 c 2
 42 408 l 1
 50 446 l 1
 111 446 212 452 212 452 c 1
 221 440 l 1
 221 440 122 162 122 102 c 0
 122 78 131 67 152 67 c 0
 190 67 271 189 347 358 c 1
 365 453 l 1
 374 456 l 1
 432 447 l 1
 439 439 l 1
 439 439 382 250 356 64 c 1
 359 60 l 1
 369 60 378 67 438 119 c 1
 450 118 l 1
 463 94 l 1
 378 14 343 -12 323 -12 c 0
 299 -12 287 -2 287 16 c 0
 287 42 330 225 330 225 c 1
EndSplineSet
Validated: 1
EndChar

StartChar: uacute
Encoding: 250 250 212
Width: 486
Flags: MW
HStem: -12 79<112 171> 695 20G<376 376>
LayerCount: 2
Back
Fore
SplineSet
330 225 m 1
 321 228 l 1
 261 113 201 34 139 -12 c 1
 85 -12 51 21 51 72 c 0
 51 129 125 328 125 372 c 0
 125 397 112 408 83 408 c 2
 42 408 l 1
 50 446 l 1
 111 446 212 452 212 452 c 1
 221 440 l 1
 221 440 122 162 122 102 c 0
 122 78 131 67 152 67 c 0
 190 67 271 189 347 358 c 1
 365 453 l 1
 374 456 l 1
 432 447 l 1
 439 439 l 1
 439 439 382 250 356 64 c 1
 359 60 l 1
 369 60 378 67 438 119 c 1
 450 118 l 1
 463 94 l 1
 378 14 343 -12 323 -12 c 0
 299 -12 287 -2 287 16 c 0
 287 42 330 225 330 225 c 1
424 672 m 1
 423 661 l 1
 423 661 339 597 255 521 c 1
 246 523 l 1
 226 542 l 1
 298 620 376 715 376 715 c 1
 386 713 l 1
 424 672 l 1
EndSplineSet
Validated: 1
EndChar

StartChar: ucircumflex
Encoding: 251 251 213
Width: 486
Flags: MW
HStem: -12 79<112 171> 683 20G<300 314 314 314>
LayerCount: 2
Back
Fore
SplineSet
330 225 m 1
 321 228 l 1
 261 113 201 34 139 -12 c 1
 85 -12 51 21 51 72 c 0
 51 129 125 328 125 372 c 0
 125 397 112 408 83 408 c 2
 42 408 l 1
 50 446 l 1
 111 446 212 452 212 452 c 1
 221 440 l 1
 221 440 122 162 122 102 c 0
 122 78 131 67 152 67 c 0
 190 67 271 189 347 358 c 1
 365 453 l 1
 374 456 l 1
 432 447 l 1
 439 439 l 1
 439 439 382 250 356 64 c 1
 359 60 l 1
 369 60 378 67 438 119 c 1
 450 118 l 1
 463 94 l 1
 378 14 343 -12 323 -12 c 0
 299 -12 287 -2 287 16 c 0
 287 42 330 225 330 225 c 1
160 528 m 1
 148 550 l 1
 300 703 l 1
 314 703 l 1
 429 550 l 1
 412 528 l 1
 403 527 l 1
 298 624 l 1
 169 527 l 1
 160 528 l 1
EndSplineSet
Validated: 1
EndChar

StartChar: udieresis
Encoding: 252 252 214
Width: 486
Flags: MW
HStem: -12 79<112 171> 566 93<209.5 220.5 369.5 380.5>
LayerCount: 2
Back
Fore
SplineSet
330 225 m 1
 321 228 l 1
 261 113 201 34 139 -12 c 1
 85 -12 51 21 51 72 c 0
 51 129 125 328 125 372 c 0
 125 397 112 408 83 408 c 2
 42 408 l 1
 50 446 l 1
 111 446 212 452 212 452 c 1
 221 440 l 1
 221 440 122 162 122 102 c 0
 122 78 131 67 152 67 c 0
 190 67 271 189 347 358 c 1
 365 453 l 1
 374 456 l 1
 432 447 l 1
 439 439 l 1
 439 439 382 250 356 64 c 1
 359 60 l 1
 369 60 378 67 438 119 c 1
 450 118 l 1
 463 94 l 1
 378 14 343 -12 323 -12 c 0
 299 -12 287 -2 287 16 c 0
 287 42 330 225 330 225 c 1
365 566 m 0
 341 566 329 585 329 604 c 0
 329 633 354 659 385 659 c 0
 409 659 420 641 420 621 c 0
 420 592 396 566 365 566 c 0
205 566 m 0
 181 566 169 585 169 604 c 0
 169 633 194 659 225 659 c 0
 249 659 260 641 260 621 c 0
 260 592 236 566 205 566 c 0
EndSplineSet
Validated: 1
EndChar

StartChar: ugrave
Encoding: 249 249 215
Width: 486
Flags: MW
HStem: -12 79<112 171> 694 20G<221 221>
LayerCount: 2
Back
Fore
SplineSet
330 225 m 1
 321 228 l 1
 261 113 201 34 139 -12 c 1
 85 -12 51 21 51 72 c 0
 51 129 125 328 125 372 c 0
 125 397 112 408 83 408 c 2
 42 408 l 1
 50 446 l 1
 111 446 212 452 212 452 c 1
 221 440 l 1
 221 440 122 162 122 102 c 0
 122 78 131 67 152 67 c 0
 190 67 271 189 347 358 c 1
 365 453 l 1
 374 456 l 1
 432 447 l 1
 439 439 l 1
 439 439 382 250 356 64 c 1
 359 60 l 1
 369 60 378 67 438 119 c 1
 450 118 l 1
 463 94 l 1
 378 14 343 -12 323 -12 c 0
 299 -12 287 -2 287 16 c 0
 287 42 330 225 330 225 c 1
174 660 m 1
 173 671 l 1
 211 712 l 1
 221 714 l 1
 221 714 299 620 371 542 c 1
 351 523 l 1
 342 521 l 1
 258 597 174 660 174 660 c 1
EndSplineSet
Validated: 1
EndChar

StartChar: uhungarumlaut
Encoding: 369 369 216
Width: 486
Flags: MW
HStem: -12 79<112 171> 685 20G<319 319 447 447>
LayerCount: 2
Back
Fore
SplineSet
330 225 m 1
 321 228 l 1
 261 113 201 34 139 -12 c 1
 85 -12 51 21 51 72 c 0
 51 129 125 328 125 372 c 0
 125 397 112 408 83 408 c 2
 42 408 l 1
 50 446 l 1
 111 446 212 452 212 452 c 1
 221 440 l 1
 221 440 122 162 122 102 c 0
 122 78 131 67 152 67 c 0
 190 67 271 189 347 358 c 1
 365 453 l 1
 374 456 l 1
 432 447 l 1
 439 439 l 1
 439 439 382 250 356 64 c 1
 359 60 l 1
 369 60 378 67 438 119 c 1
 450 118 l 1
 463 94 l 1
 378 14 343 -12 323 -12 c 0
 299 -12 287 -2 287 16 c 0
 287 42 330 225 330 225 c 1
361 664 m 1
 359 655 l 1
 359 655 283 600 204 534 c 1
 195 536 l 1
 179 554 l 1
 245 622 319 705 319 705 c 1
 328 702 l 1
 361 664 l 1
489 664 m 1
 487 655 l 1
 487 655 411 600 332 534 c 1
 323 536 l 1
 307 554 l 1
 373 622 447 705 447 705 c 1
 456 702 l 1
 489 664 l 1
EndSplineSet
Validated: 1
EndChar

StartChar: umacron
Encoding: 363 363 217
Width: 486
Flags: MW
HStem: -12 79<112 171> 595 52<285.5 294> 633 20G<439 439>
LayerCount: 2
Back
Fore
SplineSet
330 225 m 1xa0
 321 228 l 1
 261 113 201 34 139 -12 c 1
 85 -12 51 21 51 72 c 0
 51 129 125 328 125 372 c 0
 125 397 112 408 83 408 c 2
 42 408 l 1
 50 446 l 1
 111 446 212 452 212 452 c 1
 221 440 l 1
 221 440 122 162 122 102 c 0
 122 78 131 67 152 67 c 0
 190 67 271 189 347 358 c 1
 365 453 l 1
 374 456 l 1
 432 447 l 1
 439 439 l 1
 439 439 382 250 356 64 c 1
 359 60 l 1
 369 60 378 67 438 119 c 1
 450 118 l 1
 463 94 l 1
 378 14 343 -12 323 -12 c 0
 299 -12 287 -2 287 16 c 0
 287 42 330 225 330 225 c 1xa0
439 653 m 1
 443 643 l 1
 430 596 l 1
 294 595 l 2
 237 595 156 594 156 594 c 1
 151 603 l 1
 166 648 l 1
 166 648 257 647 314 647 c 0xc0
 362 647 439 653 439 653 c 1
EndSplineSet
Validated: 1
EndChar

StartChar: uogonek
Encoding: 371 371 218
Width: 486
Flags: MW
HStem: -241 59<277.5 341.5> -12 79<112 171> 436 20G<374 374>
LayerCount: 2
Back
Fore
SplineSet
400 -159 m 1
 410 -178 l 1
 410 -178 357 -224 306 -241 c 1
 249 -241 210 -211 210 -158 c 0
 210 -109 252 -63 308 -10 c 1
 294 -7 287 2 287 16 c 0
 287 42 330 225 330 225 c 1
 321 228 l 1
 261 113 201 34 139 -12 c 1
 85 -12 51 21 51 72 c 0
 51 129 125 328 125 372 c 0
 125 397 112 408 83 408 c 2
 42 408 l 1
 50 446 l 1
 111 446 212 452 212 452 c 1
 221 440 l 1
 221 440 122 162 122 102 c 0
 122 78 131 67 152 67 c 0
 190 67 271 189 347 358 c 1
 365 453 l 1
 374 456 l 1
 432 447 l 1
 439 439 l 1
 439 439 382 250 356 64 c 1
 359 60 l 1
 369 60 378 67 438 119 c 1
 450 118 l 1
 463 94 l 1
 353 -9 274 -68 274 -134 c 0
 274 -162 293 -182 323 -182 c 0
 360 -182 400 -159 400 -159 c 1
EndSplineSet
Validated: 1
EndChar

StartChar: uring
Encoding: 367 367 219
Width: 486
Flags: MW
HStem: -12 79<112 171> 544 164<284 311.5>
LayerCount: 2
Back
Fore
SplineSet
330 225 m 1
 321 228 l 1
 261 113 201 34 139 -12 c 1
 85 -12 51 21 51 72 c 0
 51 129 125 328 125 372 c 0
 125 397 112 408 83 408 c 2
 42 408 l 1
 50 446 l 1
 111 446 212 452 212 452 c 1
 221 440 l 1
 221 440 122 162 122 102 c 0
 122 78 131 67 152 67 c 0
 190 67 271 189 347 358 c 1
 365 453 l 1
 374 456 l 1
 432 447 l 1
 439 439 l 1
 439 439 382 250 356 64 c 1
 359 60 l 1
 369 60 378 67 438 119 c 1
 450 118 l 1
 463 94 l 1
 378 14 343 -12 323 -12 c 0
 299 -12 287 -2 287 16 c 0
 287 42 330 225 330 225 c 1
294 582 m 0
 311 582 342 587 342 627 c 0
 342 652 327 669 298 669 c 0
 268 669 251 651 251 624 c 0
 251 594 276 582 294 582 c 0
283 544 m 0
 240 544 218 572 218 612 c 0
 218 667 257 708 311 708 c 0
 359 708 377 676 377 642 c 0
 377 592 340 544 283 544 c 0
EndSplineSet
Validated: 1
EndChar

StartChar: v
Encoding: 118 118 220
Width: 421
Flags: MW
HStem: -11 21G<148 206 148 148> 444 20G<371 371>
VStem: 334 72<353.5 372.5>
LayerCount: 2
Back
Fore
SplineSet
206 -11 m 1
 148 -11 l 1
 133 1 l 1
 130 105 115 261 97 362 c 0
 92 393 82 402 56 402 c 0
 45 402 4 397 4 397 c 1
 7 435 l 1
 68 443 155 459 155 459 c 1
 166 449 l 1
 181 333 188 207 187 58 c 1
 196 58 l 1
 283 183 334 290 334 346 c 0
 334 399 286 425 286 425 c 1
 290 442 l 1
 371 464 l 1
 393 450 406 421 406 388 c 0
 406 319 336 179 206 -11 c 1
EndSplineSet
Validated: 33
EndChar

StartChar: w
Encoding: 119 119 221
Width: 643
Flags: MW
HStem: -11 21G<148 206 148 148 374 432 374 374> 444 20G<369 369 593 593>
VStem: 556 72<354 373>
LayerCount: 2
Back
Fore
SplineSet
187 58 m 1
 196 58 l 1
 257 147 301 229 323 294 c 1
 306 437 l 1
 313 447 l 1
 369 464 l 1
 391 450 404 421 404 388 c 0
 404 367 399 346 386 313 c 1
 413 58 l 1
 422 58 l 1
 505 180 556 291 556 347 c 0
 556 399 508 425 508 425 c 1
 512 442 l 1
 593 464 l 1
 615 449 628 422 628 388 c 0
 628 320 561 183 432 -11 c 1
 374 -11 l 1
 359 1 l 1
 338 199 l 1
 331 199 l 1
 302 144 261 75 206 -11 c 1
 148 -11 l 1
 133 1 l 1
 130 109 114 264 97 362 c 0
 92 392 83 402 56 402 c 0
 45 402 4 397 4 397 c 1
 7 435 l 1
 68 443 155 459 155 459 c 1
 166 449 l 1
 181 331 188 205 187 58 c 1
EndSplineSet
Validated: 33
EndChar

StartChar: wacute
Encoding: 7811 7811 222
Width: 643
Flags: MW
HStem: -11 21G<148 206 148 148 374 432 374 374> 695 20G<474 474>
VStem: 556 72<354 373>
LayerCount: 2
Back
Fore
SplineSet
187 58 m 1
 196 58 l 1
 257 147 301 229 323 294 c 1
 306 437 l 1
 313 447 l 1
 369 464 l 1
 391 450 404 421 404 388 c 0
 404 367 399 346 386 313 c 1
 413 58 l 1
 422 58 l 1
 505 180 556 291 556 347 c 0
 556 399 508 425 508 425 c 1
 512 442 l 1
 593 464 l 1
 615 449 628 422 628 388 c 0
 628 320 561 183 432 -11 c 1
 374 -11 l 1
 359 1 l 1
 338 199 l 1
 331 199 l 1
 302 144 261 75 206 -11 c 1
 148 -11 l 1
 133 1 l 1
 130 109 114 264 97 362 c 0
 92 392 83 402 56 402 c 0
 45 402 4 397 4 397 c 1
 7 435 l 1
 68 443 155 459 155 459 c 1
 166 449 l 1
 181 331 188 205 187 58 c 1
522 672 m 1
 521 661 l 1
 521 661 437 597 353 521 c 1
 344 523 l 1
 324 542 l 1
 396 620 474 715 474 715 c 1
 484 713 l 1
 522 672 l 1
EndSplineSet
Validated: 33
EndChar

StartChar: wcircumflex
Encoding: 373 373 223
Width: 643
Flags: MW
HStem: -11 21G<148 206 148 148 374 432 374 374> 683 20G<398 412 412 412>
VStem: 556 72<354 373>
LayerCount: 2
Back
Fore
SplineSet
187 58 m 1
 196 58 l 1
 257 147 301 229 323 294 c 1
 306 437 l 1
 313 447 l 1
 369 464 l 1
 391 450 404 421 404 388 c 0
 404 367 399 346 386 313 c 1
 413 58 l 1
 422 58 l 1
 505 180 556 291 556 347 c 0
 556 399 508 425 508 425 c 1
 512 442 l 1
 593 464 l 1
 615 449 628 422 628 388 c 0
 628 320 561 183 432 -11 c 1
 374 -11 l 1
 359 1 l 1
 338 199 l 1
 331 199 l 1
 302 144 261 75 206 -11 c 1
 148 -11 l 1
 133 1 l 1
 130 109 114 264 97 362 c 0
 92 392 83 402 56 402 c 0
 45 402 4 397 4 397 c 1
 7 435 l 1
 68 443 155 459 155 459 c 1
 166 449 l 1
 181 331 188 205 187 58 c 1
258 528 m 1
 246 550 l 1
 398 703 l 1
 412 703 l 1
 527 550 l 1
 510 528 l 1
 501 527 l 1
 396 624 l 1
 267 527 l 1
 258 528 l 1
EndSplineSet
Validated: 33
EndChar

StartChar: wdieresis
Encoding: 7813 7813 224
Width: 643
Flags: MW
HStem: -11 21G<148 206 148 148 374 432 374 374> 566 93<307.5 318.5 467.5 478.5>
VStem: 556 72<354 373>
LayerCount: 2
Back
Fore
SplineSet
187 58 m 1
 196 58 l 1
 257 147 301 229 323 294 c 1
 306 437 l 1
 313 447 l 1
 369 464 l 1
 391 450 404 421 404 388 c 0
 404 367 399 346 386 313 c 1
 413 58 l 1
 422 58 l 1
 505 180 556 291 556 347 c 0
 556 399 508 425 508 425 c 1
 512 442 l 1
 593 464 l 1
 615 449 628 422 628 388 c 0
 628 320 561 183 432 -11 c 1
 374 -11 l 1
 359 1 l 1
 338 199 l 1
 331 199 l 1
 302 144 261 75 206 -11 c 1
 148 -11 l 1
 133 1 l 1
 130 109 114 264 97 362 c 0
 92 392 83 402 56 402 c 0
 45 402 4 397 4 397 c 1
 7 435 l 1
 68 443 155 459 155 459 c 1
 166 449 l 1
 181 331 188 205 187 58 c 1
463 566 m 0
 439 566 427 585 427 604 c 0
 427 633 452 659 483 659 c 0
 507 659 518 641 518 621 c 0
 518 592 494 566 463 566 c 0
303 566 m 0
 279 566 267 585 267 604 c 0
 267 633 292 659 323 659 c 0
 347 659 358 641 358 621 c 0
 358 592 334 566 303 566 c 0
EndSplineSet
Validated: 33
EndChar

StartChar: wgrave
Encoding: 7809 7809 225
Width: 643
Flags: MW
HStem: -11 21G<148 206 148 148 374 432 374 374> 694 20G<319 319>
VStem: 556 72<354 373>
LayerCount: 2
Back
Fore
SplineSet
187 58 m 1
 196 58 l 1
 257 147 301 229 323 294 c 1
 306 437 l 1
 313 447 l 1
 369 464 l 1
 391 450 404 421 404 388 c 0
 404 367 399 346 386 313 c 1
 413 58 l 1
 422 58 l 1
 505 180 556 291 556 347 c 0
 556 399 508 425 508 425 c 1
 512 442 l 1
 593 464 l 1
 615 449 628 422 628 388 c 0
 628 320 561 183 432 -11 c 1
 374 -11 l 1
 359 1 l 1
 338 199 l 1
 331 199 l 1
 302 144 261 75 206 -11 c 1
 148 -11 l 1
 133 1 l 1
 130 109 114 264 97 362 c 0
 92 392 83 402 56 402 c 0
 45 402 4 397 4 397 c 1
 7 435 l 1
 68 443 155 459 155 459 c 1
 166 449 l 1
 181 331 188 205 187 58 c 1
272 660 m 1
 271 671 l 1
 309 712 l 1
 319 714 l 1
 319 714 397 620 469 542 c 1
 449 523 l 1
 440 521 l 1
 356 597 272 660 272 660 c 1
EndSplineSet
Validated: 33
EndChar

StartChar: x
Encoding: 120 120 226
Width: 462
Flags: MW
HStem: -12 47<49.5 71> -12 72<287.5 339.5> 392 72<120 181.5> 411 53<384.5 397>
LayerCount: 2
Back
Fore
SplineSet
416 464 m 0xa0
 443 464 465 453 477 434 c 1
 467 408 455 380 443 356 c 1
 429 356 l 1
 420 392 406 411 388 411 c 0
 355 411 324 367 269 239 c 1
 302 99 316 60 334 60 c 0x50
 345 60 359 69 423 119 c 1
 435 118 l 1
 448 94 l 1
 367 12 334 -12 301 -12 c 0
 274 -12 255 30 215 176 c 1
 156 42 105 -12 37 -12 c 0
 5 -12 -18 2 -20 24 c 1
 -14 48 3 89 15 108 c 1
 29 108 l 1
 26 63 38 35 61 35 c 0
 95 35 138 98 191 226 c 1
 149 372 141 392 125 392 c 0
 115 392 102 383 47 333 c 1
 34 334 l 1
 22 358 l 1
 90 433 134 464 169 464 c 0
 194 464 210 428 247 290 c 1
 303 412 353 464 416 464 c 0xa0
EndSplineSet
Validated: 33
EndChar

StartChar: y
Encoding: 121 121 227
Width: 438
Flags: MW
HStem: -243 78<-24.5 1> -146 20G<-92 -78 -78 -78> 444 20G<388 388>
LayerCount: 2
Back
Fore
SplineSet
303 425 m 1
 307 442 l 1
 388 464 l 1
 409 451 423 422 423 388 c 0
 423 325 361 199 243 21 c 0
 119 -163 36 -243 -34 -243 c 0
 -73 -243 -104 -228 -110 -206 c 0
 -110 -196 -103 -162 -92 -126 c 1
 -78 -126 l 1
 -63 -150 -38 -165 -11 -165 c 0
 42 -165 82 -135 151 -43 c 1
 143 111 131 231 113 362 c 0
 108 392 99 402 72 402 c 0
 61 402 20 397 20 397 c 1
 23 435 l 1
 171 459 l 1
 182 449 l 1
 196 336 203 209 202 48 c 1
 212 48 l 1
 303 191 351 294 351 346 c 0
 351 376 333 405 303 425 c 1
EndSplineSet
Validated: 33
EndChar

StartChar: yacute
Encoding: 253 253 228
Width: 438
Flags: MW
HStem: -243 78<-24.5 1> -146 20G<-92 -78 -78 -78> 695 20G<350 350>
LayerCount: 2
Back
Fore
SplineSet
303 425 m 1
 307 442 l 1
 388 464 l 1
 409 451 423 422 423 388 c 0
 423 325 361 199 243 21 c 0
 119 -163 36 -243 -34 -243 c 0
 -73 -243 -104 -228 -110 -206 c 0
 -110 -196 -103 -162 -92 -126 c 1
 -78 -126 l 1
 -63 -150 -38 -165 -11 -165 c 0
 42 -165 82 -135 151 -43 c 1
 143 111 131 231 113 362 c 0
 108 392 99 402 72 402 c 0
 61 402 20 397 20 397 c 1
 23 435 l 1
 171 459 l 1
 182 449 l 1
 196 336 203 209 202 48 c 1
 212 48 l 1
 303 191 351 294 351 346 c 0
 351 376 333 405 303 425 c 1
398 672 m 1
 397 661 l 1
 397 661 313 597 229 521 c 1
 220 523 l 1
 200 542 l 1
 272 620 350 715 350 715 c 1
 360 713 l 1
 398 672 l 1
EndSplineSet
Validated: 33
EndChar

StartChar: ycircumflex
Encoding: 375 375 229
Width: 438
Flags: MW
HStem: -243 78<-24.5 1> -146 20G<-92 -78 -78 -78> 683 20G<274 288 288 288>
LayerCount: 2
Back
Fore
SplineSet
303 425 m 1
 307 442 l 1
 388 464 l 1
 409 451 423 422 423 388 c 0
 423 325 361 199 243 21 c 0
 119 -163 36 -243 -34 -243 c 0
 -73 -243 -104 -228 -110 -206 c 0
 -110 -196 -103 -162 -92 -126 c 1
 -78 -126 l 1
 -63 -150 -38 -165 -11 -165 c 0
 42 -165 82 -135 151 -43 c 1
 143 111 131 231 113 362 c 0
 108 392 99 402 72 402 c 0
 61 402 20 397 20 397 c 1
 23 435 l 1
 171 459 l 1
 182 449 l 1
 196 336 203 209 202 48 c 1
 212 48 l 1
 303 191 351 294 351 346 c 0
 351 376 333 405 303 425 c 1
134 528 m 1
 122 550 l 1
 274 703 l 1
 288 703 l 1
 403 550 l 1
 386 528 l 1
 377 527 l 1
 272 624 l 1
 143 527 l 1
 134 528 l 1
EndSplineSet
Validated: 33
EndChar

StartChar: ydieresis
Encoding: 255 255 230
Width: 438
Flags: MW
HStem: -243 78<-24.5 1> -146 20G<-92 -78 -78 -78> 566 93<183.5 194.5 343.5 354.5>
LayerCount: 2
Back
Fore
SplineSet
303 425 m 1
 307 442 l 1
 388 464 l 1
 409 451 423 422 423 388 c 0
 423 325 361 199 243 21 c 0
 119 -163 36 -243 -34 -243 c 0
 -73 -243 -104 -228 -110 -206 c 0
 -110 -196 -103 -162 -92 -126 c 1
 -78 -126 l 1
 -63 -150 -38 -165 -11 -165 c 0
 42 -165 82 -135 151 -43 c 1
 143 111 131 231 113 362 c 0
 108 392 99 402 72 402 c 0
 61 402 20 397 20 397 c 1
 23 435 l 1
 171 459 l 1
 182 449 l 1
 196 336 203 209 202 48 c 1
 212 48 l 1
 303 191 351 294 351 346 c 0
 351 376 333 405 303 425 c 1
339 566 m 0
 315 566 303 585 303 604 c 0
 303 633 328 659 359 659 c 0
 383 659 394 641 394 621 c 0
 394 592 370 566 339 566 c 0
179 566 m 0
 155 566 143 585 143 604 c 0
 143 633 168 659 199 659 c 0
 223 659 234 641 234 621 c 0
 234 592 210 566 179 566 c 0
EndSplineSet
Validated: 33
EndChar

StartChar: ygrave
Encoding: 7923 7923 231
Width: 438
Flags: MW
HStem: -243 78<-24.5 1> -146 20G<-92 -78 -78 -78> 694 20G<195 195>
LayerCount: 2
Back
Fore
SplineSet
303 425 m 1
 307 442 l 1
 388 464 l 1
 409 451 423 422 423 388 c 0
 423 325 361 199 243 21 c 0
 119 -163 36 -243 -34 -243 c 0
 -73 -243 -104 -228 -110 -206 c 0
 -110 -196 -103 -162 -92 -126 c 1
 -78 -126 l 1
 -63 -150 -38 -165 -11 -165 c 0
 42 -165 82 -135 151 -43 c 1
 143 111 131 231 113 362 c 0
 108 392 99 402 72 402 c 0
 61 402 20 397 20 397 c 1
 23 435 l 1
 171 459 l 1
 182 449 l 1
 196 336 203 209 202 48 c 1
 212 48 l 1
 303 191 351 294 351 346 c 0
 351 376 333 405 303 425 c 1
148 660 m 1
 147 671 l 1
 185 712 l 1
 195 714 l 1
 195 714 273 620 345 542 c 1
 325 523 l 1
 316 521 l 1
 232 597 148 660 148 660 c 1
EndSplineSet
Validated: 33
EndChar

StartChar: z
Encoding: 122 122 232
Width: 398
Flags: MW
HStem: -12 79<256.5 294.5 254 311> 33 56<134 138.5> 384 52<283 283> 451 20G<335 351>
LayerCount: 2
Back
Fore
SplineSet
90 320 m 1x70
 51 314 l 1
 51 314 75 392 85 454 c 1
 99 464 l 1
 99 464 213 436 304 436 c 0
 319 436 325 439 335 451 c 2
 351 471 l 1
 395 464 l 1
 400 445 l 1
 287 313 166 164 105 82 c 1
 134 89 l 1x70
 177 89 232 67 276 67 c 0
 313 67 339 89 349 132 c 1
 367 130 l 1
 372 114 375 102 375 91 c 0
 375 35 335 -12 287 -12 c 0xb0
 226 -12 175 33 102 33 c 0
 74 33 45 24 10 3 c 1
 -1 20 l 1
 283 384 l 1
 182 385 l 2
 128 385 106 369 90 320 c 1x70
EndSplineSet
Validated: 1
EndChar

StartChar: zacute
Encoding: 378 378 233
Width: 398
Flags: MW
HStem: -12 79<256.5 294.5 254 311> 33 56<134 138.5> 384 52<283 283> 695 20G<355 355>
LayerCount: 2
Back
Fore
SplineSet
90 320 m 1x70
 51 314 l 1
 51 314 75 392 85 454 c 1
 99 464 l 1
 99 464 213 436 304 436 c 0
 319 436 325 439 335 451 c 2
 351 471 l 1
 395 464 l 1
 400 445 l 1
 287 313 166 164 105 82 c 1
 134 89 l 1x70
 177 89 232 67 276 67 c 0
 313 67 339 89 349 132 c 1
 367 130 l 1
 372 114 375 102 375 91 c 0
 375 35 335 -12 287 -12 c 0xb0
 226 -12 175 33 102 33 c 0
 74 33 45 24 10 3 c 1
 -1 20 l 1
 283 384 l 1
 182 385 l 2
 128 385 106 369 90 320 c 1x70
403 672 m 1
 402 661 l 1
 402 661 318 597 234 521 c 1
 225 523 l 1
 205 542 l 1
 277 620 355 715 355 715 c 1
 365 713 l 1
 403 672 l 1
EndSplineSet
Validated: 1
EndChar

StartChar: zcaron
Encoding: 382 382 234
Width: 398
Flags: MW
HStem: -12 79<256.5 294.5 254 311> 33 56<134 138.5> 384 52<283 283> 690 20G<166 166 411 411>
LayerCount: 2
Back
Fore
SplineSet
90 320 m 1x70
 51 314 l 1
 51 314 75 392 85 454 c 1
 99 464 l 1
 99 464 213 436 304 436 c 0
 319 436 325 439 335 451 c 2
 351 471 l 1
 395 464 l 1
 400 445 l 1
 287 313 166 164 105 82 c 1
 134 89 l 1x70
 177 89 232 67 276 67 c 0
 313 67 339 89 349 132 c 1
 367 130 l 1
 372 114 375 102 375 91 c 0
 375 35 335 -12 287 -12 c 0xb0
 226 -12 175 33 102 33 c 0
 74 33 45 24 10 3 c 1
 -1 20 l 1
 283 384 l 1
 182 385 l 2
 128 385 106 369 90 320 c 1x70
139 686 m 1
 158 709 l 1
 166 710 l 1
 209 666 251 630 276 609 c 1
 305 630 358 667 411 710 c 1
 419 709 l 1
 432 686 l 1
 357 615 272 526 272 526 c 1
 259 526 l 1
 259 526 196 615 139 686 c 1
EndSplineSet
Validated: 1
EndChar

StartChar: zdotaccent
Encoding: 380 380 235
Width: 398
Flags: MW
HStem: -12 79<256.5 294.5 254 311> 33 56<134 138.5> 384 52<283 283> 602 110<274 287>
LayerCount: 2
Back
Fore
SplineSet
90 320 m 1x70
 51 314 l 1
 51 314 75 392 85 454 c 1
 99 464 l 1
 99 464 213 436 304 436 c 0
 319 436 325 439 335 451 c 2
 351 471 l 1
 395 464 l 1
 400 445 l 1
 287 313 166 164 105 82 c 1
 134 89 l 1x70
 177 89 232 67 276 67 c 0
 313 67 339 89 349 132 c 1
 367 130 l 1
 372 114 375 102 375 91 c 0
 375 35 335 -12 287 -12 c 0xb0
 226 -12 175 33 102 33 c 0
 74 33 45 24 10 3 c 1
 -1 20 l 1
 283 384 l 1
 182 385 l 2
 128 385 106 369 90 320 c 1x70
269 602 m 0
 240 602 227 624 227 647 c 0
 227 682 256 712 292 712 c 0
 321 712 335 690 335 667 c 0
 335 632 305 602 269 602 c 0
EndSplineSet
Validated: 1
EndChar

StartChar: florin
Encoding: 402 402 236
Width: 369
Flags: MW
HStem: -159 41<34 55.5> 305 53 555 43<269 298>
LayerCount: 2
Back
Fore
SplineSet
109 -43 m 2
 141 276 l 2
 141 308 137 309 76 310 c 1
 72 316 l 1
 79 350 l 1
 149 360 l 1
 159 457 l 2
 167 541 231 598 307 598 c 0
 352 598 404 583 404 562 c 0
 404 542 395 498 386 488 c 1
 373 488 l 1
 357 523 318 555 278 555 c 0
 223 555 222 490 217 426 c 2
 211 357 l 1
 341 360 l 1
 344 357 l 1
 334 304 l 1
 206 307 l 1
 176 -21 l 2
 168 -103 92 -159 19 -159 c 0
 -19 -159 -60 -144 -60 -125 c 0
 -60 -106 -51 -64 -42 -55 c 1
 -31 -55 l 1
 -17 -88 16 -118 52 -118 c 0
 80 -118 104 -97 109 -43 c 2
EndSplineSet
Validated: 1
EndChar

StartChar: Delta
Encoding: 916 916 237
AltUni2: 002206.ffffffff.0
Width: 520
Flags: MW
HStem: 0 57<64 373 64 456> 629 20G<349 357 357 357>
LayerCount: 2
Back
Fore
SplineSet
-10 0 m 1
 -18 13 l 1
 281 632 l 1
 349 649 l 1
 357 649 l 1
 357 649 419 232 464 7 c 1
 456 0 l 1
 -10 0 l 1
297 540 m 1
 290 540 l 1
 64 57 l 1
 373 57 l 1
 297 540 l 1
EndSplineSet
Validated: 1
EndChar

StartChar: Omega
Encoding: 937 937 238
AltUni2: 002126.ffffffff.0
Width: 816
Flags: MW
HStem: -6 21G<45 45 711 711> 1 55 589 60<382 505>
VStem: 124 86<273 400.5 263.5 412>
LayerCount: 2
Back
Fore
SplineSet
728 10 m 1x70
 711 -6 l 1xb0
 467 8 l 1
 426 2 l 1
 422 23 l 1
 575 149 626 246 626 378 c 0
 626 503 559 589 451 589 c 0
 313 589 210 482 210 319 c 0
 210 208 254 94 332 24 c 1
 322 1 l 1x70
 282 8 l 1
 45 -6 l 1xb0
 31 10 l 1
 38 82 33 169 33 169 c 1
 72 174 l 1
 74 83 93 56 155 56 c 2
 242 56 l 1
 167 125 124 225 124 321 c 0
 124 503 276 649 459 649 c 0
 611 649 718 548 718 403 c 0
 718 269 636 136 515 56 c 1
 616 56 l 2
 677 56 702 81 727 169 c 1
 768 174 l 1
 768 174 738 82 728 10 c 1x70
EndSplineSet
Validated: 33
EndChar

StartChar: mu
Encoding: 181 181 239
AltUni2: 0003bc.ffffffff.0
Width: 500
Flags: MW
HStem: -242 21G<0 0> -12 71<397 402> 444 20G<185 185 434 434>
LayerCount: 2
Back
Fore
SplineSet
96 445 m 1
 185 464 l 1
 189 452 l 1
 169 410 126 160 126 135 c 0
 126 86 146 57 195 57 c 0
 245 57 307 113 308 113 c 2
 336 346 l 2
 340 380 341 439 341 439 c 1
 346 446 l 1
 434 464 l 1
 439 452 l 1
 423 422 374 138 374 97 c 0
 374 73 386 59 408 59 c 0
 438 59 468 84 468 84 c 1
 480 68 l 1
 480 68 419 -12 385 -12 c 0
 335 -12 305 14 308 65 c 1
 303 67 l 1
 275 45 212 -3 171 -12 c 1
 141 -12 119 -1 103 14 c 1
 98 11 l 1
 83 -78 l 2
 74 -129 74 -220 74 -220 c 1
 68 -227 l 1
 0 -242 l 1
 -5 -230 l 1
 -5 -230 23 -88 46 73 c 2
 84 328 l 2
 91 380 90 438 90 438 c 1
 96 445 l 1
EndSplineSet
Validated: 33
EndChar

StartChar: pi
Encoding: 960 960 240
Width: 577
Flags: MW
HStem: -102 21G<83 83> -12 64<398 484> 445 50 485 20G<111 165.5 582 582>
LayerCount: 2
Back
Fore
SplineSet
406 131 m 0xe0
 406 76 430 52 484 52 c 1
 489 45 l 1
 487 34 445 -12 437 -12 c 0
 359 -12 327 29 340 119 c 2
 378 388 l 2
 384 439 380 442 305 442 c 0
 242 442 236 438 228 392 c 0
 213 310 181 102 171 22 c 0
 165 -26 162 -79 162 -79 c 1
 157 -86 l 1
 83 -102 l 1
 78 -90 l 1
 87 -74 156 358 156 406 c 0
 156 434 146 442 121 442 c 0
 91 442 55 376 55 376 c 1
 48 375 l 1
 25 393 l 1
 25 400 l 1
 96 498 l 1
 111 505 l 1xd0
 220 505 383 495 440 495 c 0xe0
 496 495 582 505 582 505 c 1xd0
 587 498 l 1
 571 452 l 1
 564 445 l 1
 479 445 461 436 452 390 c 0
 424 246 406 169 406 131 c 0xe0
EndSplineSet
Validated: 33
EndChar

StartChar: zero
Encoding: 48 48 241
Width: 510
Flags: MW
HStem: -12 76<195 288> 424 81<230 319>
LayerCount: 2
Back
Fore
SplineSet
214 -12 m 0
 103 -12 35 72 35 198 c 0
 35 373 156 505 304 505 c 0
 413 505 482 420 482 297 c 0
 482 123 362 -12 214 -12 c 0
240 64 m 0
 345 64 423 144 423 260 c 0
 423 357 364 424 274 424 c 0
 168 424 93 343 93 225 c 0
 93 130 150 64 240 64 c 0
EndSplineSet
Validated: 1
EndChar

StartChar: one
Encoding: 49 49 242
Width: 340
Flags: MW
HStem: -12 21G<18 18> 0 44 485 20G<276 277>
LayerCount: 2
Back
Fore
SplineSet
235 404 m 0xa0
 214 274 191 115 191 89 c 0
 191 55 202 44 232 44 c 0
 255 44 283 47 283 47 c 1
 284 43 l 1
 270 -3 l 1
 270 -3 189 0 142 0 c 0x60
 92 0 18 -12 18 -12 c 1
 29 34 l 1
 100 40 119 60 129 148 c 2
 157 376 l 2
 164 427 145 433 113 433 c 0
 93 433 61 427 61 427 c 1
 59 430 l 1
 68 472 l 2
 69 472 126 479 176 487 c 0
 273 503 275 505 277 505 c 2
 281 488 l 1
 253 466 244 450 235 404 c 0xa0
EndSplineSet
Validated: 33
EndChar

StartChar: two
Encoding: 50 50 243
Width: 456
Flags: MW
HStem: -12 21G<6 6> 0 61<60 269> 438 67<216 232>
LayerCount: 2
Back
Fore
SplineSet
6 -12 m 1xa0
 -1 6 l 1
 85 94 l 2
 213 225 275 318 275 377 c 0
 275 415 252 438 212 438 c 0
 169 438 119 403 84 349 c 1
 75 349 l 1
 69 394 l 1
 110 458 185 505 247 505 c 0
 319 505 366 464 366 399 c 0
 366 334 320 271 123 68 c 1
 126 61 l 1
 269 61 l 2
 339 61 359 76 387 152 c 1
 428 157 l 1
 428 157 398 73 381 0 c 1
 369 -7 l 1
 369 -7 143 0 60 0 c 1x60
 6 -12 l 1xa0
EndSplineSet
Validated: 1
EndChar

StartChar: three
Encoding: 51 51 244
Width: 400
Flags: MW
HStem: -105 70<57.5 106> 442 63<194.5 210.5>
VStem: 257 77
LayerCount: 2
Back
Fore
SplineSet
-12 -32 m 1
 -6 -26 l 1
 20 -32 45 -35 70 -35 c 0
 171 -35 255 28 255 109 c 0
 255 169 204 198 97 199 c 1
 92 204 l 1
 92 239 l 1
 156 255 l 1
 213 282 257 333 257 380 c 0
 257 417 230 442 191 442 c 0
 155 442 109 421 76 391 c 1
 66 391 l 1
 61 433 l 2
 63 433 159 505 230 505 c 0
 299 505 343 466 343 406 c 0
 343 347 293 288 219 251 c 1
 218 246 l 1
 295 227 334 188 334 134 c 0
 334 24 171 -105 41 -105 c 0
 -3 -105 -17 -84 -12 -32 c 1
EndSplineSet
Validated: 33
EndChar

StartChar: four
Encoding: 52 52 245
Width: 431
Flags: MW
HStem: -105 21G<201 201> 89 54<-12 231> 484 20G<307 307.5> 485 20G<310.5 311>
LayerCount: 2
Back
Fore
SplineSet
-12 89 m 1xd0
 -10 101 -6 114 -4 126 c 1
 307 504 l 2xe0
 308 504 310 505 311 505 c 2
 343 495 l 1
 300 143 l 1
 389 143 l 1
 394 135 l 1
 379 80 l 1
 379 80 344 81 293 83 c 1
 284 2 279 -86 279 -86 c 1
 273 -93 l 1
 201 -105 l 1
 196 -96 l 1
 196 -96 213 7 224 85 c 1
 150 87 62 89 -12 89 c 1xd0
250 367 m 1
 70 143 l 1
 231 143 l 1
 259 367 l 1
 250 367 l 1
EndSplineSet
Validated: 1
EndChar

StartChar: five
Encoding: 53 53 246
Width: 413
Flags: MW
HStem: -105 70<54 97> 422 69 518 20G<405 405>
VStem: 260 80<77.5 138>
LayerCount: 2
Back
Fore
SplineSet
340 141 m 0
 340 14 158 -105 36 -105 c 0
 -1 -105 -21 -91 -16 -32 c 1
 -10 -26 l 1
 16 -32 41 -35 67 -35 c 0
 173 -35 260 24 260 109 c 0
 260 167 212 199 75 224 c 1
 68 235 l 1
 92 353 114 479 114 479 c 1
 123 487 l 1
 306 495 l 2
 343 497 357 504 371 534 c 1
 405 538 l 1
 367 420 l 1
 360 414 l 1
 360 414 263 422 152 422 c 1
 130 293 l 1
 249 268 340 227 340 141 c 0
EndSplineSet
Validated: 33
EndChar

StartChar: six
Encoding: 54 54 247
Width: 437
Flags: MW
HStem: -12 48<177 242 177 244.5> 285 59<238.5 254.5> 578 20G<404 404>
VStem: 33 79<130 183.5 130 328> 323 77<141 200.5>
LayerCount: 2
Back
Fore
SplineSet
417 563 m 1
 417 563 212 489 138 294 c 1
 141 292 l 2
 142 292 224 344 253 344 c 0
 353 344 400 267 400 196 c 0
 400 86 306 -12 183 -12 c 0
 87 -12 33 65 33 167 c 0
 33 489 404 598 404 598 c 1
 410 593 l 1
 417 563 l 1
224 285 m 0
 182 285 139 259 123 248 c 1
 116 219 112 196 112 171 c 0
 112 89 146 36 208 36 c 0
 276 36 323 90 323 170 c 0
 323 231 285 285 224 285 c 0
EndSplineSet
Validated: 1
EndChar

StartChar: seven
Encoding: 55 55 248
Width: 404
Flags: MW
HStem: -105 21G<117 124 117 117> 421 72 477 20G<94 94>
LayerCount: 2
Back
Fore
SplineSet
124 -105 m 1xc0
 117 -105 l 1
 60 -87 l 1
 53 -65 l 1
 351 425 l 1
 187 418 l 2
 121 415 108 396 87 325 c 1
 48 319 l 1
 48 319 73 416 87 492 c 1
 94 497 l 1xa0
 94 497 151 493 210 493 c 2
 413 493 l 1
 432 465 l 1
 294 233 208 70 159 -19 c 1
 124 -105 l 1xc0
EndSplineSet
Validated: 1
EndChar

StartChar: eight
Encoding: 56 56 249
Width: 466
Flags: MW
HStem: -12 43<186 247 186 249> 552 46<239 291.5>
VStem: 40 75<108.5 161> 336 73<129 177.5> 349 77<436 490>
LayerCount: 2
Back
Fore
SplineSet
40 110 m 0xf0
 40 212 135 266 184 289 c 1
 136 318 95 356 95 420 c 0
 95 510 181 598 290 598 c 0
 360 598 426 559 426 479 c 0xe8
 426 393 358 343 312 319 c 1
 363 288 409 248 409 181 c 0
 409 77 309 -12 189 -12 c 0
 108 -12 40 31 40 110 c 0xf0
217 31 m 0
 277 31 336 81 336 147 c 0xf0
 336 208 276 238 217 271 c 1
 181 256 115 218 115 136 c 0
 115 81 155 31 217 31 c 0
169 456 m 0
 169 400 223 370 278 337 c 1
 309 355 349 390 349 460 c 0xe8
 349 520 315 552 268 552 c 0
 210 552 169 505 169 456 c 0
EndSplineSet
Validated: 1
EndChar

StartChar: nine
Encoding: 57 57 250
Width: 437
Flags: MW
HStem: -105 21G<40 40> 149 59<189 205> 457 48<202 266.5>
VStem: 44 77<290.5 352> 331 80<311.5 362>
LayerCount: 2
Back
Fore
SplineSet
26 -70 m 1
 26 -70 232 3 305 198 c 1
 302 201 l 1
 302 201 219 149 191 149 c 0
 90 149 44 226 44 297 c 0
 44 407 137 505 261 505 c 0
 357 505 411 428 411 326 c 0
 411 4 40 -105 40 -105 c 1
 34 -100 l 1
 26 -70 l 1
220 208 m 0
 262 208 304 234 321 245 c 1
 328 275 331 302 331 321 c 0
 331 403 297 457 236 457 c 0
 168 457 121 403 121 321 c 0
 121 260 158 208 220 208 c 0
EndSplineSet
Validated: 1
EndChar

StartChar: fraction
Encoding: 8260 8260 251
Width: 125
Flags: MW
HStem: -95 21G<-195 -195> 658 20G<238 238>
LayerCount: 2
Back
Fore
SplineSet
277 659 m 1
 282 645 l 1
 282 645 108 386 20 245 c 0
 -70 100 -195 -95 -195 -95 c 1
 -233 -76 l 1
 -238 -64 l 1
 -238 -64 -107 135 -18 275 c 2
 238 678 l 1
 277 659 l 1
EndSplineSet
Validated: 1
EndChar

StartChar: zero.lf
Encoding: 65549 -1 252
Width: 510
Flags: MW
HStem: -12 73<196.5 289.5> 520 78<240.5 330>
LayerCount: 2
Back
Fore
SplineSet
214 -12 m 0
 105 -12 40 85 40 231 c 0
 40 440 165 598 316 598 c 0
 422 598 489 500 489 358 c 0
 489 150 365 -12 214 -12 c 0
240 61 m 0
 347 61 428 169 428 322 c 0
 428 440 374 520 286 520 c 0
 177 520 100 411 100 256 c 0
 100 139 153 61 240 61 c 0
EndSplineSet
Validated: 1
EndChar

StartChar: one.lf
Encoding: 65550 -1 253
Width: 340
Flags: MW
HStem: -12 21G<18 18> 0 44 578 20G<290.5 291>
LayerCount: 2
Back
Fore
SplineSet
249 497 m 0xa0
 228 379 192 123 192 89 c 0
 192 55 203 44 233 44 c 0
 256 44 284 47 284 47 c 1
 285 43 l 1
 271 -3 l 1
 271 -3 190 0 143 0 c 0x60
 93 0 18 -12 18 -12 c 1
 30 34 l 1
 89 39 119 56 127 120 c 2
 170 469 l 2
 176 520 158 526 125 526 c 0
 105 526 74 520 74 520 c 1
 71 523 l 1
 80 565 l 2
 81 565 138 571 188 580 c 0
 286 596 290 598 291 598 c 2
 295 581 l 1
 268 559 257 543 249 497 c 0xa0
EndSplineSet
Validated: 33
EndChar

StartChar: two.lf
Encoding: 65551 -1 254
Width: 458
Flags: MW
HStem: -12 21G<6 6> 0 63<60 271> 531 67<227 259>
VStem: 311 90<442.5 486>
LayerCount: 2
Back
Fore
SplineSet
6 -12 m 1xb0
 -2 6 l 1
 108 119 l 1
 240 269 311 390 311 464 c 0
 311 508 284 531 234 531 c 0
 176 531 119 492 75 422 c 1
 66 422 l 1
 61 467 l 1
 103 540 192 598 262 598 c 0
 348 598 401 553 401 482 c 0
 401 403 337 308 124 70 c 1
 127 63 l 1
 271 63 l 2
 340 63 360 78 389 154 c 1
 430 159 l 1
 430 159 397 73 381 0 c 1
 368 -7 l 1
 368 -7 143 0 60 0 c 1x70
 6 -12 l 1xb0
EndSplineSet
Validated: 1
EndChar

StartChar: three.lf
Encoding: 65552 -1 255
Width: 408
Flags: MW
HStem: -12 70<91 136> 535 63<216.5 235.5>
VStem: 279 75
LayerCount: 2
Back
Fore
SplineSet
21 61 m 1
 27 67 l 1
 53 61 79 58 103 58 c 0
 198 58 276 114 276 190 c 0
 276 257 227 287 119 287 c 1
 114 292 l 1
 113 327 l 1
 178 343 l 1
 235 371 279 422 279 470 c 0
 279 509 255 535 216 535 c 0
 180 535 131 516 99 489 c 1
 89 489 l 1
 84 531 l 2
 86 531 181 598 252 598 c 0
 319 598 365 555 365 494 c 0
 365 435 314 376 241 339 c 1
 240 332 l 1
 315 311 354 269 354 210 c 0
 354 106 198 -12 74 -12 c 0
 30 -12 16 9 21 61 c 1
EndSplineSet
Validated: 33
EndChar

StartChar: four.lf
Encoding: 65553 -1 256
Width: 429
Flags: MW
HStem: -11 21G<210 210> 181 56 441 20G<259 259 259 268> 579 20G<320 320>
LayerCount: 2
Back
Fore
SplineSet
-3 183 m 1
 6 220 l 1
 316 598 l 1
 320 599 l 1
 353 589 l 1
 310 237 l 1
 398 237 l 1
 403 229 l 1
 389 174 l 1
 302 177 l 1
 293 96 288 8 288 8 c 1
 282 1 l 1
 210 -11 l 1
 205 -2 l 1
 205 -2 223 101 233 179 c 1
 -3 183 l 1
259 461 m 1
 79 237 l 1
 240 237 l 1
 268 461 l 1
 259 461 l 1
EndSplineSet
Validated: 1
EndChar

StartChar: five.lf
Encoding: 65554 -1 257
Width: 404
Flags: MW
HStem: -12 70<79.5 125.5> 307 59<81 132> 515 69 611 20G<412 412>
VStem: 269 79<167 234>
LayerCount: 2
Back
Fore
SplineSet
348 223 m 0
 348 111 189 -12 62 -12 c 0
 20 -12 6 8 9 61 c 1
 16 67 l 1
 42 61 67 58 92 58 c 0
 192 58 269 117 269 199 c 0
 269 269 209 304 81 307 c 1
 74 318 l 1
 99 441 121 572 121 572 c 1
 130 580 l 1
 313 588 l 2
 351 590 364 597 378 627 c 1
 412 631 l 1
 374 513 l 1
 367 507 l 1
 367 507 270 515 159 515 c 1
 132 366 l 1
 279 355 348 309 348 223 c 0
EndSplineSet
Validated: 33
EndChar

